SplineFontDB: 3.2
FontName: Kilroy6-BoldItalic
FullName: Kilroy6 Bold Italic
FamilyName: Kilroy6
Weight: Bold
Copyright: Copyright 2020 The Roboto Serif Project Authors (https://github.com/googlefonts/RobotoSerif) OFL
Version: 1.008
ItalicAngle: -10
UnderlinePosition: -200
UnderlineWidth: 100
Ascent: 800
Descent: 200
InvalidEm: 0
sfntRevision: 0x0001020c
LayerCount: 2
Layer: 0 1 "Back" 1
Layer: 1 1 "Fore" 0
XUID: [1021 1018 -1064020043 22447]
StyleMap: 0x0021
FSType: 0
OS2Version: 4
OS2_WeightWidthSlopeOnly: 0
OS2_UseTypoMetrics: 1
CreationTime: 1586439944
ModificationTime: 1752119734
PfmFamily: 81
TTFWeight: 700
TTFWidth: 5
LineGap: 0
VLineGap: 0
Panose: 0 0 0 0 0 0 0 0 0 0
OS2TypoAscent: 927
OS2TypoAOffset: 0
OS2TypoDescent: -244
OS2TypoDOffset: 0
OS2TypoLinegap: 0
OS2WinAscent: 1048
OS2WinAOffset: 0
OS2WinDescent: 251
OS2WinDOffset: 0
HheadAscent: 927
HheadAOffset: 0
HheadDescent: -244
HheadDOffset: 0
OS2SubXSize: 650
OS2SubYSize: 600
OS2SubXOff: -13
OS2SubYOff: 75
OS2SupXSize: 650
OS2SupYSize: 600
OS2SupXOff: 62
OS2SupYOff: 350
OS2StrikeYSize: 100
OS2StrikeYPos: 311
OS2CapHeight: 710
OS2XHeight: 518
OS2Vendor: 'COMM'
OS2CodePages: 20000193.00000000
OS2UnicodeRanges: a10000ef.4000267b.00000000.00000000
Lookup: 5 0 0 "'locl' Localized Forms in Latin lookup 0" { "'locl' Localized Forms in Latin lookup 0 subtable"  } ['locl' ('latn' <'AZE ' 'CRT ' 'TRK ' > ) ]
Lookup: 1 0 0 "Single Substitution lookup 1" { "Single Substitution lookup 1 subtable"  } []
Lookup: 5 0 0 "'locl' Localized Forms in Latin lookup 2" { "'locl' Localized Forms in Latin lookup 2 subtable"  } ['locl' ('latn' <'PLK ' > ) ]
Lookup: 1 0 0 "Single Substitution lookup 3" { "Single Substitution lookup 3 subtable"  } []
Lookup: 6 0 0 "'locl' Localized Forms in Latin lookup 4" { "'locl' Localized Forms in Latin lookup 4 subtable"  } ['locl' ('latn' <'CAT ' > ) ]
Lookup: 4 0 0 "Ligature Substitution lookup 5" { "Ligature Substitution lookup 5 subtable"  } []

StartChar: .notdef
Encoding: 256 -1 0
Width: 400
GlyphClass: 1
Flags: W
LayerCount: 2
Fore
SplineSet
0 0 m 1,0,-1
 0 700 l 1,1,-1
 400 700 l 1,2,-1
 400 0 l 1,3,-1
 0 0 l 1,0,-1
50 650 m 1,4,-1
 50 50 l 1,5,-1
 350 50 l 1,6,-1
 350 650 l 1,7,-1
 50 650 l 1,4,-1
EndSplineSet
EndChar

StartChar: A
Encoding: 65 65 4
Width: 737
GlyphClass: 2
Flags: W
AnchorPoint: "Anchor-2" 582 0 basechar 0
AnchorPoint: "Anchor-1" 360 0 basechar 0
AnchorPoint: "Anchor-0" 448 721 basechar 0
LayerCount: 2
Fore
SplineSet
181 298 m 1,0,-1
 445 298 l 1,1,-1
 436 225 l 1,2,-1
 154 225 l 1,3,-1
 181 298 l 1,0,-1
378 632 m 1,4,-1
 395 631 l 1,5,-1
 118 96 l 2,6,7
 117 90 117 90 124 85 c 128,-1,8
 131 80 131 80 145.5 77.5 c 128,-1,9
 160 75 160 75 180 75 c 2,10,-1
 191 75 l 1,11,-1
 174 0 l 1,12,-1
 -52 0 l 1,13,-1
 -36 75 l 1,14,-1
 -30 75 l 2,15,16
 -7 75 -7 75 10 85.5 c 128,-1,17
 27 96 27 96 44 128 c 2,18,-1
 351 714 l 1,19,-1
 550 714 l 1,20,-1
 610 122 l 2,21,22
 613 94 613 94 626.5 84.5 c 128,-1,23
 640 75 640 75 664 75 c 2,24,-1
 669 75 l 1,25,-1
 652 0 l 1,26,-1
 328 0 l 1,27,-1
 344 75 l 1,28,-1
 357 75 l 2,29,30
 377 75 377 75 392 76.5 c 128,-1,31
 407 78 407 78 416 80.5 c 128,-1,32
 425 83 425 83 426 86 c 2,33,-1
 378 632 l 1,4,-1
EndSplineSet
EndChar

StartChar: B
Encoding: 66 66 11
Width: 741
GlyphClass: 1
Flags: W
LayerCount: 2
Fore
SplineSet
377 334 m 2,0,-1
 298 334 l 1,1,-1
 243 78 l 1,2,-1
 347 78 l 2,3,4
 387 78 387 78 414 91 c 128,-1,5
 441 104 441 104 457.5 126.5 c 128,-1,6
 474 149 474 149 482 176.5 c 128,-1,7
 490 204 490 204 490 234 c 0,8,9
 490 266 490 266 478 288 c 128,-1,10
 466 310 466 310 441 322 c 128,-1,11
 416 334 416 334 377 334 c 2,0,-1
433 632 m 2,12,-1
 361 632 l 1,13,-1
 313 408 l 1,14,-1
 404 408 l 2,15,16
 436 408 436 408 458.5 419 c 128,-1,17
 481 430 481 430 496 449.5 c 128,-1,18
 511 469 511 469 518 494.5 c 128,-1,19
 525 520 525 520 525 549 c 0,20,21
 525 575 525 575 516 593.5 c 128,-1,22
 507 612 507 612 486.5 622 c 128,-1,23
 466 632 466 632 433 632 c 2,12,-1
476 370 m 1,24,-1
 514 389 l 1,25,-1
 504 347 l 1,26,-1
 468 374 l 1,27,28
 535 369 535 369 581.5 348.5 c 128,-1,29
 628 328 628 328 653 293.5 c 128,-1,30
 678 259 678 259 678 211 c 0,31,32
 678 160 678 160 659.5 121 c 128,-1,33
 641 82 641 82 605 55 c 128,-1,34
 569 28 569 28 514.5 14 c 128,-1,35
 460 0 460 0 389 0 c 2,36,-1
 -32 0 l 1,37,-1
 -15 75 l 1,38,-1
 -4 75 l 2,39,40
 22 75 22 75 41 82 c 128,-1,41
 60 89 60 89 65 111 c 2,42,-1
 168 599 l 2,43,44
 173 620 173 620 157.5 627.5 c 128,-1,45
 142 635 142 635 114 635 c 2,46,-1
 103 635 l 1,47,-1
 120 710 l 1,48,-1
 474 710 l 2,49,50
 555 710 555 710 607 689.5 c 128,-1,51
 659 669 659 669 684 634 c 128,-1,52
 709 599 709 599 709 552 c 0,53,54
 709 495 709 495 682 455.5 c 128,-1,55
 655 416 655 416 603 394.5 c 128,-1,56
 551 373 551 373 476 370 c 1,24,-1
EndSplineSet
EndChar

StartChar: C
Encoding: 67 67 12
Width: 738
GlyphClass: 2
Flags: W
AnchorPoint: "Anchor-1" 385 0 basechar 0
AnchorPoint: "Anchor-0" 385 741 basechar 0
LayerCount: 2
Fore
SplineSet
394 68 m 0,0,1
 437 68 437 68 470.5 82 c 128,-1,2
 504 96 504 96 531 121 c 128,-1,3
 558 146 558 146 578.5 180 c 128,-1,4
 599 214 599 214 615 254 c 1,5,-1
 687 217 l 1,6,7
 659 145 659 145 616 92.5 c 128,-1,8
 573 40 573 40 513 11.5 c 128,-1,9
 453 -17 453 -17 372 -17 c 0,10,11
 300 -17 300 -17 240 3 c 128,-1,12
 180 23 180 23 135 62.5 c 128,-1,13
 90 102 90 102 65 161 c 128,-1,14
 40 220 40 220 40 297 c 0,15,16
 40 366 40 366 58 429.5 c 128,-1,17
 76 493 76 493 110.5 547.5 c 128,-1,18
 145 602 145 602 194 642.5 c 128,-1,19
 243 683 243 683 304 705.5 c 128,-1,20
 365 728 365 728 437 728 c 0,21,22
 494 728 494 728 535 714.5 c 128,-1,23
 576 701 576 701 602 675 c 128,-1,24
 628 649 628 649 642.5 611.5 c 128,-1,25
 657 574 657 574 661 524 c 1,26,-1
 623 539 l 1,27,-1
 679 715 l 1,28,-1
 763 715 l 1,29,-1
 710 473 l 1,30,-1
 613 473 l 1,31,32
 609 529 609 529 591.5 566.5 c 128,-1,33
 574 604 574 604 542.5 623 c 128,-1,34
 511 642 511 642 463 642 c 0,35,36
 418 642 418 642 381 619 c 128,-1,37
 344 596 344 596 316.5 556 c 128,-1,38
 289 516 289 516 270.5 466.5 c 128,-1,39
 252 417 252 417 243 362.5 c 128,-1,40
 234 308 234 308 234 257 c 0,41,42
 234 210 234 210 244 175 c 128,-1,43
 254 140 254 140 274 116 c 128,-1,44
 294 92 294 92 324.5 80 c 128,-1,45
 355 68 355 68 394 68 c 0,0,1
EndSplineSet
EndChar

StartChar: D
Encoding: 68 68 15
Width: 812
GlyphClass: 2
Flags: W
AnchorPoint: "Anchor-1" 406 0 basechar 0
AnchorPoint: "Anchor-0" 406 741 basechar 0
LayerCount: 2
Fore
SplineSet
120 710 m 1,0,-1
 420 710 l 2,1,2
 504 710 504 710 570.5 690.5 c 128,-1,3
 637 671 637 671 684 632.5 c 128,-1,4
 731 594 731 594 756.5 539 c 128,-1,5
 782 484 782 484 782 413 c 0,6,7
 782 345 782 345 764 283 c 128,-1,8
 746 221 746 221 710.5 169.5 c 128,-1,9
 675 118 675 118 622.5 80 c 128,-1,10
 570 42 570 42 500 21 c 128,-1,11
 430 0 430 0 344 0 c 2,12,-1
 -32 0 l 1,13,-1
 -15 75 l 1,14,-1
 -3 75 l 2,15,16
 23 75 23 75 41.5 82 c 128,-1,17
 60 89 60 89 65 111 c 2,18,-1
 168 599 l 2,19,20
 173 620 173 620 157 627.5 c 128,-1,21
 141 635 141 635 115 635 c 2,22,-1
 103 635 l 1,23,-1
 120 710 l 1,0,-1
414 629 m 2,24,-1
 361 629 l 1,25,-1
 244 81 l 1,26,-1
 333 81 l 2,27,28
 379 81 379 81 416 95 c 128,-1,29
 453 109 453 109 481.5 135 c 128,-1,30
 510 161 510 161 530.5 195 c 128,-1,31
 551 229 551 229 564 269.5 c 128,-1,32
 577 310 577 310 583.5 353.5 c 128,-1,33
 590 397 590 397 590 440 c 0,34,35
 590 502 590 502 571.5 544.5 c 128,-1,36
 553 587 553 587 514 608 c 128,-1,37
 475 629 475 629 414 629 c 2,24,-1
EndSplineSet
EndChar

StartChar: E
Encoding: 69 69 16
Width: 676
GlyphClass: 2
Flags: W
AnchorPoint: "Anchor-2" 466 0 basechar 0
AnchorPoint: "Anchor-1" 399 0 basechar 0
AnchorPoint: "Anchor-0" 399 741 basechar 0
LayerCount: 2
Fore
SplineSet
612 226 m 1,0,-1
 565 0 l 1,1,-1
 -32 0 l 1,2,-1
 -15 75 l 1,3,-1
 -4 75 l 2,4,5
 22 75 22 75 41 82 c 128,-1,6
 60 89 60 89 65 112 c 2,7,-1
 168 599 l 2,8,9
 173 621 173 621 157 628 c 128,-1,10
 141 635 141 635 114 635 c 2,11,-1
 103 635 l 1,12,-1
 120 710 l 1,13,-1
 681 710 l 1,14,-1
 642 509 l 1,15,-1
 554 509 l 1,16,-1
 559 586 l 2,17,18
 561 604 561 604 550.5 613.5 c 128,-1,19
 540 623 540 623 518.5 626.5 c 128,-1,20
 497 630 497 630 464 630 c 2,21,-1
 361 630 l 1,22,-1
 244 80 l 1,23,-1
 362 80 l 2,24,25
 402 80 402 80 427.5 83.5 c 128,-1,26
 453 87 453 87 467 96.5 c 128,-1,27
 481 106 481 106 487 124 c 2,28,-1
 523 226 l 1,29,-1
 612 226 l 1,0,-1
290 400 m 1,30,31
 331 403 331 403 372.5 405.5 c 128,-1,32
 414 408 414 408 455.5 410.5 c 128,-1,33
 497 413 497 413 538 416 c 1,34,-1
 516 313 l 1,35,36
 476 316 476 316 436 318.5 c 128,-1,37
 396 321 396 321 355.5 324 c 128,-1,38
 315 327 315 327 274 329 c 1,39,-1
 290 400 l 1,30,31
EndSplineSet
Substitution2: "'ss01' Style Set 1 in Latin lookup 59 subtable" E.alt
EndChar

StartChar: F
Encoding: 70 70 21
Width: 648
GlyphClass: 1
Flags: W
LayerCount: 2
Fore
SplineSet
292 390 m 1,0,1
 333 393 333 393 374.5 395.5 c 128,-1,2
 416 398 416 398 457.5 401 c 128,-1,3
 499 404 499 404 540 406 c 1,4,-1
 518 303 l 1,5,6
 478 306 478 306 437.5 308.5 c 128,-1,7
 397 311 397 311 357 314 c 128,-1,8
 317 317 317 317 276 319 c 1,9,-1
 292 390 l 1,0,1
-32 0 m 1,10,-1
 -15 75 l 1,11,-1
 -4 75 l 2,12,13
 22 75 22 75 41 82 c 128,-1,14
 60 89 60 89 65 112 c 2,15,-1
 168 599 l 2,16,17
 173 621 173 621 157 628 c 128,-1,18
 141 635 141 635 114 635 c 2,19,-1
 103 635 l 1,20,-1
 120 710 l 1,21,-1
 686 710 l 1,22,-1
 646 509 l 1,23,-1
 558 509 l 1,24,-1
 563 586 l 2,25,26
 565 604 565 604 555.5 613.5 c 128,-1,27
 546 623 546 623 525 626.5 c 128,-1,28
 504 630 504 630 471 630 c 2,29,-1
 361 630 l 1,30,-1
 247 98 l 2,31,32
 245 88 245 88 255 83 c 128,-1,33
 265 78 265 78 282 76.5 c 128,-1,34
 299 75 299 75 317 75 c 2,35,-1
 335 75 l 1,36,-1
 318 0 l 1,37,-1
 -32 0 l 1,10,-1
EndSplineSet
Substitution2: "'ss01' Style Set 1 in Latin lookup 59 subtable" F.alt
EndChar

StartChar: G
Encoding: 71 71 22
Width: 798
GlyphClass: 2
Flags: W
AnchorPoint: "Anchor-1" 399 0 basechar 0
AnchorPoint: "Anchor-0" 399 741 basechar 0
LayerCount: 2
Fore
SplineSet
233 254 m 0,0,1
 233 296 233 296 239 340.5 c 128,-1,2
 245 385 245 385 257 428.5 c 128,-1,3
 269 472 269 472 288 510.5 c 128,-1,4
 307 549 307 549 333 578.5 c 128,-1,5
 359 608 359 608 392.5 625 c 128,-1,6
 426 642 426 642 468 642 c 0,7,8
 518 642 518 642 549 622.5 c 128,-1,9
 580 603 580 603 597 567 c 128,-1,10
 614 531 614 531 620 484 c 1,11,-1
 717 484 l 1,12,-1
 766 715 l 1,13,-1
 681 715 l 1,14,-1
 629 550 l 1,15,-1
 667 531 l 1,16,17
 663 577 663 577 649 613.5 c 128,-1,18
 635 650 635 650 609.5 675.5 c 128,-1,19
 584 701 584 701 543.5 714.5 c 128,-1,20
 503 728 503 728 444 728 c 0,21,22
 366 728 366 728 302.5 705 c 128,-1,23
 239 682 239 682 190 641 c 128,-1,24
 141 600 141 600 107.5 545.5 c 128,-1,25
 74 491 74 491 56.5 427 c 128,-1,26
 39 363 39 363 39 294 c 0,27,28
 39 222 39 222 62.5 164.5 c 128,-1,29
 86 107 86 107 130.5 66.5 c 128,-1,30
 175 26 175 26 238 4.5 c 128,-1,31
 301 -17 301 -17 379 -17 c 0,32,33
 431 -17 431 -17 474.5 -8 c 128,-1,34
 518 1 518 1 553 16 c 128,-1,35
 588 31 588 31 614.5 48 c 128,-1,36
 641 65 641 65 659 81 c 1,37,-1
 694 242 l 2,38,39
 699 265 699 265 714 272.5 c 128,-1,40
 729 280 729 280 753 280 c 2,41,-1
 768 280 l 1,42,-1
 784 355 l 1,43,-1
 464 355 l 1,44,-1
 448 280 l 1,45,-1
 464 280 l 2,46,47
 485 280 485 280 499.5 277 c 128,-1,48
 514 274 514 274 521 265.5 c 128,-1,49
 528 257 528 257 525 241 c 2,50,-1
 495 103 l 1,51,52
 488 98 488 98 473.5 89.5 c 128,-1,53
 459 81 459 81 437 74.5 c 128,-1,54
 415 68 415 68 384 68 c 0,55,56
 347 68 347 68 318.5 80 c 128,-1,57
 290 92 290 92 271 115.5 c 128,-1,58
 252 139 252 139 242.5 173.5 c 128,-1,59
 233 208 233 208 233 254 c 0,0,1
EndSplineSet
EndChar

StartChar: H
Encoding: 72 72 24
Width: 840
GlyphClass: 2
Flags: W
AnchorPoint: "Anchor-1" 420 0 basechar 0
AnchorPoint: "Anchor-0" 420 741 basechar 0
LayerCount: 2
Fore
SplineSet
213 406 m 1,0,-1
 633 406 l 1,1,-1
 616 325 l 1,2,-1
 196 325 l 1,3,-1
 213 406 l 1,0,-1
-32 0 m 1,4,-1
 -15 75 l 1,5,-1
 -4 75 l 2,6,7
 23 75 23 75 41.5 82 c 128,-1,8
 60 89 60 89 65 111 c 2,9,-1
 168 599 l 2,10,11
 173 621 173 621 157 628 c 128,-1,12
 141 635 141 635 114 635 c 2,13,-1
 103 635 l 1,14,-1
 120 710 l 1,15,-1
 448 710 l 1,16,-1
 431 635 l 1,17,-1
 422 635 l 2,18,19
 409 635 409 635 395 634 c 128,-1,20
 381 633 381 633 371 631 c 128,-1,21
 361 629 361 629 360 625 c 2,22,-1
 245 85 l 2,23,24
 244 82 244 82 253.5 79.5 c 128,-1,25
 263 77 263 77 277 76 c 128,-1,26
 291 75 291 75 304 75 c 2,27,-1
 313 75 l 1,28,-1
 296 0 l 1,29,-1
 -32 0 l 1,4,-1
405 0 m 1,30,-1
 422 75 l 1,31,-1
 431 75 l 2,32,33
 444 75 444 75 458 76 c 128,-1,34
 472 77 472 77 482.5 79.5 c 128,-1,35
 493 82 493 82 493 85 c 2,36,-1
 608 625 l 2,37,38
 609 629 609 629 599.5 631 c 128,-1,39
 590 633 590 633 576 634 c 128,-1,40
 562 635 562 635 549 635 c 2,41,-1
 540 635 l 1,42,-1
 557 710 l 1,43,-1
 885 710 l 1,44,-1
 868 635 l 1,45,-1
 857 635 l 2,46,47
 830 635 830 635 811.5 628 c 128,-1,48
 793 621 793 621 788 599 c 2,49,-1
 685 111 l 2,50,51
 680 89 680 89 696 82 c 128,-1,52
 712 75 712 75 739 75 c 2,53,-1
 750 75 l 1,54,-1
 733 0 l 1,55,-1
 405 0 l 1,30,-1
EndSplineSet
EndChar

StartChar: I
Encoding: 73 73 26
Width: 415
GlyphClass: 2
Flags: W
AnchorPoint: "Anchor-2" 270 0 basechar 0
AnchorPoint: "Anchor-1" 208 0 basechar 0
AnchorPoint: "Anchor-0" 208 741 basechar 0
LayerCount: 2
Fore
SplineSet
69 110 m 2,0,-1
 172 599 l 2,1,2
 177 621 177 621 161 628 c 128,-1,3
 145 635 145 635 118 635 c 2,4,-1
 103 635 l 1,5,-1
 120 710 l 1,6,-1
 459 710 l 1,7,-1
 442 635 l 1,8,-1
 427 635 l 2,9,10
 401 635 401 635 382 628 c 128,-1,11
 363 621 363 621 358 600 c 2,12,-1
 255 111 l 2,13,14
 250 89 250 89 266 82 c 128,-1,15
 282 75 282 75 309 75 c 2,16,-1
 324 75 l 1,17,-1
 307 0 l 1,18,-1
 -32 0 l 1,19,-1
 -15 75 l 1,20,-1
 0 75 l 2,21,22
 27 75 27 75 46 82 c 128,-1,23
 65 89 65 89 69 110 c 2,0,-1
EndSplineSet
EndChar

StartChar: J
Encoding: 74 74 31
Width: 650
GlyphClass: 2
Flags: W
AnchorPoint: "Anchor-0" 435 741 basechar 0
LayerCount: 2
Fore
SplineSet
408 599 m 2,0,1
 413 621 413 621 395 628 c 128,-1,2
 377 635 377 635 349 635 c 2,3,-1
 325 635 l 1,4,-1
 342 710 l 1,5,-1
 694 710 l 1,6,-1
 678 635 l 1,7,-1
 663 635 l 2,8,9
 636 635 636 635 617 628 c 128,-1,10
 598 621 598 621 594 599 c 2,11,-1
 512 213 l 2,12,13
 495 131 495 131 456 80 c 128,-1,14
 417 29 417 29 358.5 6 c 128,-1,15
 300 -17 300 -17 223 -17 c 0,16,17
 161 -17 161 -17 113 -4.5 c 128,-1,18
 65 8 65 8 31.5 26.5 c 128,-1,19
 -2 45 -2 45 -22 64 c 1,20,-1
 15 234 l 1,21,-1
 159 234 l 1,22,-1
 121 60 l 1,23,24
 104 65 104 65 94 78.5 c 128,-1,25
 84 92 84 92 81 105.5 c 128,-1,26
 78 119 78 119 82.5 126 c 128,-1,27
 87 133 87 133 99 126 c 1,28,29
 109 104 109 104 135.5 85.5 c 128,-1,30
 162 67 162 67 205 67 c 0,31,32
 236 67 236 67 259 81 c 128,-1,33
 282 95 282 95 299 129.5 c 128,-1,34
 316 164 316 164 329 224 c 2,35,-1
 408 599 l 2,0,1
EndSplineSet
EndChar

StartChar: K
Encoding: 75 75 33
Width: 814
GlyphClass: 2
Flags: W
AnchorPoint: "Anchor-1" 404 0 basechar 0
AnchorPoint: "Anchor-0" 404 741 basechar 0
LayerCount: 2
Fore
SplineSet
-32 0 m 1,0,-1
 -15 75 l 1,1,-1
 -4 75 l 2,2,3
 23 75 23 75 41.5 82 c 128,-1,4
 60 89 60 89 65 111 c 2,5,-1
 168 599 l 2,6,7
 173 621 173 621 157 628 c 128,-1,8
 141 635 141 635 114 635 c 2,9,-1
 103 635 l 1,10,-1
 120 710 l 1,11,-1
 456 710 l 1,12,-1
 439 635 l 1,13,-1
 428 635 l 2,14,15
 412 635 412 635 396.5 634 c 128,-1,16
 381 633 381 633 370.5 631 c 128,-1,17
 360 629 360 629 359 625 c 2,18,-1
 245 85 l 2,19,20
 244 82 244 82 253 79.5 c 128,-1,21
 262 77 262 77 275 76 c 128,-1,22
 288 75 288 75 300 75 c 2,23,-1
 308 75 l 1,24,-1
 291 0 l 1,25,-1
 -32 0 l 1,0,-1
392 0 m 1,26,-1
 409 75 l 1,27,-1
 417 75 l 2,28,29
 432 75 432 75 445 76 c 128,-1,30
 458 77 458 77 467 79.5 c 128,-1,31
 476 82 476 82 476 85 c 2,32,-1
 331 342 l 1,33,-1
 336 368 l 1,34,-1
 620 625 l 2,35,36
 621 628 621 628 615 629.5 c 128,-1,37
 609 631 609 631 598.5 632.5 c 128,-1,38
 588 634 588 634 575.5 634.5 c 128,-1,39
 563 635 563 635 550 635 c 2,40,-1
 538 635 l 1,41,-1
 555 710 l 1,42,-1
 824 710 l 1,43,-1
 807 635 l 1,44,-1
 789 635 l 2,45,46
 772 635 772 635 758.5 632 c 128,-1,47
 745 629 745 629 732.5 622.5 c 128,-1,48
 720 616 720 616 705 603 c 2,49,-1
 428 351 l 1,50,-1
 473 452 l 1,51,-1
 675 102 l 2,52,53
 682 92 682 92 689 86 c 128,-1,54
 696 80 696 80 706 77.5 c 128,-1,55
 716 75 716 75 729 75 c 2,56,-1
 744 75 l 1,57,-1
 727 0 l 1,58,-1
 392 0 l 1,26,-1
EndSplineSet
EndChar

StartChar: L
Encoding: 76 76 34
Width: 663
GlyphClass: 2
Flags: W
AnchorPoint: "Anchor-2" 503 710 basechar 0
AnchorPoint: "Anchor-1" 403 0 basechar 0
AnchorPoint: "Anchor-0" 403 741 basechar 0
LayerCount: 2
Fore
SplineSet
462 710 m 1,0,-1
 445 635 l 1,1,-1
 428 635 l 2,2,3
 409 635 409 635 393 632 c 128,-1,4
 377 629 377 629 367 621.5 c 128,-1,5
 357 614 357 614 353 600 c 2,6,-1
 244 80 l 1,7,-1
 353 80 l 2,8,9
 383 80 383 80 405 82 c 128,-1,10
 427 84 427 84 441.5 89 c 128,-1,11
 456 94 456 94 465 102.5 c 128,-1,12
 474 111 474 111 479 124 c 2,13,-1
 519 250 l 1,14,-1
 610 250 l 1,15,-1
 558 0 l 1,16,-1
 -32 0 l 1,17,-1
 -15 75 l 1,18,-1
 -4 75 l 2,19,20
 22 75 22 75 41 82 c 128,-1,21
 60 89 60 89 65 110 c 2,22,-1
 168 599 l 2,23,24
 173 621 173 621 157 628 c 128,-1,25
 141 635 141 635 114 635 c 2,26,-1
 103 635 l 1,27,-1
 120 710 l 1,28,-1
 462 710 l 1,0,-1
EndSplineSet
EndChar

StartChar: M
Encoding: 77 77 35
Width: 992
GlyphClass: 2
Flags: W
AnchorPoint: "Anchor-1" 475 0 basechar 0
LayerCount: 2
Fore
SplineSet
-32 0 m 1,0,-1
 -15 75 l 1,1,-1
 -5 75 l 2,2,3
 13 75 13 75 27.5 78 c 128,-1,4
 42 81 42 81 52 89 c 128,-1,5
 62 97 62 97 65 111 c 2,6,-1
 167 599 l 2,7,8
 171 614 171 614 164.5 621.5 c 128,-1,9
 158 629 158 629 144.5 632 c 128,-1,10
 131 635 131 635 113 635 c 2,11,-1
 103 635 l 1,12,-1
 120 710 l 1,13,-1
 444 710 l 1,14,-1
 483 187 l 1,15,-1
 431 161 l 1,16,-1
 713 710 l 1,17,-1
 1036 710 l 1,18,-1
 1019 635 l 1,19,-1
 1009 635 l 2,20,21
 982 635 982 635 963 628 c 128,-1,22
 944 621 944 621 939 599 c 2,23,-1
 836 111 l 2,24,25
 834 97 834 97 840.5 89 c 128,-1,26
 847 81 847 81 860.5 78 c 128,-1,27
 874 75 874 75 891 75 c 2,28,-1
 901 75 l 1,29,-1
 885 0 l 1,30,-1
 558 0 l 1,31,-1
 575 75 l 1,32,-1
 583 75 l 2,33,34
 595 75 595 75 609.5 76 c 128,-1,35
 624 77 624 77 635 79.5 c 128,-1,36
 646 82 646 82 646 85 c 2,37,-1
 774 687 l 1,38,-1
 786 688 l 1,39,-1
 421 -4 l 1,40,-1
 327 -4 l 1,41,-1
 261 688 l 1,42,-1
 274 692 l 1,43,-1
 146 85 l 2,44,45
 145 82 145 82 154 79.5 c 128,-1,46
 163 77 163 77 176 76 c 128,-1,47
 189 75 189 75 200 75 c 2,48,-1
 206 75 l 1,49,-1
 190 0 l 1,50,-1
 -32 0 l 1,0,-1
EndSplineSet
EndChar

StartChar: N
Encoding: 78 78 36
Width: 795
GlyphClass: 2
Flags: W
AnchorPoint: "Anchor-1" 405 0 basechar 0
AnchorPoint: "Anchor-0" 405 741 basechar 0
LayerCount: 2
Fore
SplineSet
-32 0 m 1,0,-1
 -15 75 l 1,1,-1
 -4 75 l 2,2,3
 14 75 14 75 28.5 78.5 c 128,-1,4
 43 82 43 82 53 90.5 c 128,-1,5
 63 99 63 99 65 113 c 2,6,-1
 168 599 l 2,7,8
 171 614 171 614 164.5 621.5 c 128,-1,9
 158 629 158 629 145 632 c 128,-1,10
 132 635 132 635 114 635 c 2,11,-1
 103 635 l 1,12,-1
 120 710 l 1,13,-1
 424 710 l 1,14,-1
 582 147 l 1,15,-1
 558 115 l 1,16,-1
 663 623 l 2,17,18
 664 627 664 627 654 629.5 c 128,-1,19
 644 632 644 632 629.5 633.5 c 128,-1,20
 615 635 615 635 601 635 c 2,21,-1
 588 635 l 1,22,-1
 605 710 l 1,23,-1
 841 710 l 1,24,-1
 824 635 l 1,25,-1
 813 635 l 2,26,27
 787 635 787 635 768 629 c 128,-1,28
 749 623 749 623 745 601 c 2,29,-1
 617 0 l 1,30,-1
 437 0 l 1,31,-1
 246 670 l 1,32,-1
 269 668 l 1,33,-1
 146 87 l 2,34,35
 146 84 146 84 155.5 81 c 128,-1,36
 165 78 165 78 179.5 76.5 c 128,-1,37
 194 75 194 75 208 75 c 2,38,-1
 221 75 l 1,39,-1
 204 0 l 1,40,-1
 -32 0 l 1,0,-1
EndSplineSet
EndChar

StartChar: O
Encoding: 79 79 38
Width: 811
GlyphClass: 2
Flags: W
AnchorPoint: "Anchor-2" 427 0 basechar 0
AnchorPoint: "Anchor-1" 406 0 basechar 0
AnchorPoint: "Anchor-0" 406 741 basechar 0
LayerCount: 2
Fore
SplineSet
367 -17 m 0,0,1
 291 -17 291 -17 231 5.5 c 128,-1,2
 171 28 171 28 128.5 69 c 128,-1,3
 86 110 86 110 63 166.5 c 128,-1,4
 40 223 40 223 40 289 c 0,5,6
 40 353 40 353 56.5 416.5 c 128,-1,7
 73 480 73 480 105.5 536 c 128,-1,8
 138 592 138 592 187 635 c 128,-1,9
 236 678 236 678 302.5 703 c 128,-1,10
 369 728 369 728 453 728 c 0,11,12
 528 728 528 728 588.5 705 c 128,-1,13
 649 682 649 682 691.5 641 c 128,-1,14
 734 600 734 600 757 544 c 128,-1,15
 780 488 780 488 780 421 c 0,16,17
 780 357 780 357 763.5 293.5 c 128,-1,18
 747 230 747 230 714.5 174 c 128,-1,19
 682 118 682 118 633 75 c 128,-1,20
 584 32 584 32 517.5 7.5 c 128,-1,21
 451 -17 451 -17 367 -17 c 0,0,1
453 642 m 0,22,23
 416 642 416 642 386.5 627 c 128,-1,24
 357 612 357 612 332.5 583 c 128,-1,25
 308 554 308 554 289 512.5 c 128,-1,26
 270 471 270 471 255 417 c 0,27,28
 246 386 246 386 240 355 c 128,-1,29
 234 324 234 324 231 294.5 c 128,-1,30
 228 265 228 265 228 238 c 0,31,32
 228 197 228 197 236.5 165.5 c 128,-1,33
 245 134 245 134 262.5 112 c 128,-1,34
 280 90 280 90 306 79 c 128,-1,35
 332 68 332 68 367 68 c 0,36,37
 404 68 404 68 433.5 83 c 128,-1,38
 463 98 463 98 487.5 127 c 128,-1,39
 512 156 512 156 531 197.5 c 128,-1,40
 550 239 550 239 565 293 c 0,41,42
 575 325 575 325 580.5 355.5 c 128,-1,43
 586 386 586 386 589 415.5 c 128,-1,44
 592 445 592 445 592 472 c 0,45,46
 592 513 592 513 583.5 544.5 c 128,-1,47
 575 576 575 576 557.5 598 c 128,-1,48
 540 620 540 620 514 631 c 128,-1,49
 488 642 488 642 453 642 c 0,22,23
EndSplineSet
EndChar

StartChar: P
Encoding: 80 80 44
Width: 716
GlyphClass: 1
Flags: W
LayerCount: 2
Fore
SplineSet
330 75 m 1,0,-1
 313 0 l 1,1,-1
 -32 0 l 1,2,-1
 -15 72 l 1,3,-1
 -5 72 l 2,4,5
 22 72 22 72 40.5 79.5 c 128,-1,6
 59 87 59 87 64 108 c 2,7,-1
 169 602 l 2,8,9
 172 616 172 616 166 624 c 128,-1,10
 160 632 160 632 147 635 c 128,-1,11
 134 638 134 638 115 638 c 2,12,-1
 104 638 l 1,13,-1
 120 710 l 1,14,-1
 457 710 l 2,15,16
 543 710 543 710 600.5 686.5 c 128,-1,17
 658 663 658 663 686.5 620 c 128,-1,18
 715 577 715 577 715 520 c 0,19,20
 715 462 715 462 694.5 416.5 c 128,-1,21
 674 371 674 371 635 339 c 128,-1,22
 596 307 596 307 539 290 c 128,-1,23
 482 273 482 273 410 273 c 2,24,-1
 285 273 l 1,25,-1
 245 85 l 2,26,27
 244 82 244 82 253 79.5 c 128,-1,28
 262 77 262 77 276.5 76 c 128,-1,29
 291 75 291 75 308 75 c 2,30,-1
 330 75 l 1,0,-1
532 527 m 0,31,32
 532 560 532 560 520.5 582.5 c 128,-1,33
 509 605 509 605 486.5 617 c 128,-1,34
 464 629 464 629 429 629 c 2,35,-1
 361 629 l 1,36,-1
 302 353 l 1,37,-1
 387 353 l 2,38,39
 424 353 424 353 451.5 367 c 128,-1,40
 479 381 479 381 497 405.5 c 128,-1,41
 515 430 515 430 523.5 461 c 128,-1,42
 532 492 532 492 532 527 c 0,31,32
EndSplineSet
EndChar

StartChar: Q
Encoding: 81 81 45
Width: 812
GlyphClass: 1
Flags: W
LayerCount: 2
Fore
SplineSet
780 421 m 0,0,1
 780 357 780 357 763.5 293.5 c 128,-1,2
 747 230 747 230 714.5 174 c 128,-1,3
 682 118 682 118 633 75 c 128,-1,4
 584 32 584 32 517.5 7.5 c 128,-1,5
 451 -17 451 -17 367 -17 c 0,6,7
 291 -17 291 -17 231 5.5 c 128,-1,8
 171 28 171 28 128.5 69 c 128,-1,9
 86 110 86 110 63 166.5 c 128,-1,10
 40 223 40 223 40 289 c 0,11,12
 40 353 40 353 56.5 416.5 c 128,-1,13
 73 480 73 480 105.5 536 c 128,-1,14
 138 592 138 592 187 635 c 128,-1,15
 236 678 236 678 302.5 703 c 128,-1,16
 369 728 369 728 453 728 c 0,17,18
 528 728 528 728 588.5 705 c 128,-1,19
 649 682 649 682 691.5 641 c 128,-1,20
 734 600 734 600 757 544 c 128,-1,21
 780 488 780 488 780 421 c 0,0,1
367 68 m 0,22,23
 404 68 404 68 433.5 83 c 128,-1,24
 463 98 463 98 487.5 127 c 128,-1,25
 512 156 512 156 531 197.5 c 128,-1,26
 550 239 550 239 565 293 c 0,27,28
 575 325 575 325 580.5 355.5 c 128,-1,29
 586 386 586 386 589 415.5 c 128,-1,30
 592 445 592 445 592 472 c 0,31,32
 592 513 592 513 583.5 544.5 c 128,-1,33
 575 576 575 576 557.5 598 c 128,-1,34
 540 620 540 620 514 631 c 128,-1,35
 488 642 488 642 453 642 c 0,36,37
 416 642 416 642 386.5 627 c 128,-1,38
 357 612 357 612 332.5 583 c 128,-1,39
 308 554 308 554 289 512.5 c 128,-1,40
 270 471 270 471 255 417 c 0,41,42
 246 386 246 386 240 355 c 128,-1,43
 234 324 234 324 231 294.5 c 128,-1,44
 228 265 228 265 228 238 c 0,45,46
 228 197 228 197 236.5 165.5 c 128,-1,47
 245 134 245 134 262.5 112 c 128,-1,48
 280 90 280 90 306 79 c 128,-1,49
 332 68 332 68 367 68 c 0,22,23
507 -241 m 256,50,51
 459 -241 459 -241 420 -231 c 128,-1,52
 381 -221 381 -221 354 -201.5 c 128,-1,53
 327 -182 327 -182 312.5 -153.5 c 128,-1,54
 298 -125 298 -125 298 -89 c 0,55,56
 298 -65 298 -65 303.5 -40.5 c 128,-1,57
 309 -16 309 -16 317 7 c 1,58,-1
 405 12 l 1,59,60
 401 1 401 1 399 -11 c 128,-1,61
 397 -23 397 -23 397 -36 c 0,62,63
 397 -62 397 -62 411 -79 c 128,-1,64
 425 -96 425 -96 453 -104 c 128,-1,65
 481 -112 481 -112 522 -112 c 0,66,67
 559 -112 559 -112 591 -106.5 c 128,-1,68
 623 -101 623 -101 649.5 -93.5 c 128,-1,69
 676 -86 676 -86 695 -80 c 1,70,-1
 665 -217 l 1,71,72
 638 -227 638 -227 596.5 -234 c 128,-1,73
 555 -241 555 -241 507 -241 c 256,50,51
EndSplineSet
EndChar

StartChar: R
Encoding: 82 82 46
Width: 769
GlyphClass: 2
Flags: W
AnchorPoint: "Anchor-1" 423 0 basechar 0
AnchorPoint: "Anchor-0" 423 741 basechar 0
LayerCount: 2
Fore
SplineSet
376 320 m 1,0,-1
 546 355 l 1,1,-1
 629 121 l 2,2,3
 636 102 636 102 644 92 c 128,-1,4
 652 82 652 82 663 78.5 c 128,-1,5
 674 75 674 75 689 75 c 2,6,-1
 701 75 l 1,7,-1
 684 0 l 1,8,-1
 473 0 l 1,9,-1
 376 320 l 1,0,-1
317 75 m 1,10,-1
 300 0 l 1,11,-1
 -32 0 l 1,12,-1
 -15 75 l 1,13,-1
 -4 75 l 2,14,15
 22 75 22 75 41 82 c 128,-1,16
 60 89 60 89 65 111 c 2,17,-1
 168 599 l 2,18,19
 173 620 173 620 157.5 627.5 c 128,-1,20
 142 635 142 635 114 635 c 2,21,-1
 103 635 l 1,22,-1
 120 710 l 1,23,-1
 472 710 l 2,24,25
 552 710 552 710 608 688 c 128,-1,26
 664 666 664 666 693 625 c 128,-1,27
 722 584 722 584 722 526 c 0,28,29
 722 477 722 477 704 437.5 c 128,-1,30
 686 398 686 398 651.5 369.5 c 128,-1,31
 617 341 617 341 567.5 325 c 128,-1,32
 518 309 518 309 455 306 c 0,33,34
 446 302 446 302 439.5 299 c 128,-1,35
 433 296 433 296 428.5 293.5 c 128,-1,36
 424 291 424 291 417 289 c 2,37,-1
 288 289 l 1,38,-1
 245 85 l 2,39,40
 245 82 245 82 253 79.5 c 128,-1,41
 261 77 261 77 274.5 76 c 128,-1,42
 288 75 288 75 304 75 c 2,43,-1
 317 75 l 1,10,-1
434 632 m 2,44,-1
 361 632 l 1,45,-1
 304 366 l 1,46,-1
 400 366 l 2,47,48
 432 366 432 366 457 380 c 128,-1,49
 482 394 482 394 498.5 417.5 c 128,-1,50
 515 441 515 441 523.5 471.5 c 128,-1,51
 532 502 532 502 532 535 c 0,52,53
 532 566 532 566 521.5 587.5 c 128,-1,54
 511 609 511 609 490 620.5 c 128,-1,55
 469 632 469 632 434 632 c 2,44,-1
EndSplineSet
EndChar

StartChar: S
Encoding: 83 83 47
Width: 648
GlyphClass: 2
Flags: W
AnchorPoint: "Anchor-1" 350 0 basechar 0
AnchorPoint: "Anchor-0" 350 741 basechar 0
LayerCount: 2
Fore
SplineSet
326 -17 m 0,0,1
 269 -17 269 -17 224.5 -5 c 128,-1,2
 180 7 180 7 148.5 31 c 128,-1,3
 117 55 117 55 97 90.5 c 128,-1,4
 77 126 77 126 69 174 c 1,5,6
 75 175 75 175 83 175 c 128,-1,7
 91 175 91 175 98 171.5 c 128,-1,8
 105 168 105 168 106 158 c 1,9,-1
 53 -2 l 1,10,-1
 -27 -2 l 1,11,-1
 24 231 l 1,12,-1
 120 231 l 1,13,14
 126 190 126 190 141 158.5 c 128,-1,15
 156 127 156 127 181 106 c 128,-1,16
 206 85 206 85 240 74.5 c 128,-1,17
 274 64 274 64 317 64 c 0,18,19
 359 64 359 64 385 75.5 c 128,-1,20
 411 87 411 87 423 109 c 128,-1,21
 435 131 435 131 435 161 c 0,22,23
 435 188 435 188 421.5 206.5 c 128,-1,24
 408 225 408 225 384 239 c 128,-1,25
 360 253 360 253 329 266.5 c 128,-1,26
 298 280 298 280 263 296 c 0,27,28
 216 318 216 318 177.5 344.5 c 128,-1,29
 139 371 139 371 117 409.5 c 128,-1,30
 95 448 95 448 95 505 c 0,31,32
 95 571 95 571 124.5 621 c 128,-1,33
 154 671 154 671 211 699.5 c 128,-1,34
 268 728 268 728 351 728 c 0,35,36
 412 728 412 728 454.5 709.5 c 128,-1,37
 497 691 497 691 522 655 c 128,-1,38
 547 619 547 619 554 567 c 1,39,40
 547 564 547 564 539.5 563 c 128,-1,41
 532 562 532 562 526.5 566 c 128,-1,42
 521 570 521 570 518 580 c 1,43,-1
 565 713 l 1,44,-1
 642 713 l 1,45,-1
 598 511 l 1,46,-1
 510 511 l 1,47,48
 505 555 505 555 486.5 585 c 128,-1,49
 468 615 468 615 436 631 c 128,-1,50
 404 647 404 647 360 647 c 0,51,52
 323 647 323 647 298.5 636 c 128,-1,53
 274 625 274 625 262 606 c 128,-1,54
 250 587 250 587 250 559 c 0,55,56
 250 534 250 534 261 517.5 c 128,-1,57
 272 501 272 501 292.5 489 c 128,-1,58
 313 477 313 477 341 465.5 c 128,-1,59
 369 454 369 454 401 440 c 0,60,61
 440 423 440 423 474.5 404 c 128,-1,62
 509 385 509 385 536 360 c 128,-1,63
 563 335 563 335 579 302 c 128,-1,64
 595 269 595 269 595 225 c 0,65,66
 595 172 595 172 577.5 127.5 c 128,-1,67
 560 83 560 83 526.5 50.5 c 128,-1,68
 493 18 493 18 442.5 0.5 c 128,-1,69
 392 -17 392 -17 326 -17 c 0,0,1
EndSplineSet
EndChar

StartChar: Scaron
Encoding: 138 352 49
Width: 648
GlyphClass: 1
Flags: W
LayerCount: 2
Fore
SplineSet
311 770 m 1,0,-1
 442 770 l 1,1,-1
 602 921 l 1,2,-1
 608 950 l 1,3,-1
 531 950 l 1,4,-1
 352 850 l 1,5,-1
 433 848 l 1,6,-1
 297 950 l 1,7,-1
 222 950 l 1,8,-1
 216 921 l 1,9,-1
 311 770 l 1,0,-1
326 -17 m 0,10,11
 269 -17 269 -17 224.5 -5 c 128,-1,12
 180 7 180 7 148.5 31 c 128,-1,13
 117 55 117 55 97 90.5 c 128,-1,14
 77 126 77 126 69 174 c 1,15,16
 75 175 75 175 83 175 c 128,-1,17
 91 175 91 175 98 171.5 c 128,-1,18
 105 168 105 168 106 158 c 1,19,-1
 53 -2 l 1,20,-1
 -27 -2 l 1,21,-1
 24 231 l 1,22,-1
 120 231 l 1,23,24
 126 190 126 190 141 158.5 c 128,-1,25
 156 127 156 127 181 106 c 128,-1,26
 206 85 206 85 240 74.5 c 128,-1,27
 274 64 274 64 317 64 c 0,28,29
 359 64 359 64 385 75.5 c 128,-1,30
 411 87 411 87 423 109 c 128,-1,31
 435 131 435 131 435 161 c 0,32,33
 435 188 435 188 421.5 206.5 c 128,-1,34
 408 225 408 225 384 239 c 128,-1,35
 360 253 360 253 329 266.5 c 128,-1,36
 298 280 298 280 263 296 c 0,37,38
 216 318 216 318 177.5 344.5 c 128,-1,39
 139 371 139 371 117 409.5 c 128,-1,40
 95 448 95 448 95 505 c 0,41,42
 95 571 95 571 124.5 621 c 128,-1,43
 154 671 154 671 211 699.5 c 128,-1,44
 268 728 268 728 351 728 c 0,45,46
 412 728 412 728 454.5 709.5 c 128,-1,47
 497 691 497 691 522 655 c 128,-1,48
 547 619 547 619 554 567 c 1,49,50
 547 564 547 564 539.5 563 c 128,-1,51
 532 562 532 562 526.5 566 c 128,-1,52
 521 570 521 570 518 580 c 1,53,-1
 565 713 l 1,54,-1
 642 713 l 1,55,-1
 598 511 l 1,56,-1
 510 511 l 1,57,58
 505 555 505 555 486.5 585 c 128,-1,59
 468 615 468 615 436 631 c 128,-1,60
 404 647 404 647 360 647 c 0,61,62
 323 647 323 647 298.5 636 c 128,-1,63
 274 625 274 625 262 606 c 128,-1,64
 250 587 250 587 250 559 c 0,65,66
 250 534 250 534 261 517.5 c 128,-1,67
 272 501 272 501 292.5 489 c 128,-1,68
 313 477 313 477 341 465.5 c 128,-1,69
 369 454 369 454 401 440 c 0,70,71
 440 423 440 423 474.5 404 c 128,-1,72
 509 385 509 385 536 360 c 128,-1,73
 563 335 563 335 579 302 c 128,-1,74
 595 269 595 269 595 225 c 0,75,76
 595 172 595 172 577.5 127.5 c 128,-1,77
 560 83 560 83 526.5 50.5 c 128,-1,78
 493 18 493 18 442.5 0.5 c 128,-1,79
 392 -17 392 -17 326 -17 c 0,10,11
EndSplineSet
EndChar

StartChar: T
Encoding: 84 84 50
Width: 743
GlyphClass: 2
Flags: W
AnchorPoint: "Anchor-1" 371 0 basechar 0
AnchorPoint: "Anchor-0" 371 741 basechar 0
LayerCount: 2
Fore
SplineSet
232 111 m 2,0,-1
 341 628 l 1,1,-1
 311 628 l 2,2,3
 271 628 271 628 246.5 624 c 128,-1,4
 222 620 222 620 209.5 609 c 128,-1,5
 197 598 197 598 191 580 c 2,6,-1
 151 455 l 1,7,-1
 60 455 l 1,8,-1
 116 710 l 1,9,-1
 789 710 l 1,10,-1
 733 455 l 1,11,-1
 642 455 l 1,12,-1
 660 580 l 2,13,14
 662 598 662 598 653 609 c 128,-1,15
 644 620 644 620 621 624 c 128,-1,16
 598 628 598 628 558 628 c 2,17,-1
 527 628 l 1,18,-1
 417 112 l 2,19,20
 412 90 412 90 429 82.5 c 128,-1,21
 446 75 446 75 473 75 c 2,22,-1
 490 75 l 1,23,-1
 473 0 l 1,24,-1
 126 0 l 1,25,-1
 143 75 l 1,26,-1
 160 75 l 2,27,28
 187 75 187 75 207 82.5 c 128,-1,29
 227 90 227 90 232 111 c 2,0,-1
EndSplineSet
EndChar

StartChar: U
Encoding: 85 85 51
Width: 768
GlyphClass: 2
Flags: W
AnchorPoint: "Anchor-2" 438 0 basechar 0
AnchorPoint: "Anchor-1" 384 0 basechar 0
AnchorPoint: "Anchor-0" 384 741 basechar 0
LayerCount: 2
Fore
SplineSet
282 316 m 2,0,1
 275 287 275 287 271 265 c 128,-1,2
 267 243 267 243 265.5 226.5 c 128,-1,3
 264 210 264 210 264 195 c 0,4,5
 264 166 264 166 272.5 144.5 c 128,-1,6
 281 123 281 123 297.5 108 c 128,-1,7
 314 93 314 93 338 85.5 c 128,-1,8
 362 78 362 78 394 78 c 0,9,10
 441 78 441 78 475 98 c 128,-1,11
 509 118 509 118 532 161 c 128,-1,12
 555 204 555 204 570 273 c 2,13,-1
 642 615 l 2,14,15
 644 622 644 622 634.5 626 c 128,-1,16
 625 630 625 630 610.5 632.5 c 128,-1,17
 596 635 596 635 582 635 c 2,18,-1
 571 635 l 1,19,-1
 588 710 l 1,20,-1
 820 710 l 1,21,-1
 804 635 l 1,22,-1
 793 635 l 2,23,24
 766 635 766 635 747 627 c 128,-1,25
 728 619 728 619 723 595 c 2,26,-1
 651 256 l 2,27,28
 631 160 631 160 590.5 99.5 c 128,-1,29
 550 39 550 39 490.5 11 c 128,-1,30
 431 -17 431 -17 353 -17 c 0,31,32
 291 -17 291 -17 240.5 -3.5 c 128,-1,33
 190 10 190 10 154.5 38 c 128,-1,34
 119 66 119 66 100.5 107 c 128,-1,35
 82 148 82 148 82 203 c 0,36,37
 82 221 82 221 83.5 240.5 c 128,-1,38
 85 260 85 260 89.5 284.5 c 128,-1,39
 94 309 94 309 100 340 c 2,40,-1
 155 600 l 2,41,42
 159 621 159 621 143 628 c 128,-1,43
 127 635 127 635 101 635 c 2,44,-1
 90 635 l 1,45,-1
 107 710 l 1,46,-1
 438 710 l 1,47,-1
 421 635 l 1,48,-1
 411 635 l 2,49,50
 398 635 398 635 383 634 c 128,-1,51
 368 633 368 633 358 631 c 128,-1,52
 348 629 348 629 347 625 c 2,53,-1
 282 316 l 2,0,1
EndSplineSet
EndChar

StartChar: V
Encoding: 86 86 57
Width: 720
GlyphClass: 1
Flags: W
LayerCount: 2
Fore
SplineSet
367 57 m 1,0,-1
 336 64 l 1,1,-1
 623 614 l 2,2,3
 625 621 625 621 617.5 625 c 128,-1,4
 610 629 610 629 595.5 632 c 128,-1,5
 581 635 581 635 562 635 c 2,6,-1
 551 635 l 1,7,-1
 568 710 l 1,8,-1
 792 710 l 1,9,-1
 776 635 l 1,10,-1
 770 635 l 2,11,12
 747 635 747 635 729.5 624.5 c 128,-1,13
 712 614 712 614 695 581 c 2,14,-1
 388 -2 l 1,15,-1
 191 -2 l 1,16,-1
 136 587 l 2,17,18
 133 617 133 617 119.5 626 c 128,-1,19
 106 635 106 635 81 635 c 2,20,-1
 76 635 l 1,21,-1
 93 710 l 1,22,-1
 417 710 l 1,23,-1
 401 635 l 1,24,-1
 388 635 l 2,25,26
 369 635 369 635 354 633.5 c 128,-1,27
 339 632 339 632 330 630 c 128,-1,28
 321 628 321 628 321 624 c 2,29,-1
 367 57 l 1,0,-1
EndSplineSet
EndChar

StartChar: W
Encoding: 87 87 58
Width: 1052
GlyphClass: 2
Flags: W
AnchorPoint: "Anchor-0" 537 741 basechar 0
LayerCount: 2
Fore
SplineSet
94 710 m 1,0,-1
 409 710 l 1,1,-1
 392 635 l 1,2,-1
 378 635 l 2,3,4
 364 635 364 635 351 633.5 c 128,-1,5
 338 632 338 632 329 630 c 128,-1,6
 320 628 320 628 319 624 c 2,7,-1
 317 115 l 1,8,-1
 304 120 l 1,9,-1
 572 710 l 1,10,-1
 749 710 l 1,11,-1
 756 119 l 1,12,-1
 737 113 l 1,13,-1
 957 615 l 2,14,15
 959 621 959 621 952 625.5 c 128,-1,16
 945 630 945 630 933 632.5 c 128,-1,17
 921 635 921 635 907 635 c 2,18,-1
 893 635 l 1,19,-1
 910 710 l 1,20,-1
 1121 710 l 1,21,-1
 1104 635 l 1,22,-1
 1097 635 l 2,23,24
 1074 635 1074 635 1058.5 625 c 128,-1,25
 1043 615 1043 615 1032 591 c 2,26,-1
 771 0 l 1,27,-1
 587 0 l 1,28,-1
 582 589 l 1,29,-1
 599 587 l 1,30,-1
 331 0 l 1,31,-1
 140 0 l 1,32,-1
 132 605 l 2,33,34
 132 625 132 625 119 630 c 128,-1,35
 106 635 106 635 84 635 c 2,36,-1
 77 635 l 1,37,-1
 94 710 l 1,0,-1
EndSplineSet
EndChar

StartChar: X
Encoding: 88 88 59
Width: 746
GlyphClass: 1
Flags: W
LayerCount: 2
Fore
SplineSet
90 635 m 1,0,-1
 106 710 l 1,1,-1
 433 710 l 1,2,-1
 417 635 l 1,3,-1
 402 635 l 2,4,5
 389 635 389 635 375 634 c 128,-1,6
 361 633 361 633 351.5 631 c 128,-1,7
 342 629 342 629 341 625 c 2,8,-1
 448 401 l 1,9,-1
 457 396 l 1,10,-1
 603 109 l 2,11,12
 611 95 611 95 618 87.5 c 128,-1,13
 625 80 625 80 635 77.5 c 128,-1,14
 645 75 645 75 659 75 c 2,15,-1
 672 75 l 1,16,-1
 655 0 l 1,17,-1
 321 0 l 1,18,-1
 337 75 l 1,19,-1
 353 75 l 2,20,21
 365 75 365 75 379 76 c 128,-1,22
 393 77 393 77 403 79.5 c 128,-1,23
 413 82 413 82 413 85 c 2,24,-1
 291 331 l 1,25,-1
 282 336 l 1,26,-1
 152 602 l 2,27,28
 145 616 145 616 138 623 c 128,-1,29
 131 630 131 630 121 632.5 c 128,-1,30
 111 635 111 635 96 635 c 2,31,-1
 90 635 l 1,0,-1
-51 0 m 1,32,-1
 -35 75 l 1,33,-1
 -23 75 l 2,34,35
 -9 75 -9 75 2.5 79.5 c 128,-1,36
 14 84 14 84 26.5 94 c 128,-1,37
 39 104 39 104 55 121 c 2,38,-1
 300 392 l 1,39,-1
 353 348 l 1,40,-1
 122 93 l 2,41,42
 121 88 121 88 129.5 84 c 128,-1,43
 138 80 138 80 151.5 77.5 c 128,-1,44
 165 75 165 75 178 75 c 2,45,-1
 194 75 l 1,46,-1
 178 0 l 1,47,-1
 -51 0 l 1,32,-1
456 346 m 1,48,-1
 413 401 l 1,49,-1
 603 617 l 2,50,51
 604 623 604 623 595.5 627 c 128,-1,52
 587 631 587 631 574 633 c 128,-1,53
 561 635 561 635 547 635 c 2,54,-1
 534 635 l 1,55,-1
 550 710 l 1,56,-1
 774 710 l 1,57,-1
 758 635 l 1,58,-1
 752 635 l 2,59,60
 737 635 737 635 724.5 630.5 c 128,-1,61
 712 626 712 626 699 616.5 c 128,-1,62
 686 607 686 607 671 590 c 2,63,-1
 456 346 l 1,48,-1
EndSplineSet
EndChar

StartChar: Y
Encoding: 89 89 60
Width: 699
GlyphClass: 2
Flags: W
AnchorPoint: "Anchor-1" 349 0 basechar 0
AnchorPoint: "Anchor-0" 406 741 basechar 0
LayerCount: 2
Fore
SplineSet
107 0 m 1,0,-1
 124 75 l 1,1,-1
 141 75 l 2,2,3
 168 75 168 75 187.5 82 c 128,-1,4
 207 89 207 89 212 111 c 2,5,-1
 253 308 l 1,6,-1
 256 263 l 1,7,-1
 138 596 l 2,8,9
 132 611 132 611 125 620 c 128,-1,10
 118 629 118 629 107.5 632 c 128,-1,11
 97 635 97 635 82 635 c 2,12,-1
 76 635 l 1,13,-1
 93 710 l 1,14,-1
 411 710 l 1,15,-1
 394 635 l 1,16,-1
 380 635 l 2,17,18
 363 635 363 635 349 633.5 c 128,-1,19
 335 632 335 632 327 630 c 128,-1,20
 319 628 319 628 318 624 c 2,21,-1
 419 324 l 1,22,-1
 367 314 l 1,23,-1
 593 614 l 2,24,25
 595 621 595 621 587.5 625.5 c 128,-1,26
 580 630 580 630 566.5 632.5 c 128,-1,27
 553 635 553 635 535 635 c 2,28,-1
 524 635 l 1,29,-1
 541 710 l 1,30,-1
 766 710 l 1,31,-1
 749 635 l 1,32,-1
 742 635 l 2,33,34
 728 635 728 635 716 630.5 c 128,-1,35
 704 626 704 626 691.5 615.5 c 128,-1,36
 679 605 679 605 664 585 c 2,37,-1
 415 259 l 1,38,-1
 439 308 l 1,39,-1
 398 111 l 2,40,41
 395 97 395 97 401.5 89 c 128,-1,42
 408 81 408 81 422 78 c 128,-1,43
 436 75 436 75 453 75 c 2,44,-1
 471 75 l 1,45,-1
 454 0 l 1,46,-1
 107 0 l 1,0,-1
EndSplineSet
EndChar

StartChar: Z
Encoding: 90 90 63
Width: 656
GlyphClass: 2
Flags: W
AnchorPoint: "Anchor-1" 340 0 basechar 0
AnchorPoint: "Anchor-0" 340 741 basechar 0
LayerCount: 2
Fore
SplineSet
99 81 m 1,0,-1
 348 81 l 2,1,2
 378 81 378 81 399.5 82.5 c 128,-1,3
 421 84 421 84 436 89 c 128,-1,4
 451 94 451 94 460 102.5 c 128,-1,5
 469 111 469 111 473 124 c 2,6,-1
 514 245 l 1,7,-1
 604 245 l 1,8,-1
 552 0 l 1,9,-1
 -37 0 l 1,10,-1
 -12 114 l 1,11,-1
 512 672 l 1,12,-1
 532 629 l 1,13,-1
 316 629 l 2,14,15
 291 629 291 629 272 627.5 c 128,-1,16
 253 626 253 626 239 621 c 128,-1,17
 225 616 225 616 216 608 c 128,-1,18
 207 600 207 600 202 586 c 2,19,-1
 171 490 l 1,20,-1
 83 490 l 1,21,-1
 130 710 l 1,22,-1
 683 710 l 1,23,-1
 658 600 l 1,24,-1
 120 25 l 1,25,-1
 99 81 l 1,0,-1
EndSplineSet
EndChar

StartChar: Zcaron
Encoding: 142 381 64
Width: 656
GlyphClass: 1
Flags: W
LayerCount: 2
Fore
SplineSet
337 770 m 1,0,-1
 468 770 l 1,1,-1
 628 921 l 1,2,-1
 635 950 l 1,3,-1
 557 950 l 1,4,-1
 378 850 l 1,5,-1
 459 848 l 1,6,-1
 323 950 l 1,7,-1
 249 950 l 1,8,-1
 242 921 l 1,9,-1
 337 770 l 1,0,-1
99 81 m 1,10,-1
 348 81 l 2,11,12
 378 81 378 81 399.5 82.5 c 128,-1,13
 421 84 421 84 436 89 c 128,-1,14
 451 94 451 94 460 102.5 c 128,-1,15
 469 111 469 111 473 124 c 2,16,-1
 514 245 l 1,17,-1
 604 245 l 1,18,-1
 552 0 l 1,19,-1
 -37 0 l 1,20,-1
 -12 114 l 1,21,-1
 512 672 l 1,22,-1
 532 629 l 1,23,-1
 316 629 l 2,24,25
 291 629 291 629 272 627.5 c 128,-1,26
 253 626 253 626 239 621 c 128,-1,27
 225 616 225 616 216 608 c 128,-1,28
 207 600 207 600 202 586 c 2,29,-1
 171 490 l 1,30,-1
 83 490 l 1,31,-1
 130 710 l 1,32,-1
 683 710 l 1,33,-1
 658 600 l 1,34,-1
 120 25 l 1,35,-1
 99 81 l 1,10,-1
EndSplineSet
EndChar

StartChar: AE
Encoding: 198 198 65
Width: 1067
GlyphClass: 2
Flags: W
AnchorPoint: "Anchor-0" 742 711 basechar 0
LayerCount: 2
Fore
SplineSet
-31 75 m 1,0,-1
 -25 75 l 2,1,2
 -2 75 -2 75 16.5 87.5 c 128,-1,3
 35 100 35 100 58 129 c 2,4,-1
 427 599 l 1,5,6
 431 614 431 614 423 621.5 c 128,-1,7
 415 629 415 629 401 632 c 128,-1,8
 387 635 387 635 369 635 c 2,9,-1
 359 635 l 1,10,-1
 376 710 l 1,11,-1
 1071 710 l 1,12,-1
 1032 509 l 1,13,-1
 944 509 l 1,14,-1
 949 586 l 2,15,16
 951 604 951 604 940.5 613.5 c 128,-1,17
 930 623 930 623 908.5 626.5 c 128,-1,18
 887 630 887 630 854 630 c 2,19,-1
 750 630 l 1,20,-1
 632 80 l 1,21,-1
 748 80 l 2,22,23
 788 80 788 80 813 83.5 c 128,-1,24
 838 87 838 87 852.5 96.5 c 128,-1,25
 867 106 867 106 873 124 c 2,26,-1
 909 226 l 1,27,-1
 998 226 l 1,28,-1
 951 0 l 1,29,-1
 357 0 l 1,30,-1
 374 75 l 1,31,-1
 385 75 l 2,32,33
 411 75 411 75 430 82 c 128,-1,34
 449 89 449 89 454 112 c 2,35,-1
 564 628 l 1,36,-1
 548 628 l 1,37,-1
 134 96 l 2,38,39
 132 90 132 90 139 85 c 128,-1,40
 146 80 146 80 160.5 77.5 c 128,-1,41
 175 75 175 75 195 75 c 2,42,-1
 206 75 l 1,43,-1
 189 0 l 1,44,-1
 -48 0 l 1,45,-1
 -31 75 l 1,0,-1
243 298 m 1,46,-1
 527 298 l 1,47,-1
 519 225 l 1,48,-1
 205 225 l 1,49,-1
 243 298 l 1,46,-1
680 400 m 1,50,51
 720 403 720 403 761 405.5 c 128,-1,52
 802 408 802 408 842.5 410.5 c 128,-1,53
 883 413 883 413 924 416 c 1,54,-1
 901 313 l 1,55,56
 862 316 862 316 822.5 318.5 c 128,-1,57
 783 321 783 321 743.5 324 c 128,-1,58
 704 327 704 327 664 329 c 1,59,-1
 680 400 l 1,50,51
EndSplineSet
EndChar

StartChar: Eth
Encoding: 208 208 66
Width: 812
GlyphClass: 1
Flags: W
LayerCount: 2
Fore
SplineSet
29 318 m 1,0,-1
 47 400 l 1,1,-1
 455 400 l 1,2,-1
 437 318 l 1,3,-1
 29 318 l 1,0,-1
120 710 m 1,4,-1
 420 710 l 2,5,6
 504 710 504 710 570.5 690.5 c 128,-1,7
 637 671 637 671 684 632.5 c 128,-1,8
 731 594 731 594 756.5 539 c 128,-1,9
 782 484 782 484 782 413 c 0,10,11
 782 345 782 345 764 283 c 128,-1,12
 746 221 746 221 710.5 169.5 c 128,-1,13
 675 118 675 118 622.5 80 c 128,-1,14
 570 42 570 42 500 21 c 128,-1,15
 430 0 430 0 344 0 c 2,16,-1
 -32 0 l 1,17,-1
 -15 75 l 1,18,-1
 -3 75 l 2,19,20
 23 75 23 75 41.5 82 c 128,-1,21
 60 89 60 89 65 111 c 2,22,-1
 168 599 l 2,23,24
 173 620 173 620 157 627.5 c 128,-1,25
 141 635 141 635 115 635 c 2,26,-1
 103 635 l 1,27,-1
 120 710 l 1,4,-1
414 629 m 2,28,-1
 361 629 l 1,29,-1
 244 81 l 1,30,-1
 333 81 l 2,31,32
 379 81 379 81 416 95 c 128,-1,33
 453 109 453 109 481.5 135 c 128,-1,34
 510 161 510 161 530.5 195 c 128,-1,35
 551 229 551 229 564 269.5 c 128,-1,36
 577 310 577 310 583.5 353.5 c 128,-1,37
 590 397 590 397 590 440 c 0,38,39
 590 502 590 502 571.5 544.5 c 128,-1,40
 553 587 553 587 514 608 c 128,-1,41
 475 629 475 629 414 629 c 2,28,-1
EndSplineSet
EndChar

StartChar: Oslash
Encoding: 216 216 67
Width: 811
GlyphClass: 2
Flags: W
AnchorPoint: "Anchor-0" 398 731 basechar 0
LayerCount: 2
Fore
SplineSet
368 -17 m 0,0,1
 292 -17 292 -17 232 5.5 c 128,-1,2
 172 28 172 28 129.5 69 c 128,-1,3
 87 110 87 110 64 166.5 c 128,-1,4
 41 223 41 223 41 289 c 0,5,6
 41 353 41 353 57.5 416.5 c 128,-1,7
 74 480 74 480 106.5 536 c 128,-1,8
 139 592 139 592 188 635 c 128,-1,9
 237 678 237 678 303.5 703 c 128,-1,10
 370 728 370 728 454 728 c 0,11,12
 529 728 529 728 589.5 705 c 128,-1,13
 650 682 650 682 692.5 641 c 128,-1,14
 735 600 735 600 757.5 544 c 128,-1,15
 780 488 780 488 780 421 c 0,16,17
 780 357 780 357 764 293.5 c 128,-1,18
 748 230 748 230 715.5 174 c 128,-1,19
 683 118 683 118 634 75 c 128,-1,20
 585 32 585 32 518.5 7.5 c 128,-1,21
 452 -17 452 -17 368 -17 c 0,0,1
367 68 m 0,22,23
 407 68 407 68 438.5 84 c 128,-1,24
 470 100 470 100 495 130 c 128,-1,25
 520 160 520 160 539 203 c 128,-1,26
 558 246 558 246 573 302 c 0,27,28
 582 333 582 333 586.5 362.5 c 128,-1,29
 591 392 591 392 593.5 419.5 c 128,-1,30
 596 447 596 447 596 472 c 0,31,32
 596 516 596 516 588 548 c 128,-1,33
 580 580 580 580 562.5 600.5 c 128,-1,34
 545 621 545 621 518 631.5 c 128,-1,35
 491 642 491 642 453 642 c 0,36,37
 414 642 414 642 382 626 c 128,-1,38
 350 610 350 610 325 580 c 128,-1,39
 300 550 300 550 281 507 c 128,-1,40
 262 464 262 464 247 408 c 0,41,42
 239 378 239 378 234 348.5 c 128,-1,43
 229 319 229 319 226.5 291 c 128,-1,44
 224 263 224 263 224 238 c 0,45,46
 224 195 224 195 232 163 c 128,-1,47
 240 131 240 131 257.5 110 c 128,-1,48
 275 89 275 89 302 78.5 c 128,-1,49
 329 68 329 68 367 68 c 0,22,23
-74 -20 m 1,50,-1
 770 730 l 1,51,-1
 881 730 l 1,52,-1
 36 -20 l 1,53,-1
 -74 -20 l 1,50,-1
EndSplineSet
EndChar

StartChar: Thorn
Encoding: 222 222 68
Width: 720
GlyphClass: 1
Flags: W
LayerCount: 2
Fore
SplineSet
359 625 m 2,0,-1
 245 85 l 2,1,2
 244 82 244 82 252.5 79.5 c 128,-1,3
 261 77 261 77 275 76 c 128,-1,4
 289 75 289 75 305 75 c 2,5,-1
 329 75 l 1,6,-1
 312 0 l 1,7,-1
 -32 0 l 1,8,-1
 -16 72 l 1,9,-1
 -5 72 l 2,10,11
 22 72 22 72 40.5 79 c 128,-1,12
 59 86 59 86 64 108 c 2,13,-1
 169 602 l 2,14,15
 173 624 173 624 157.5 631 c 128,-1,16
 142 638 142 638 115 638 c 2,17,-1
 104 638 l 1,18,-1
 120 710 l 1,19,-1
 453 710 l 1,20,-1
 436 635 l 1,21,-1
 419 635 l 2,22,23
 407 635 407 635 393 634 c 128,-1,24
 379 633 379 633 369.5 631 c 128,-1,25
 360 629 360 629 359 625 c 2,0,-1
199 159 m 1,26,-1
 216 238 l 1,27,-1
 374 238 l 2,28,29
 410 238 410 238 435.5 250 c 128,-1,30
 461 262 461 262 478 283 c 128,-1,31
 495 304 495 304 503 330.5 c 128,-1,32
 511 357 511 357 511 387 c 256,33,34
 511 417 511 417 499 438 c 128,-1,35
 487 459 487 459 464 470 c 128,-1,36
 441 481 441 481 404 481 c 2,37,-1
 270 481 l 1,38,-1
 280 562 l 1,39,-1
 440 562 l 2,40,41
 526 562 526 562 583 539 c 128,-1,42
 640 516 640 516 668 476 c 128,-1,43
 696 436 696 436 696 382 c 0,44,45
 696 311 696 311 659 261 c 128,-1,46
 622 211 622 211 555.5 185 c 128,-1,47
 489 159 489 159 398 159 c 2,48,-1
 199 159 l 1,26,-1
EndSplineSet
EndChar

StartChar: OE
Encoding: 140 338 69
Width: 1074
GlyphClass: 1
Flags: W
LayerCount: 2
Fore
SplineSet
691 400 m 1,0,1
 732 403 732 403 772.5 405.5 c 128,-1,2
 813 408 813 408 854 410.5 c 128,-1,3
 895 413 895 413 935 416 c 1,4,-1
 913 313 l 1,5,6
 874 316 874 316 834.5 318.5 c 128,-1,7
 795 321 795 321 755.5 324 c 128,-1,8
 716 327 716 327 676 329 c 1,9,-1
 691 400 l 1,0,1
489 710 m 2,10,-1
 1078 710 l 1,11,-1
 1039 509 l 1,12,-1
 951 509 l 1,13,-1
 957 586 l 2,14,15
 958 604 958 604 947.5 613.5 c 128,-1,16
 937 623 937 623 915.5 626.5 c 128,-1,17
 894 630 894 630 861 630 c 2,18,-1
 763 630 l 1,19,-1
 645 80 l 1,20,-1
 760 80 l 2,21,22
 800 80 800 80 825 83.5 c 128,-1,23
 850 87 850 87 864 96.5 c 128,-1,24
 878 106 878 106 885 124 c 2,25,-1
 920 226 l 1,26,-1
 1010 226 l 1,27,-1
 963 0 l 1,28,-1
 399 0 l 2,29,30
 315 0 315 0 248.5 20 c 128,-1,31
 182 40 182 40 135.5 79 c 128,-1,32
 89 118 89 118 65 174.5 c 128,-1,33
 41 231 41 231 41 303 c 0,34,35
 41 371 41 371 59 431.5 c 128,-1,36
 77 492 77 492 113 543 c 128,-1,37
 149 594 149 594 202.5 631.5 c 128,-1,38
 256 669 256 669 327.5 689.5 c 128,-1,39
 399 710 399 710 489 710 c 2,10,-1
408 80 m 2,40,-1
 460 80 l 1,41,-1
 577 630 l 1,42,-1
 498 630 l 2,43,44
 450 630 450 630 412 615.5 c 128,-1,45
 374 601 374 601 344 576 c 128,-1,46
 314 551 314 551 293 517.5 c 128,-1,47
 272 484 272 484 258.5 444.5 c 128,-1,48
 245 405 245 405 238.5 362.5 c 128,-1,49
 232 320 232 320 232 278 c 0,50,51
 232 213 232 213 250 169 c 128,-1,52
 268 125 268 125 307 102.5 c 128,-1,53
 346 80 346 80 408 80 c 2,40,-1
EndSplineSet
EndChar

StartChar: Ereversedcyr
Encoding: 492 1069 70
Width: 736
GlyphClass: 2
Flags: W
AnchorPoint: "Anchor-1" 353 0 basechar 0
AnchorPoint: "Anchor-0" 353 741 basechar 0
LayerCount: 2
Fore
SplineSet
592 400 m 1,0,-1
 579 329 l 1,1,2
 539 327 539 327 498 325 c 128,-1,3
 457 323 457 323 415.5 321 c 128,-1,4
 374 319 374 319 332.5 317 c 128,-1,5
 291 315 291 315 249 313 c 1,6,-1
 273 416 l 1,7,8
 313 414 313 414 353 411.5 c 128,-1,9
 393 409 393 409 433 407 c 128,-1,10
 473 405 473 405 512.5 403.5 c 128,-1,11
 552 402 552 402 592 400 c 1,0,-1
322 -17 m 0,12,13
 269 -17 269 -17 227.5 -5 c 128,-1,14
 186 7 186 7 157 31 c 128,-1,15
 128 55 128 55 109.5 90 c 128,-1,16
 91 125 91 125 82 171 c 1,17,-1
 126 157 l 1,18,-1
 73 -5 l 1,19,-1
 -9 -5 l 1,20,-1
 44 237 l 1,21,-1
 141 237 l 1,22,23
 145 187 145 187 162.5 148.5 c 128,-1,24
 180 110 180 110 213 89 c 128,-1,25
 246 68 246 68 294 68 c 0,26,27
 338 68 338 68 372.5 88 c 128,-1,28
 407 108 407 108 433 144.5 c 128,-1,29
 459 181 459 181 476 230.5 c 128,-1,30
 493 280 493 280 501.5 339.5 c 128,-1,31
 510 399 510 399 510 464 c 0,32,33
 510 508 510 508 501.5 541.5 c 128,-1,34
 493 575 493 575 476 597.5 c 128,-1,35
 459 620 459 620 434 631.5 c 128,-1,36
 409 643 409 643 377 643 c 0,37,38
 333 643 333 643 298 621.5 c 128,-1,39
 263 600 263 600 236 563 c 128,-1,40
 209 526 209 526 189 478 c 1,41,-1
 96 478 l 1,42,-1
 147 715 l 1,43,-1
 231 715 l 1,44,-1
 213 576 l 1,45,-1
 173 545 l 1,46,47
 194 598 194 598 228 639 c 128,-1,48
 262 680 262 680 311 704 c 128,-1,49
 360 728 360 728 426 728 c 0,50,51
 488 728 488 728 539 706.5 c 128,-1,52
 590 685 590 685 627 645 c 128,-1,53
 664 605 664 605 684 548.5 c 128,-1,54
 704 492 704 492 704 422 c 0,55,56
 704 345 704 345 687 278 c 128,-1,57
 670 211 670 211 637 156.5 c 128,-1,58
 604 102 604 102 557.5 63 c 128,-1,59
 511 24 511 24 451.5 3.5 c 128,-1,60
 392 -17 392 -17 322 -17 c 0,12,13
EndSplineSet
EndChar

StartChar: a
Encoding: 97 97 71
Width: 679
GlyphClass: 2
Flags: W
AnchorPoint: "Anchor-2" 509 -10 basechar 0
AnchorPoint: "Anchor-1" 346 0 basechar 0
AnchorPoint: "Anchor-0" 312 553 basechar 0
LayerCount: 2
Fore
SplineSet
509 340 m 1,0,-1
 460 335 l 1,1,2
 454 374 454 374 442.5 402.5 c 128,-1,3
 431 431 431 431 412.5 447 c 128,-1,4
 394 463 394 463 364 463 c 0,5,6
 335 463 335 463 311.5 444.5 c 128,-1,7
 288 426 288 426 269.5 395.5 c 128,-1,8
 251 365 251 365 238.5 327.5 c 128,-1,9
 226 290 226 290 219.5 252.5 c 128,-1,10
 213 215 213 215 213 182 c 256,11,12
 213 149 213 149 219.5 127 c 128,-1,13
 226 105 226 105 240 94 c 128,-1,14
 254 83 254 83 275 83 c 0,15,16
 301 83 301 83 324 100 c 128,-1,17
 347 117 347 117 372 150 c 128,-1,18
 397 183 397 183 428 233 c 1,19,-1
 446 198 l 1,20,21
 410 131 410 131 375.5 84.5 c 128,-1,22
 341 38 341 38 301.5 12.5 c 128,-1,23
 262 -13 262 -13 210 -13 c 0,24,25
 154 -13 154 -13 114.5 11.5 c 128,-1,26
 75 36 75 36 54.5 81 c 128,-1,27
 34 126 34 126 34 189 c 0,28,29
 34 242 34 242 47.5 294 c 128,-1,30
 61 346 61 346 86 392 c 128,-1,31
 111 438 111 438 147.5 474 c 128,-1,32
 184 510 184 510 230 530 c 128,-1,33
 276 550 276 550 332 550 c 0,34,35
 392 550 392 550 430 523.5 c 128,-1,36
 468 497 468 497 487 450 c 128,-1,37
 506 403 506 403 509 340 c 1,0,-1
649 544 m 1,38,-1
 581 222 l 2,39,40
 573 188 573 188 568 165.5 c 128,-1,41
 563 143 563 143 560 129 c 128,-1,42
 557 115 557 115 557 108 c 0,43,44
 557 96 557 96 564 91 c 128,-1,45
 571 86 571 86 583 86 c 0,46,47
 600 86 600 86 615 88.5 c 128,-1,48
 630 91 630 91 641 91 c 1,49,-1
 625 10 l 1,50,51
 609 7 609 7 589 3.5 c 128,-1,52
 569 0 569 0 547.5 -2.5 c 128,-1,53
 526 -5 526 -5 502 -5 c 0,54,55
 469 -5 469 -5 444 6 c 128,-1,56
 419 17 419 17 406 38 c 128,-1,57
 393 59 393 59 393 91 c 0,58,59
 393 99 393 99 394 112.5 c 128,-1,60
 395 126 395 126 397 146 c 1,61,-1
 387 136 l 1,62,-1
 446 420 l 1,63,-1
 456 430 l 1,64,-1
 535 544 l 1,65,-1
 649 544 l 1,38,-1
EndSplineSet
EndChar

StartChar: b
Encoding: 98 98 78
Width: 672
GlyphClass: 1
Flags: W
LayerCount: 2
Fore
SplineSet
302 75 m 0,0,1
 334 75 334 75 359 93 c 128,-1,2
 384 111 384 111 403 141.5 c 128,-1,3
 422 172 422 172 434 209 c 128,-1,4
 446 246 446 246 452.5 284.5 c 128,-1,5
 459 323 459 323 459 356 c 256,6,7
 459 389 459 389 452 410.5 c 128,-1,8
 445 432 445 432 430 442.5 c 128,-1,9
 415 453 415 453 391 453 c 0,10,11
 362 453 362 453 337 437 c 128,-1,12
 312 421 312 421 285.5 389 c 128,-1,13
 259 357 259 357 225 308 c 1,14,-1
 216 339 l 1,15,16
 253 405 253 405 289.5 452 c 128,-1,17
 326 499 326 499 368.5 524.5 c 128,-1,18
 411 550 411 550 463 550 c 0,19,20
 518 550 518 550 557 525.5 c 128,-1,21
 596 501 596 501 617 455.5 c 128,-1,22
 638 410 638 410 638 345 c 0,23,24
 638 292 638 292 624.5 240.5 c 128,-1,25
 611 189 611 189 584.5 143.5 c 128,-1,26
 558 98 558 98 518.5 62.5 c 128,-1,27
 479 27 479 27 426.5 7 c 128,-1,28
 374 -13 374 -13 309 -13 c 0,29,30
 243 -13 243 -13 190 2 c 128,-1,31
 137 17 137 17 98 41 c 128,-1,32
 59 65 59 65 33 91 c 1,33,-1
 150 651 l 2,34,35
 152 659 152 659 146 665 c 128,-1,36
 140 671 140 671 128 675.5 c 128,-1,37
 116 680 116 680 99 683 c 2,38,-1
 90 685 l 1,39,-1
 105 758 l 1,40,-1
 348 758 l 1,41,-1
 204 71 l 1,42,43
 194 81 194 81 188 92 c 128,-1,44
 182 103 182 103 180 115 c 128,-1,45
 178 127 178 127 180.5 139 c 128,-1,46
 183 151 183 151 190 163 c 1,47,48
 197 139 197 139 211 118.5 c 128,-1,49
 225 98 225 98 247 86.5 c 128,-1,50
 269 75 269 75 302 75 c 0,0,1
EndSplineSet
EndChar

StartChar: c
Encoding: 99 99 79
Width: 585
GlyphClass: 2
Flags: W
AnchorPoint: "Anchor-1" 321 0 basechar 0
AnchorPoint: "Anchor-0" 310 551 basechar 0
LayerCount: 2
Fore
SplineSet
326 73 m 0,0,1
 364 73 364 73 391 88.5 c 128,-1,2
 418 104 418 104 438 128 c 128,-1,3
 458 152 458 152 473 178 c 1,4,-1
 538 135 l 1,5,6
 515 90 515 90 481.5 56.5 c 128,-1,7
 448 23 448 23 403.5 5 c 128,-1,8
 359 -13 359 -13 299 -13 c 0,9,10
 242 -13 242 -13 193.5 3 c 128,-1,11
 145 19 145 19 109.5 49.5 c 128,-1,12
 74 80 74 80 54 124 c 128,-1,13
 34 168 34 168 34 225 c 0,14,15
 34 292 34 292 56.5 351 c 128,-1,16
 79 410 79 410 122.5 455 c 128,-1,17
 166 500 166 500 228 525 c 128,-1,18
 290 550 290 550 370 550 c 0,19,20
 427 550 427 550 469.5 540.5 c 128,-1,21
 512 531 512 531 540.5 518 c 128,-1,22
 569 505 569 505 583 494 c 1,23,-1
 549 339 l 1,24,-1
 411 339 l 1,25,-1
 445 487 l 1,26,27
 459 485 459 485 466.5 477 c 128,-1,28
 474 469 474 469 476.5 458 c 128,-1,29
 479 447 479 447 477.5 437 c 128,-1,30
 476 427 476 427 471 422 c 1,31,32
 463 435 463 435 450 445.5 c 128,-1,33
 437 456 437 456 418.5 461.5 c 128,-1,34
 400 467 400 467 375 467 c 0,35,36
 341 467 341 467 314.5 451 c 128,-1,37
 288 435 288 435 269 407 c 128,-1,38
 250 379 250 379 238 345 c 128,-1,39
 226 311 226 311 220 274.5 c 128,-1,40
 214 238 214 238 214 204 c 0,41,42
 214 163 214 163 226.5 133.5 c 128,-1,43
 239 104 239 104 264 88.5 c 128,-1,44
 289 73 289 73 326 73 c 0,0,1
EndSplineSet
EndChar

StartChar: d
Encoding: 100 100 82
Width: 694
GlyphClass: 2
Flags: W
AnchorPoint: "Anchor-2" 652 735 basechar 0
AnchorPoint: "Anchor-1" 319 0 basechar 0
LayerCount: 2
Fore
SplineSet
213 -13 m 0,0,1
 157 -13 157 -13 117 11.5 c 128,-1,2
 77 36 77 36 55.5 82 c 128,-1,3
 34 128 34 128 34 193 c 0,4,5
 34 245 34 245 47.5 296.5 c 128,-1,6
 61 348 61 348 87 394 c 128,-1,7
 113 440 113 440 150 475 c 128,-1,8
 187 510 187 510 233.5 530 c 128,-1,9
 280 550 280 550 336 550 c 0,10,11
 395 550 395 550 434.5 527 c 128,-1,12
 474 504 474 504 496 464.5 c 128,-1,13
 518 425 518 425 525 374 c 1,14,-1
 478 351 l 1,15,16
 470 385 470 385 456 410 c 128,-1,17
 442 435 442 435 420 449 c 128,-1,18
 398 463 398 463 366 463 c 0,19,20
 337 463 337 463 312.5 445 c 128,-1,21
 288 427 288 427 269.5 396.5 c 128,-1,22
 251 366 251 366 238.5 329 c 128,-1,23
 226 292 226 292 219.5 253.5 c 128,-1,24
 213 215 213 215 213 181 c 0,25,26
 213 148 213 148 220 126.5 c 128,-1,27
 227 105 227 105 242.5 94.5 c 128,-1,28
 258 84 258 84 281 84 c 0,29,30
 303 84 303 84 321.5 93.5 c 128,-1,31
 340 103 340 103 360 121 c 128,-1,32
 380 139 380 139 401.5 166.5 c 128,-1,33
 423 194 423 194 448 231 c 1,34,-1
 461 200 l 1,35,36
 423 134 423 134 386.5 86.5 c 128,-1,37
 350 39 350 39 308.5 13 c 128,-1,38
 267 -13 267 -13 213 -13 c 0,0,1
517 -5 m 0,39,40
 466 -5 466 -5 437 19 c 128,-1,41
 408 43 408 43 408 91 c 0,42,43
 408 96 408 96 408.5 103.5 c 128,-1,44
 409 111 409 111 409.5 121.5 c 128,-1,45
 410 132 410 132 411 145 c 1,46,-1
 402 137 l 1,47,-1
 511 651 l 2,48,49
 514 661 514 661 508.5 666.5 c 128,-1,50
 503 672 503 672 492 676 c 128,-1,51
 481 680 481 680 463 683 c 2,52,-1
 454 685 l 1,53,-1
 470 758 l 1,54,-1
 709 758 l 1,55,-1
 595 222 l 2,56,57
 588 188 588 188 582.5 165.5 c 128,-1,58
 577 143 577 143 574.5 129 c 128,-1,59
 572 115 572 115 572 108 c 0,60,61
 572 96 572 96 578.5 91 c 128,-1,62
 585 86 585 86 598 86 c 0,63,64
 614 86 614 86 629.5 88.5 c 128,-1,65
 645 91 645 91 656 91 c 1,66,-1
 639 10 l 1,67,68
 624 6 624 6 604.5 3 c 128,-1,69
 585 0 585 0 563 -2.5 c 128,-1,70
 541 -5 541 -5 517 -5 c 0,39,40
EndSplineSet
EndChar

StartChar: e
Encoding: 101 101 83
Width: 586
GlyphClass: 2
Flags: W
AnchorPoint: "Anchor-2" 462 1 basechar 0
AnchorPoint: "Anchor-1" 316 0 basechar 0
AnchorPoint: "Anchor-0" 299 551 basechar 0
LayerCount: 2
Fore
SplineSet
291 -13 m 0,0,1
 211 -13 211 -13 153.5 14.5 c 128,-1,2
 96 42 96 42 65 93.5 c 128,-1,3
 34 145 34 145 34 215 c 0,4,5
 34 281 34 281 57 341.5 c 128,-1,6
 80 402 80 402 123 449 c 128,-1,7
 166 496 166 496 227.5 523.5 c 128,-1,8
 289 551 289 551 365 551 c 0,9,10
 431 551 431 551 474.5 531.5 c 128,-1,11
 518 512 518 512 539.5 480 c 128,-1,12
 561 448 561 448 561 407 c 0,13,14
 561 357 561 357 534 320.5 c 128,-1,15
 507 284 507 284 454 260 c 128,-1,16
 401 236 401 236 324 223.5 c 128,-1,17
 247 211 247 211 147 208 c 1,18,-1
 151 272 l 1,19,20
 221 274 221 274 271 282.5 c 128,-1,21
 321 291 321 291 352 306.5 c 128,-1,22
 383 322 383 322 398 346.5 c 128,-1,23
 413 371 413 371 413 405 c 0,24,25
 413 425 413 425 406.5 439 c 128,-1,26
 400 453 400 453 386 460.5 c 128,-1,27
 372 468 372 468 350 468 c 0,28,29
 318 468 318 468 291.5 449 c 128,-1,30
 265 430 265 430 246.5 396 c 128,-1,31
 228 362 228 362 218 316.5 c 128,-1,32
 208 271 208 271 208 217 c 0,33,34
 208 167 208 167 221 135.5 c 128,-1,35
 234 104 234 104 259.5 89.5 c 128,-1,36
 285 75 285 75 323 75 c 0,37,38
 358 75 358 75 385 89 c 128,-1,39
 412 103 412 103 433 126 c 128,-1,40
 454 149 454 149 470 175 c 1,41,-1
 534 129 l 1,42,43
 511 87 511 87 476.5 54.5 c 128,-1,44
 442 22 442 22 396 4.5 c 128,-1,45
 350 -13 350 -13 291 -13 c 0,0,1
EndSplineSet
EndChar

StartChar: f
Encoding: 102 102 88
Width: 458
GlyphClass: 1
Flags: W
LayerCount: 2
Fore
SplineSet
57 540 m 1,0,-1
 481 540 l 1,1,-1
 465 463 l 1,2,-1
 41 463 l 1,3,-1
 57 540 l 1,0,-1
437 687 m 0,4,5
 408 687 408 687 389 678 c 128,-1,6
 370 669 370 669 359 648.5 c 128,-1,7
 348 628 348 628 341 593 c 2,8,-1
 170 -231 l 1,9,-1
 38 -231 l 1,10,-1
 159 573 l 2,11,12
 170 645 170 645 203.5 688 c 128,-1,13
 237 731 237 731 290.5 749.5 c 128,-1,14
 344 768 344 768 413 768 c 0,15,16
 446 768 446 768 472 765 c 128,-1,17
 498 762 498 762 517 757.5 c 128,-1,18
 536 753 536 753 546 748 c 1,19,-1
 529 669 l 1,20,21
 518 673 518 673 492.5 680 c 128,-1,22
 467 687 467 687 437 687 c 0,4,5
EndSplineSet
Substitution2: "'ss04' Style Set 4 in Latin lookup 61 subtable" f.alt
EndChar

StartChar: g
Encoding: 103 103 89
Width: 672
GlyphClass: 2
Flags: W
AnchorPoint: "Anchor-0" 316 545 basechar 0
LayerCount: 2
Fore
SplineSet
367 -17 m 2,0,-1
 461 425 l 1,1,-1
 468 427 l 1,2,-1
 554 547 l 1,3,-1
 663 547 l 1,4,-1
 545 -4 l 2,5,6
 528 -87 528 -87 488.5 -140.5 c 128,-1,7
 449 -194 449 -194 384 -219.5 c 128,-1,8
 319 -245 319 -245 224 -245 c 0,9,10
 160 -245 160 -245 110.5 -234 c 128,-1,11
 61 -223 61 -223 26.5 -205.5 c 128,-1,12
 -8 -188 -8 -188 -27 -170 c 1,13,-1
 -4 -59 l 1,14,-1
 130 -59 l 1,15,-1
 104 -188 l 1,16,17
 91 -185 91 -185 83 -175 c 128,-1,18
 75 -165 75 -165 71.5 -152 c 128,-1,19
 68 -139 68 -139 69 -127 c 128,-1,20
 70 -115 70 -115 75 -109 c 1,21,22
 87 -123 87 -123 105 -136.5 c 128,-1,23
 123 -150 123 -150 151.5 -158.5 c 128,-1,24
 180 -167 180 -167 221 -167 c 0,25,26
 264 -167 264 -167 292.5 -152 c 128,-1,27
 321 -137 321 -137 338.5 -104 c 128,-1,28
 356 -71 356 -71 367 -17 c 2,0,-1
526 368 m 1,29,-1
 476 344 l 1,30,31
 469 380 469 380 456 406.5 c 128,-1,32
 443 433 443 433 421.5 448 c 128,-1,33
 400 463 400 463 367 463 c 0,34,35
 337 463 337 463 313 445.5 c 128,-1,36
 289 428 289 428 270.5 399 c 128,-1,37
 252 370 252 370 239 334.5 c 128,-1,38
 226 299 226 299 219.5 262.5 c 128,-1,39
 213 226 213 226 213 194 c 256,40,41
 213 162 213 162 220 141 c 128,-1,42
 227 120 227 120 242.5 109.5 c 128,-1,43
 258 99 258 99 281 99 c 0,44,45
 309 99 309 99 333.5 115.5 c 128,-1,46
 358 132 358 132 385.5 165 c 128,-1,47
 413 198 413 198 446 247 c 1,48,-1
 463 212 l 1,49,50
 425 147 425 147 389 100 c 128,-1,51
 353 53 353 53 312 28 c 128,-1,52
 271 3 271 3 218 3 c 0,53,54
 159 3 159 3 118 27 c 128,-1,55
 77 51 77 51 56 95.5 c 128,-1,56
 35 140 35 140 35 203 c 0,57,58
 35 254 35 254 48.5 303.5 c 128,-1,59
 62 353 62 353 88.5 398 c 128,-1,60
 115 443 115 443 152 477 c 128,-1,61
 189 511 189 511 236 530.5 c 128,-1,62
 283 550 283 550 338 550 c 0,63,64
 385 550 385 550 418.5 536.5 c 128,-1,65
 452 523 452 523 474.5 498 c 128,-1,66
 497 473 497 473 509.5 440 c 128,-1,67
 522 407 522 407 526 368 c 1,29,-1
EndSplineSet
Substitution2: "'ss03' Style Set 3 in Latin lookup 60 subtable" g.alt
EndChar

StartChar: h
Encoding: 104 104 91
Width: 684
GlyphClass: 2
Flags: W
AnchorPoint: "Anchor-1" 341 0 basechar 0
AnchorPoint: "Anchor-0" 355 755 basechar 0
LayerCount: 2
Fore
SplineSet
24 0 m 1,0,-1
 200 0 l 1,1,-1
 362 758 l 1,2,-1
 119 758 l 1,3,-1
 103 685 l 1,4,-1
 113 683 l 2,5,6
 130 680 130 680 141.5 675.5 c 128,-1,7
 153 671 153 671 159 665 c 128,-1,8
 165 659 165 659 163 651 c 2,9,-1
 24 0 l 1,0,-1
585 222 m 2,10,-1
 613 345 l 2,11,12
 620 375 620 375 624 400.5 c 128,-1,13
 628 426 628 426 628 447 c 0,14,15
 628 479 628 479 614 502 c 128,-1,16
 600 525 600 525 573 538 c 128,-1,17
 546 551 546 551 505 551 c 0,18,19
 448 551 448 551 402 527 c 128,-1,20
 356 503 356 503 317 459.5 c 128,-1,21
 278 416 278 416 239 358 c 1,22,-1
 244 304 l 1,23,24
 275 349 275 349 303 381 c 128,-1,25
 331 413 331 413 358 430.5 c 128,-1,26
 385 448 385 448 410 448 c 0,27,28
 431 448 431 448 440 438 c 128,-1,29
 449 428 449 428 449 411 c 0,30,31
 449 399 449 399 446 384 c 128,-1,32
 443 369 443 369 438 347 c 2,33,-1
 411 232 l 2,34,35
 401 191 401 191 395 165 c 128,-1,36
 389 139 389 139 386.5 122 c 128,-1,37
 384 105 384 105 384 91 c 0,38,39
 384 59 384 59 398 37.5 c 128,-1,40
 412 16 412 16 438 5.5 c 128,-1,41
 464 -5 464 -5 498 -5 c 0,42,43
 522 -5 522 -5 545 -3 c 128,-1,44
 568 -1 568 -1 588.5 3 c 128,-1,45
 609 7 609 7 626 10 c 1,46,-1
 642 91 l 1,47,48
 636 91 636 91 627 89.5 c 128,-1,49
 618 88 618 88 607.5 87 c 128,-1,50
 597 86 597 86 586 86 c 0,51,52
 573 86 573 86 566.5 91 c 128,-1,53
 560 96 560 96 560 108 c 0,54,55
 560 115 560 115 563 129 c 128,-1,56
 566 143 566 143 571.5 165.5 c 128,-1,57
 577 188 577 188 585 222 c 2,10,-1
EndSplineSet
EndChar

StartChar: i
Encoding: 105 105 93
Width: 354
GlyphClass: 2
Flags: W
AnchorPoint: "Anchor-2" 236 -10 basechar 0
AnchorPoint: "Anchor-1" 184 -10 basechar 0
LayerCount: 2
Fore
SplineSet
48 91 m 0,0,1
 48 105 48 105 51 122 c 128,-1,2
 54 139 54 139 59.5 165 c 128,-1,3
 65 191 65 191 74 232 c 2,4,-1
 118 433 l 2,5,6
 120 442 120 442 114 448 c 128,-1,7
 108 454 108 454 96 458.5 c 128,-1,8
 84 463 84 463 67 466 c 2,9,-1
 57 468 l 1,10,-1
 73 540 l 1,11,-1
 315 540 l 1,12,-1
 247 222 l 2,13,14
 240 188 240 188 234.5 165.5 c 128,-1,15
 229 143 229 143 226.5 129 c 128,-1,16
 224 115 224 115 224 108 c 0,17,18
 224 96 224 96 230.5 91 c 128,-1,19
 237 86 237 86 251 86 c 0,20,21
 262 86 262 86 272 87 c 128,-1,22
 282 88 282 88 291.5 89.5 c 128,-1,23
 301 91 301 91 308 91 c 1,24,-1
 291 10 l 1,25,26
 274 6 274 6 254 3 c 128,-1,27
 234 0 234 0 211 -2.5 c 128,-1,28
 188 -5 188 -5 164 -5 c 0,29,30
 129 -5 129 -5 103 6 c 128,-1,31
 77 17 77 17 62.5 38.5 c 128,-1,32
 48 60 48 60 48 91 c 0,0,1
138 695 m 0,33,34
 138 737 138 737 165.5 759.5 c 128,-1,35
 193 782 193 782 241 782 c 0,36,37
 287 782 287 782 313.5 760.5 c 128,-1,38
 340 739 340 739 340 699 c 0,39,40
 340 657 340 657 312.5 634 c 128,-1,41
 285 611 285 611 237 611 c 0,42,43
 191 611 191 611 164.5 632.5 c 128,-1,44
 138 654 138 654 138 695 c 0,33,34
EndSplineSet
Substitution2: "Single Substitution lookup 1 subtable" idotaccent
EndChar

StartChar: icircumflex
Encoding: 238 238 96
Width: 354
GlyphClass: 1
Flags: W
LayerCount: 2
Fore
SplineSet
320 798 m 1,0,-1
 195 798 l 1,1,-1
 36 629 l 1,2,-1
 29 599 l 1,3,-1
 98 599 l 1,4,-1
 279 713 l 1,5,-1
 204 718 l 1,6,-1
 334 599 l 1,7,-1
 399 599 l 1,8,-1
 406 629 l 1,9,-1
 320 798 l 1,0,-1
164 -5 m 0,10,11
 129 -5 129 -5 103 6 c 128,-1,12
 77 17 77 17 62.5 38.5 c 128,-1,13
 48 60 48 60 48 91 c 0,14,15
 48 105 48 105 51 122 c 128,-1,16
 54 139 54 139 59.5 165 c 128,-1,17
 65 191 65 191 74 232 c 2,18,-1
 118 433 l 2,19,20
 120 442 120 442 114 448 c 128,-1,21
 108 454 108 454 96 458.5 c 128,-1,22
 84 463 84 463 67 466 c 2,23,-1
 57 468 l 1,24,-1
 73 540 l 1,25,-1
 315 540 l 1,26,-1
 247 222 l 2,27,28
 240 188 240 188 234.5 165.5 c 128,-1,29
 229 143 229 143 226.5 129 c 128,-1,30
 224 115 224 115 224 108 c 0,31,32
 224 96 224 96 230.5 91 c 128,-1,33
 237 86 237 86 251 86 c 0,34,35
 262 86 262 86 272 87 c 128,-1,36
 282 88 282 88 291.5 89.5 c 128,-1,37
 301 91 301 91 308 91 c 1,38,-1
 291 10 l 1,39,40
 274 6 274 6 254 3 c 128,-1,41
 234 0 234 0 211 -2.5 c 128,-1,42
 188 -5 188 -5 164 -5 c 0,10,11
EndSplineSet
EndChar

StartChar: idieresis
Encoding: 239 239 97
Width: 354
GlyphClass: 1
Flags: W
LayerCount: 2
Fore
SplineSet
100 609 m 0,0,1
 146 609 146 609 172.5 632 c 128,-1,2
 199 655 199 655 199 697 c 0,3,4
 199 737 199 737 173.5 758.5 c 128,-1,5
 148 780 148 780 104 780 c 0,6,7
 57 780 57 780 30.5 757.5 c 128,-1,8
 4 735 4 735 4 693 c 0,9,10
 4 652 4 652 30 630.5 c 128,-1,11
 56 609 56 609 100 609 c 0,0,1
354 609 m 0,12,13
 400 609 400 609 426.5 632 c 128,-1,14
 453 655 453 655 453 697 c 0,15,16
 453 737 453 737 427.5 758.5 c 128,-1,17
 402 780 402 780 358 780 c 0,18,19
 312 780 312 780 285.5 757.5 c 128,-1,20
 259 735 259 735 259 693 c 0,21,22
 259 652 259 652 284.5 630.5 c 128,-1,23
 310 609 310 609 354 609 c 0,12,13
164 -5 m 0,24,25
 129 -5 129 -5 103 6 c 128,-1,26
 77 17 77 17 62.5 38.5 c 128,-1,27
 48 60 48 60 48 91 c 0,28,29
 48 105 48 105 51 122 c 128,-1,30
 54 139 54 139 59.5 165 c 128,-1,31
 65 191 65 191 74 232 c 2,32,-1
 118 433 l 2,33,34
 120 442 120 442 114 448 c 128,-1,35
 108 454 108 454 96 458.5 c 128,-1,36
 84 463 84 463 67 466 c 2,37,-1
 57 468 l 1,38,-1
 73 540 l 1,39,-1
 315 540 l 1,40,-1
 247 222 l 2,41,42
 240 188 240 188 234.5 165.5 c 128,-1,43
 229 143 229 143 226.5 129 c 128,-1,44
 224 115 224 115 224 108 c 0,45,46
 224 96 224 96 230.5 91 c 128,-1,47
 237 86 237 86 251 86 c 0,48,49
 262 86 262 86 272 87 c 128,-1,50
 282 88 282 88 291.5 89.5 c 128,-1,51
 301 91 301 91 308 91 c 1,52,-1
 291 10 l 1,53,54
 274 6 274 6 254 3 c 128,-1,55
 234 0 234 0 211 -2.5 c 128,-1,56
 188 -5 188 -5 164 -5 c 0,24,25
EndSplineSet
EndChar

StartChar: j
Encoding: 106 106 98
Width: 357
GlyphClass: 1
Flags: W
LayerCount: 2
Fore
SplineSet
257 611 m 0,0,1
 210 611 210 611 183.5 632.5 c 128,-1,2
 157 654 157 654 157 695 c 0,3,4
 157 737 157 737 185 759.5 c 128,-1,5
 213 782 213 782 261 782 c 0,6,7
 307 782 307 782 333.5 760.5 c 128,-1,8
 360 739 360 739 360 699 c 0,9,10
 360 657 360 657 332.5 634 c 128,-1,11
 305 611 305 611 257 611 c 0,0,1
-171 -220 m 1,12,-1
 -151 -138 l 1,13,14
 -139 -143 -139 -143 -116 -150.5 c 128,-1,15
 -93 -158 -93 -158 -66 -158 c 0,16,17
 -38 -158 -38 -158 -18.5 -146 c 128,-1,18
 1 -134 1 -134 14.5 -105.5 c 128,-1,19
 28 -77 28 -77 37 -31 c 2,20,-1
 138 431 l 2,21,22
 140 440 140 440 134 446.5 c 128,-1,23
 128 453 128 453 115.5 457 c 128,-1,24
 103 461 103 461 86 464 c 2,25,-1
 74 466 l 1,26,-1
 90 540 l 1,27,-1
 335 540 l 1,28,-1
 211 -36 l 2,29,30
 195 -113 195 -113 162.5 -158.5 c 128,-1,31
 130 -204 130 -204 81 -223.5 c 128,-1,32
 32 -243 32 -243 -34 -243 c 0,33,34
 -85 -243 -85 -243 -120 -235 c 128,-1,35
 -155 -227 -155 -227 -171 -220 c 1,12,-1
EndSplineSet
EndChar

StartChar: k
Encoding: 107 107 100
Width: 661
GlyphClass: 2
Flags: W
AnchorPoint: "Anchor-1" 328 0 basechar 0
LayerCount: 2
Fore
SplineSet
515 149 m 2,0,-1
 429 367 l 1,1,-1
 367 290 l 1,2,3
 420 330 420 330 472.5 369.5 c 128,-1,4
 525 409 525 409 577 448.5 c 128,-1,5
 629 488 629 488 682 527 c 1,6,-1
 682 540 l 1,7,-1
 527 540 l 1,8,9
 488 500 488 500 448 459 c 128,-1,10
 408 418 408 418 368.5 377 c 128,-1,11
 329 336 329 336 289 294 c 1,12,-1
 287 280 l 1,13,-1
 354 95 l 2,14,15
 365 60 365 60 380.5 37.5 c 128,-1,16
 396 15 396 15 420 5 c 128,-1,17
 444 -5 444 -5 480 -5 c 0,18,19
 504 -5 504 -5 527 -2.5 c 128,-1,20
 550 0 550 0 570.5 3.5 c 128,-1,21
 591 7 591 7 608 10 c 1,22,-1
 623 93 l 1,23,24
 617 92 617 92 608.5 91 c 128,-1,25
 600 90 600 90 590.5 88.5 c 128,-1,26
 581 87 581 87 571 87 c 0,27,28
 562 87 562 87 553.5 90.5 c 128,-1,29
 545 94 545 94 538.5 101 c 128,-1,30
 532 108 532 108 526.5 120 c 128,-1,31
 521 132 521 132 515 149 c 2,0,-1
24 0 m 1,32,-1
 200 0 l 1,33,-1
 361 758 l 1,34,-1
 119 758 l 1,35,-1
 103 685 l 1,36,-1
 113 683 l 2,37,38
 130 680 130 680 141.5 675.5 c 128,-1,39
 153 671 153 671 159 665 c 128,-1,40
 165 659 165 659 163 651 c 2,41,-1
 24 0 l 1,32,-1
EndSplineSet
EndChar

StartChar: l
Encoding: 108 108 101
Width: 350
GlyphClass: 2
Flags: W
AnchorPoint: "Anchor-2" 304 735 basechar 0
AnchorPoint: "Anchor-1" 185 0 basechar 0
AnchorPoint: "Anchor-0" 182 746 basechar 0
LayerCount: 2
Fore
SplineSet
159 651 m 2,0,1
 162 659 162 659 156 665 c 128,-1,2
 150 671 150 671 138 675.5 c 128,-1,3
 126 680 126 680 108 683 c 2,4,-1
 99 685 l 1,5,-1
 115 758 l 1,6,-1
 356 758 l 1,7,-1
 242 222 l 2,8,9
 235 188 235 188 229.5 165.5 c 128,-1,10
 224 143 224 143 221.5 129 c 128,-1,11
 219 115 219 115 219 108 c 0,12,13
 219 96 219 96 225.5 91 c 128,-1,14
 232 86 232 86 246 86 c 0,15,16
 257 86 257 86 267 87 c 128,-1,17
 277 88 277 88 286.5 89.5 c 128,-1,18
 296 91 296 91 303 91 c 1,19,-1
 286 10 l 1,20,21
 270 6 270 6 249.5 3 c 128,-1,22
 229 0 229 0 206.5 -2.5 c 128,-1,23
 184 -5 184 -5 159 -5 c 0,24,25
 125 -5 125 -5 99 6 c 128,-1,26
 73 17 73 17 58.5 38.5 c 128,-1,27
 44 60 44 60 44 91 c 0,28,29
 44 105 44 105 47 122 c 128,-1,30
 50 139 50 139 55.5 165 c 128,-1,31
 61 191 61 191 70 232 c 2,32,-1
 159 651 l 2,0,1
EndSplineSet
EndChar

StartChar: m
Encoding: 109 109 102
Width: 987
GlyphClass: 2
Flags: W
AnchorPoint: "Anchor-1" 493 -10 basechar 0
LayerCount: 2
Fore
SplineSet
26 0 m 1,0,-1
 202 0 l 1,1,-1
 285 392 l 1,2,-1
 278 392 l 1,3,-1
 294 540 l 1,4,-1
 75 540 l 1,5,-1
 60 468 l 1,6,-1
 69 466 l 2,7,8
 86 463 86 463 98 458.5 c 128,-1,9
 110 454 110 454 116 448 c 128,-1,10
 122 442 122 442 120 433 c 2,11,-1
 26 0 l 1,0,-1
888 222 m 2,12,-1
 916 345 l 2,13,14
 923 375 923 375 927 400 c 128,-1,15
 931 425 931 425 931 447 c 0,16,17
 931 478 931 478 917.5 501.5 c 128,-1,18
 904 525 904 525 878 538 c 128,-1,19
 852 551 852 551 814 551 c 0,20,21
 759 551 759 551 715.5 526.5 c 128,-1,22
 672 502 672 502 634.5 458.5 c 128,-1,23
 597 415 597 415 560 358 c 1,24,-1
 566 304 l 1,25,26
 595 348 595 348 620.5 380.5 c 128,-1,27
 646 413 646 413 670.5 430.5 c 128,-1,28
 695 448 695 448 718 448 c 0,29,30
 737 448 737 448 744 438 c 128,-1,31
 751 428 751 428 751 411 c 0,32,33
 751 399 751 399 748.5 384 c 128,-1,34
 746 369 746 369 740 347 c 2,35,-1
 713 232 l 2,36,37
 703 191 703 191 697.5 165 c 128,-1,38
 692 139 692 139 689.5 122 c 128,-1,39
 687 105 687 105 687 91 c 0,40,41
 687 59 687 59 701 37.5 c 128,-1,42
 715 16 715 16 740.5 5.5 c 128,-1,43
 766 -5 766 -5 800 -5 c 0,44,45
 825 -5 825 -5 847.5 -3 c 128,-1,46
 870 -1 870 -1 891 3 c 128,-1,47
 912 7 912 7 929 10 c 1,48,-1
 945 91 l 1,49,50
 939 91 939 91 929.5 89.5 c 128,-1,51
 920 88 920 88 910 87 c 128,-1,52
 900 86 900 86 889 86 c 0,53,54
 876 86 876 86 869.5 91 c 128,-1,55
 863 96 863 96 863 108 c 0,56,57
 863 115 863 115 866 129 c 128,-1,58
 869 143 869 143 874.5 165.5 c 128,-1,59
 880 188 880 188 888 222 c 2,12,-1
346 0 m 1,60,-1
 522 0 l 1,61,-1
 595 337 l 2,62,63
 596 346 596 346 597.5 362 c 128,-1,64
 599 378 599 378 599.5 396 c 128,-1,65
 600 414 600 414 600.5 428.5 c 128,-1,66
 601 443 601 443 601 450 c 0,67,68
 601 481 601 481 589 503.5 c 128,-1,69
 577 526 577 526 553 538.5 c 128,-1,70
 529 551 529 551 492 551 c 0,71,72
 437 551 437 551 394 526.5 c 128,-1,73
 351 502 351 502 314.5 459 c 128,-1,74
 278 416 278 416 241 358 c 1,75,-1
 246 304 l 1,76,77
 275 348 275 348 301 380.5 c 128,-1,78
 327 413 327 413 351.5 430.5 c 128,-1,79
 376 448 376 448 400 448 c 0,80,81
 419 448 419 448 425.5 439 c 128,-1,82
 432 430 432 430 432 414 c 0,83,84
 432 403 432 403 429.5 387 c 128,-1,85
 427 371 427 371 422 349 c 2,86,-1
 346 0 l 1,60,-1
EndSplineSet
EndChar

StartChar: n
Encoding: 110 110 103
Width: 686
GlyphClass: 2
Flags: W
AnchorPoint: "Anchor-1" 343 0 basechar 0
AnchorPoint: "Anchor-0" 335 551 basechar 0
LayerCount: 2
Fore
SplineSet
26 0 m 1,0,-1
 202 0 l 1,1,-1
 285 392 l 1,2,-1
 278 392 l 1,3,-1
 294 540 l 1,4,-1
 75 540 l 1,5,-1
 60 468 l 1,6,-1
 69 466 l 2,7,8
 86 463 86 463 98 458.5 c 128,-1,9
 110 454 110 454 116 448 c 128,-1,10
 122 442 122 442 120 433 c 2,11,-1
 26 0 l 1,0,-1
587 222 m 2,12,-1
 616 345 l 2,13,14
 622 375 622 375 626 400.5 c 128,-1,15
 630 426 630 426 630 447 c 0,16,17
 630 494 630 494 599 522.5 c 128,-1,18
 568 551 568 551 507 551 c 0,19,20
 450 551 450 551 404.5 527 c 128,-1,21
 359 503 359 503 319.5 459.5 c 128,-1,22
 280 416 280 416 241 358 c 1,23,-1
 246 304 l 1,24,25
 277 349 277 349 305.5 381 c 128,-1,26
 334 413 334 413 360.5 430.5 c 128,-1,27
 387 448 387 448 412 448 c 0,28,29
 433 448 433 448 442 438 c 128,-1,30
 451 428 451 428 451 411 c 0,31,32
 451 399 451 399 448.5 384 c 128,-1,33
 446 369 446 369 440 347 c 2,34,-1
 413 232 l 2,35,36
 403 191 403 191 397 165 c 128,-1,37
 391 139 391 139 389 122 c 128,-1,38
 387 105 387 105 387 91 c 0,39,40
 387 59 387 59 401 37.5 c 128,-1,41
 415 16 415 16 440.5 5.5 c 128,-1,42
 466 -5 466 -5 500 -5 c 0,43,44
 524 -5 524 -5 547 -3 c 128,-1,45
 570 -1 570 -1 590.5 3 c 128,-1,46
 611 7 611 7 628 10 c 1,47,-1
 645 91 l 1,48,49
 638 91 638 91 629 89.5 c 128,-1,50
 620 88 620 88 609.5 87 c 128,-1,51
 599 86 599 86 589 86 c 0,52,53
 576 86 576 86 569.5 91 c 128,-1,54
 563 96 563 96 563 108 c 0,55,56
 563 115 563 115 565.5 129 c 128,-1,57
 568 143 568 143 573.5 165.5 c 128,-1,58
 579 188 579 188 587 222 c 2,12,-1
EndSplineSet
EndChar

StartChar: o
Encoding: 111 111 105
Width: 658
GlyphClass: 2
Flags: W
AnchorPoint: "Anchor-2" 436 0 basechar 0
AnchorPoint: "Anchor-1" 328 0 basechar 0
AnchorPoint: "Anchor-0" 328 551 basechar 0
LayerCount: 2
Fore
SplineSet
426 219 m 0,0,1
 434 244 434 244 438.5 268.5 c 128,-1,2
 443 293 443 293 445.5 317 c 128,-1,3
 448 341 448 341 448 362 c 0,4,5
 448 395 448 395 438.5 418.5 c 128,-1,6
 429 442 429 442 409.5 454.5 c 128,-1,7
 390 467 390 467 357 467 c 0,8,9
 332 467 332 467 312 455.5 c 128,-1,10
 292 444 292 444 277 423 c 128,-1,11
 262 402 262 402 251 375 c 128,-1,12
 240 348 240 348 231 318 c 0,13,14
 225 293 225 293 220 268.5 c 128,-1,15
 215 244 215 244 212.5 220.5 c 128,-1,16
 210 197 210 197 210 175 c 0,17,18
 210 142 210 142 219.5 118.5 c 128,-1,19
 229 95 229 95 249 82.5 c 128,-1,20
 269 70 269 70 301 70 c 0,21,22
 326 70 326 70 346 81.5 c 128,-1,23
 366 93 366 93 381 114 c 128,-1,24
 396 135 396 135 407 162 c 128,-1,25
 418 189 418 189 426 219 c 0,0,1
34 222 m 0,26,27
 34 273 34 273 47 321.5 c 128,-1,28
 60 370 60 370 86 411.5 c 128,-1,29
 112 453 112 453 150.5 484 c 128,-1,30
 189 515 189 515 241 533 c 128,-1,31
 293 551 293 551 358 551 c 0,32,33
 438 551 438 551 497.5 522.5 c 128,-1,34
 557 494 557 494 590 441.5 c 128,-1,35
 623 389 623 389 623 315 c 0,36,37
 623 264 623 264 610.5 215.5 c 128,-1,38
 598 167 598 167 572 125.5 c 128,-1,39
 546 84 546 84 507.5 53 c 128,-1,40
 469 22 469 22 417 4 c 128,-1,41
 365 -14 365 -14 300 -14 c 0,42,43
 221 -14 221 -14 161 14.5 c 128,-1,44
 101 43 101 43 67.5 95.5 c 128,-1,45
 34 148 34 148 34 222 c 0,26,27
EndSplineSet
EndChar

StartChar: p
Encoding: 112 112 111
Width: 689
GlyphClass: 1
Flags: W
LayerCount: 2
Fore
SplineSet
-80 -223 m 1,0,-1
 -66 -157 l 1,1,-1
 -64 -157 l 2,2,3
 -38 -157 -38 -157 -20.5 -147 c 128,-1,4
 -3 -137 -3 -137 4 -107 c 2,5,-1
 120 433 l 2,6,7
 122 442 122 442 116 448 c 128,-1,8
 110 454 110 454 98.5 458.5 c 128,-1,9
 87 463 87 463 70 466 c 2,10,-1
 60 468 l 1,11,-1
 75 540 l 1,12,-1
 294 540 l 1,13,-1
 277 389 l 1,14,-1
 288 403 l 1,15,-1
 170 -148 l 2,16,17
 170 -150 170 -150 176 -152 c 128,-1,18
 182 -154 182 -154 191.5 -155 c 128,-1,19
 201 -156 201 -156 213 -156.5 c 128,-1,20
 225 -157 225 -157 237 -157 c 2,21,-1
 250 -157 l 1,22,-1
 236 -223 l 1,23,-1
 -80 -223 l 1,0,-1
164 164 m 1,24,-1
 211 187 l 1,25,26
 220 154 220 154 234 128.5 c 128,-1,27
 248 103 248 103 270 89 c 128,-1,28
 292 75 292 75 324 75 c 0,29,30
 353 75 353 75 377.5 93 c 128,-1,31
 402 111 402 111 420.5 141.5 c 128,-1,32
 439 172 439 172 451 209 c 128,-1,33
 463 246 463 246 469.5 284.5 c 128,-1,34
 476 323 476 323 476 356 c 256,35,36
 476 389 476 389 468.5 410.5 c 128,-1,37
 461 432 461 432 446 442.5 c 128,-1,38
 431 453 431 453 408 453 c 0,39,40
 379 453 379 453 354 437 c 128,-1,41
 329 421 329 421 302 389 c 128,-1,42
 275 357 275 357 241 308 c 1,43,-1
 229 339 l 1,44,45
 267 405 267 405 303.5 452 c 128,-1,46
 340 499 340 499 381.5 524.5 c 128,-1,47
 423 550 423 550 476 550 c 0,48,49
 532 550 532 550 571.5 525.5 c 128,-1,50
 611 501 611 501 632.5 455.5 c 128,-1,51
 654 410 654 410 654 345 c 0,52,53
 654 292 654 292 641 240.5 c 128,-1,54
 628 189 628 189 603 143.5 c 128,-1,55
 578 98 578 98 541.5 62.5 c 128,-1,56
 505 27 505 27 458 7 c 128,-1,57
 411 -13 411 -13 354 -13 c 0,58,59
 295 -13 295 -13 255.5 10.5 c 128,-1,60
 216 34 216 34 194 74 c 128,-1,61
 172 114 172 114 164 164 c 1,24,-1
EndSplineSet
EndChar

StartChar: q
Encoding: 113 113 112
Width: 672
GlyphClass: 1
Flags: W
LayerCount: 2
Fore
SplineSet
244 -223 m 1,0,-1
 258 -157 l 1,1,-1
 271 -157 l 2,2,3
 286 -157 286 -157 301.5 -156 c 128,-1,4
 317 -155 317 -155 328 -153 c 128,-1,5
 339 -151 339 -151 340 -148 c 2,6,-1
 463 430 l 1,7,-1
 469 432 l 1,8,-1
 554 547 l 1,9,-1
 664 547 l 1,10,-1
 525 -107 l 2,11,12
 520 -126 520 -126 524.5 -137 c 128,-1,13
 529 -148 529 -148 541 -152.5 c 128,-1,14
 553 -157 553 -157 570 -157 c 2,15,-1
 572 -157 l 1,16,-1
 558 -223 l 1,17,-1
 244 -223 l 1,0,-1
526 368 m 1,18,-1
 477 345 l 1,19,20
 470 381 470 381 456.5 407 c 128,-1,21
 443 433 443 433 421.5 448 c 128,-1,22
 400 463 400 463 367 463 c 0,23,24
 337 463 337 463 312.5 445 c 128,-1,25
 288 427 288 427 269.5 396.5 c 128,-1,26
 251 366 251 366 238.5 329 c 128,-1,27
 226 292 226 292 219.5 253.5 c 128,-1,28
 213 215 213 215 213 181 c 0,29,30
 213 149 213 149 220 127.5 c 128,-1,31
 227 106 227 106 242 95 c 128,-1,32
 257 84 257 84 280 84 c 0,33,34
 309 84 309 84 334 100.5 c 128,-1,35
 359 117 359 117 386.5 149 c 128,-1,36
 414 181 414 181 447 230 c 1,37,-1
 460 199 l 1,38,39
 422 134 422 134 385 86.5 c 128,-1,40
 348 39 348 39 306.5 13 c 128,-1,41
 265 -13 265 -13 211 -13 c 0,42,43
 156 -13 156 -13 116.5 11.5 c 128,-1,44
 77 36 77 36 55.5 82 c 128,-1,45
 34 128 34 128 34 193 c 0,46,47
 34 245 34 245 48 296.5 c 128,-1,48
 62 348 62 348 88 394 c 128,-1,49
 114 440 114 440 151.5 475 c 128,-1,50
 189 510 189 510 236 530 c 128,-1,51
 283 550 283 550 338 550 c 0,52,53
 400 550 400 550 439.5 526 c 128,-1,54
 479 502 479 502 500 461 c 128,-1,55
 521 420 521 420 526 368 c 1,18,-1
EndSplineSet
EndChar

StartChar: r
Encoding: 114 114 113
Width: 493
GlyphClass: 2
Flags: W
AnchorPoint: "Anchor-1" 197 0 basechar 0
AnchorPoint: "Anchor-0" 260 545 basechar 0
LayerCount: 2
Fore
SplineSet
26 0 m 1,0,-1
 202 0 l 1,1,-1
 281 369 l 1,2,-1
 275 370 l 1,3,-1
 294 540 l 1,4,-1
 75 540 l 1,5,-1
 60 468 l 1,6,-1
 69 466 l 2,7,8
 86 463 86 463 98 458.5 c 128,-1,9
 110 454 110 454 116 448 c 128,-1,10
 122 442 122 442 120 433 c 2,11,-1
 26 0 l 1,0,-1
504 541 m 1,12,13
 500 544 500 544 487.5 547 c 128,-1,14
 475 550 475 550 455 550 c 0,15,16
 421 550 421 550 394.5 535 c 128,-1,17
 368 520 368 520 344.5 491.5 c 128,-1,18
 321 463 321 463 297.5 423 c 128,-1,19
 274 383 274 383 248 332 c 1,20,-1
 255 313 l 1,21,22
 271 334 271 334 286.5 348.5 c 128,-1,23
 302 363 302 363 318.5 371.5 c 128,-1,24
 335 380 335 380 353.5 383.5 c 128,-1,25
 372 387 372 387 392 387 c 0,26,27
 418 387 418 387 438 384 c 128,-1,28
 458 381 458 381 472 378 c 1,29,-1
 504 541 l 1,12,13
EndSplineSet
EndChar

StartChar: s
Encoding: 115 115 114
Width: 552
GlyphClass: 2
Flags: W
AnchorPoint: "Anchor-1" 276 0 basechar 0
AnchorPoint: "Anchor-0" 276 546 basechar 0
LayerCount: 2
Fore
SplineSet
249 -11 m 0,0,1
 192 -11 192 -11 143.5 -2 c 128,-1,2
 95 7 95 7 60 21 c 128,-1,3
 25 35 25 35 5 49 c 1,4,-1
 33 174 l 1,5,-1
 161 174 l 1,6,-1
 132 43 l 1,7,8
 112 50 112 50 104.5 62.5 c 128,-1,9
 97 75 97 75 97.5 88 c 128,-1,10
 98 101 98 101 105 111 c 1,11,12
 117 100 117 100 138 89 c 128,-1,13
 159 78 159 78 187.5 71 c 128,-1,14
 216 64 216 64 249 64 c 0,15,16
 279 64 279 64 299.5 71.5 c 128,-1,17
 320 79 320 79 331 94 c 128,-1,18
 342 109 342 109 342 133 c 0,19,20
 342 150 342 150 332 162 c 128,-1,21
 322 174 322 174 305 183.5 c 128,-1,22
 288 193 288 193 267.5 201 c 128,-1,23
 247 209 247 209 226 218 c 0,24,25
 189 233 189 233 155 251 c 128,-1,26
 121 269 121 269 99.5 298.5 c 128,-1,27
 78 328 78 328 78 377 c 0,28,29
 78 433 78 433 106 471 c 128,-1,30
 134 509 134 509 189 529.5 c 128,-1,31
 244 550 244 550 325 550 c 0,32,33
 375 550 375 550 416.5 542 c 128,-1,34
 458 534 458 534 487 522.5 c 128,-1,35
 516 511 516 511 529 500 c 1,36,-1
 505 387 l 1,37,-1
 379 387 l 1,38,-1
 400 489 l 1,39,40
 413 490 413 490 422.5 480.5 c 128,-1,41
 432 471 432 471 436 458.5 c 128,-1,42
 440 446 440 446 433 435 c 1,43,44
 423 446 423 446 407.5 455 c 128,-1,45
 392 464 392 464 370 469.5 c 128,-1,46
 348 475 348 475 319 475 c 0,47,48
 275 475 275 475 254.5 459.5 c 128,-1,49
 234 444 234 444 234 417 c 0,50,51
 234 397 234 397 249.5 384 c 128,-1,52
 265 371 265 371 290.5 360 c 128,-1,53
 316 349 316 349 346 336 c 0,54,55
 384 321 384 321 419.5 302 c 128,-1,56
 455 283 455 283 478 253 c 128,-1,57
 501 223 501 223 501 176 c 0,58,59
 501 113 501 113 471.5 71.5 c 128,-1,60
 442 30 442 30 386 9.5 c 128,-1,61
 330 -11 330 -11 249 -11 c 0,0,1
EndSplineSet
EndChar

StartChar: scaron
Encoding: 154 353 116
Width: 552
GlyphClass: 1
Flags: W
LayerCount: 2
Fore
SplineSet
264 604 m 1,0,-1
 389 604 l 1,1,-1
 553 773 l 1,2,-1
 560 803 l 1,3,-1
 491 803 l 1,4,-1
 305 689 l 1,5,-1
 380 684 l 1,6,-1
 245 803 l 1,7,-1
 180 803 l 1,8,-1
 173 773 l 1,9,-1
 264 604 l 1,0,-1
249 -11 m 0,10,11
 192 -11 192 -11 143.5 -2 c 128,-1,12
 95 7 95 7 60 21 c 128,-1,13
 25 35 25 35 5 49 c 1,14,-1
 33 174 l 1,15,-1
 161 174 l 1,16,-1
 132 43 l 1,17,18
 112 50 112 50 104.5 62.5 c 128,-1,19
 97 75 97 75 97.5 88 c 128,-1,20
 98 101 98 101 105 111 c 1,21,22
 117 100 117 100 138 89 c 128,-1,23
 159 78 159 78 187.5 71 c 128,-1,24
 216 64 216 64 249 64 c 0,25,26
 279 64 279 64 299.5 71.5 c 128,-1,27
 320 79 320 79 331 94 c 128,-1,28
 342 109 342 109 342 133 c 0,29,30
 342 150 342 150 332 162 c 128,-1,31
 322 174 322 174 305 183.5 c 128,-1,32
 288 193 288 193 267.5 201 c 128,-1,33
 247 209 247 209 226 218 c 0,34,35
 189 233 189 233 155 251 c 128,-1,36
 121 269 121 269 99.5 298.5 c 128,-1,37
 78 328 78 328 78 377 c 0,38,39
 78 433 78 433 106 471 c 128,-1,40
 134 509 134 509 189 529.5 c 128,-1,41
 244 550 244 550 325 550 c 0,42,43
 375 550 375 550 416.5 542 c 128,-1,44
 458 534 458 534 487 522.5 c 128,-1,45
 516 511 516 511 529 500 c 1,46,-1
 505 387 l 1,47,-1
 379 387 l 1,48,-1
 400 489 l 1,49,50
 413 490 413 490 422.5 480.5 c 128,-1,51
 432 471 432 471 436 458.5 c 128,-1,52
 440 446 440 446 433 435 c 1,53,54
 423 446 423 446 407.5 455 c 128,-1,55
 392 464 392 464 370 469.5 c 128,-1,56
 348 475 348 475 319 475 c 0,57,58
 275 475 275 475 254.5 459.5 c 128,-1,59
 234 444 234 444 234 417 c 0,60,61
 234 397 234 397 249.5 384 c 128,-1,62
 265 371 265 371 290.5 360 c 128,-1,63
 316 349 316 349 346 336 c 0,64,65
 384 321 384 321 419.5 302 c 128,-1,66
 455 283 455 283 478 253 c 128,-1,67
 501 223 501 223 501 176 c 0,68,69
 501 113 501 113 471.5 71.5 c 128,-1,70
 442 30 442 30 386 9.5 c 128,-1,71
 330 -11 330 -11 249 -11 c 0,10,11
EndSplineSet
EndChar

StartChar: t
Encoding: 116 116 117
Width: 445
GlyphClass: 2
Flags: W
AnchorPoint: "Anchor-2" 347 681 basechar 0
AnchorPoint: "Anchor-1" 288 0 basechar 0
AnchorPoint: "Anchor-0" 182 675 basechar 0
LayerCount: 2
Fore
SplineSet
217 -5 m 0,0,1
 169 -5 169 -5 134.5 7.5 c 128,-1,2
 100 20 100 20 81.5 47.5 c 128,-1,3
 63 75 63 75 63 117 c 0,4,5
 63 132 63 132 65.5 150.5 c 128,-1,6
 68 169 68 169 71.5 189 c 128,-1,7
 75 209 75 209 79 230 c 2,8,-1
 141 522 l 1,9,-1
 216 540 l 1,10,-1
 462 540 l 1,11,-1
 444 460 l 1,12,-1
 44 460 l 1,13,-1
 60 535 l 1,14,-1
 68 535 l 2,15,16
 94 535 94 535 113.5 539 c 128,-1,17
 133 543 133 543 146 556 c 128,-1,18
 159 569 159 569 164 593 c 2,19,-1
 185 692 l 1,20,-1
 353 692 l 1,21,-1
 251 216 l 2,22,23
 247 199 247 199 244.5 182.5 c 128,-1,24
 242 166 242 166 240 152.5 c 128,-1,25
 238 139 238 139 238 130 c 0,26,27
 238 106 238 106 250.5 96.5 c 128,-1,28
 263 87 263 87 285 87 c 0,29,30
 303 87 303 87 321.5 88.5 c 128,-1,31
 340 90 340 90 355 91.5 c 128,-1,32
 370 93 370 93 378 94 c 1,33,-1
 361 5 l 1,34,35
 338 1 338 1 302.5 -2 c 128,-1,36
 267 -5 267 -5 217 -5 c 0,0,1
EndSplineSet
EndChar

StartChar: u
Encoding: 117 117 118
Width: 680
GlyphClass: 2
Flags: W
AnchorPoint: "Anchor-2" 489 0 basechar 0
AnchorPoint: "Anchor-1" 313 0 basechar 0
AnchorPoint: "Anchor-0" 313 551 basechar 0
LayerCount: 2
Fore
SplineSet
243 194 m 2,0,1
 239 172 239 172 236 157.5 c 128,-1,2
 233 143 233 143 233 130 c 0,3,4
 233 118 233 118 236.5 109.5 c 128,-1,5
 240 101 240 101 248 96.5 c 128,-1,6
 256 92 256 92 270 92 c 0,7,8
 293 92 293 92 318.5 109.5 c 128,-1,9
 344 127 344 127 372.5 160 c 128,-1,10
 401 193 401 193 431 238 c 1,11,-1
 437 181 l 1,12,13
 400 124 400 124 361.5 80 c 128,-1,14
 323 36 323 36 277.5 12.5 c 128,-1,15
 232 -11 232 -11 175 -11 c 0,16,17
 116 -11 116 -11 84.5 18 c 128,-1,18
 53 47 53 47 53 94 c 0,19,20
 53 116 53 116 57 140.5 c 128,-1,21
 61 165 61 165 68 195 c 2,22,-1
 122 433 l 2,23,24
 123 442 123 442 117.5 448 c 128,-1,25
 112 454 112 454 100 458.5 c 128,-1,26
 88 463 88 463 71 466 c 2,27,-1
 61 468 l 1,28,-1
 76 540 l 1,29,-1
 320 540 l 1,30,-1
 243 194 l 2,0,1
582 222 m 2,31,32
 574 188 574 188 569 165.5 c 128,-1,33
 564 143 564 143 561 129 c 128,-1,34
 558 115 558 115 558 108 c 0,35,36
 558 96 558 96 564.5 91 c 128,-1,37
 571 86 571 86 585 86 c 0,38,39
 601 86 601 86 616 88.5 c 128,-1,40
 631 91 631 91 642 91 c 1,41,-1
 625 10 l 1,42,43
 609 6 609 6 589.5 3 c 128,-1,44
 570 0 570 0 549 -2.5 c 128,-1,45
 528 -5 528 -5 504 -5 c 0,46,47
 453 -5 453 -5 424.5 19 c 128,-1,48
 396 43 396 43 396 91 c 0,49,50
 396 96 396 96 396.5 104.5 c 128,-1,51
 397 113 397 113 397.5 124.5 c 128,-1,52
 398 136 398 136 399 149 c 1,53,-1
 389 140 l 1,54,-1
 474 540 l 1,55,-1
 650 540 l 1,56,-1
 582 222 l 2,31,32
EndSplineSet
EndChar

StartChar: v
Encoding: 118 118 124
Width: 580
GlyphClass: 1
Flags: W
LayerCount: 2
Fore
SplineSet
260 540 m 1,0,-1
 48 540 l 1,1,-1
 33 468 l 1,2,-1
 44 466 l 2,3,4
 61 463 61 463 73 458.5 c 128,-1,5
 85 454 85 454 91.5 448 c 128,-1,6
 98 442 98 442 99 433 c 2,7,-1
 146 0 l 1,8,-1
 319 0 l 1,9,10
 355 66 355 66 391 132.5 c 128,-1,11
 427 199 427 199 462.5 265 c 128,-1,12
 498 331 498 331 533.5 397.5 c 128,-1,13
 569 464 569 464 605 530 c 1,14,-1
 605 540 l 1,15,-1
 481 540 l 1,16,17
 457 482 457 482 432.5 423.5 c 128,-1,18
 408 365 408 365 383.5 307 c 128,-1,19
 359 249 359 249 334.5 191 c 128,-1,20
 310 133 310 133 285 74 c 1,21,-1
 304 53 l 1,22,-1
 260 540 l 1,0,-1
EndSplineSet
EndChar

StartChar: w
Encoding: 119 119 125
Width: 884
GlyphClass: 1
Flags: W
LayerCount: 2
Fore
SplineSet
289 0 m 1,0,-1
 126 0 l 1,1,-1
 99 433 l 2,2,3
 99 442 99 442 92 448 c 128,-1,4
 85 454 85 454 73 458.5 c 128,-1,5
 61 463 61 463 44 466 c 2,6,-1
 33 468 l 1,7,-1
 48 540 l 1,8,-1
 256 540 l 1,9,-1
 279 53 l 1,10,-1
 252 81 l 1,11,12
 277 139 277 139 301.5 196 c 128,-1,13
 326 253 326 253 350.5 310.5 c 128,-1,14
 375 368 375 368 399.5 425.5 c 128,-1,15
 424 483 424 483 449 540 c 1,16,-1
 589 540 l 1,17,-1
 626 53 l 1,18,-1
 604 75 l 1,19,20
 626 133 626 133 648 191.5 c 128,-1,21
 670 250 670 250 692.5 308 c 128,-1,22
 715 366 715 366 737.5 424 c 128,-1,23
 760 482 760 482 782 540 c 1,24,-1
 904 540 l 1,25,-1
 904 530 l 1,26,27
 871 464 871 464 837.5 397.5 c 128,-1,28
 804 331 804 331 770.5 265 c 128,-1,29
 737 199 737 199 703.5 132.5 c 128,-1,30
 670 66 670 66 637 0 c 1,31,-1
 479 0 l 1,32,-1
 448 403 l 1,33,-1
 477 409 l 1,34,35
 446 341 446 341 414.5 273 c 128,-1,36
 383 205 383 205 352 137 c 128,-1,37
 321 69 321 69 289 0 c 1,0,-1
EndSplineSet
EndChar

StartChar: x
Encoding: 120 120 126
Width: 597
GlyphClass: 1
Flags: W
LayerCount: 2
Fore
SplineSet
370 259 m 1,0,-1
 331 306 l 1,1,-1
 478 540 l 1,2,-1
 608 540 l 1,3,-1
 608 530 l 1,4,-1
 370 259 l 1,0,-1
-12 0 m 1,5,-1
 -12 11 l 1,6,-1
 230 286 l 1,7,-1
 274 237 l 1,8,-1
 120 0 l 1,9,-1
 -12 0 l 1,5,-1
413 -6 m 256,10,11
 378 -6 378 -6 354.5 3.5 c 128,-1,12
 331 13 331 13 314.5 35.5 c 128,-1,13
 298 58 298 58 282 98 c 2,14,-1
 155 431 l 2,15,16
 152 442 152 442 143 448.5 c 128,-1,17
 134 455 134 455 120.5 459 c 128,-1,18
 107 463 107 463 88 466 c 2,19,-1
 74 468 l 1,20,-1
 90 540 l 1,21,-1
 289 540 l 1,22,-1
 443 138 l 2,23,24
 451 117 451 117 458.5 105.5 c 128,-1,25
 466 94 466 94 475.5 89.5 c 128,-1,26
 485 85 485 85 499 85 c 0,27,28
 514 85 514 85 528 87.5 c 128,-1,29
 542 90 542 90 552 91 c 1,30,-1
 539 8 l 1,31,32
 514 3 514 3 481 -1.5 c 128,-1,33
 448 -6 448 -6 413 -6 c 256,10,11
EndSplineSet
EndChar

StartChar: y
Encoding: 121 121 127
Width: 595
GlyphClass: 1
Flags: W
LayerCount: 2
Fore
SplineSet
218 -62 m 1,0,-1
 281 9 l 1,1,-1
 345 113 l 1,2,-1
 260 540 l 1,3,-1
 55 540 l 1,4,-1
 40 468 l 1,5,-1
 51 466 l 2,6,7
 68 463 68 463 79.5 458.5 c 128,-1,8
 91 454 91 454 97 448 c 128,-1,9
 103 442 103 442 105 433 c 2,10,-1
 218 -62 l 1,0,-1
296 94 m 1,11,-1
 243 43 l 1,12,13
 221 -2 221 -2 200 -33 c 128,-1,14
 179 -64 179 -64 157.5 -83 c 128,-1,15
 136 -102 136 -102 112.5 -110.5 c 128,-1,16
 89 -119 89 -119 60 -119 c 0,17,18
 21 -119 21 -119 -4 -110.5 c 128,-1,19
 -29 -102 -29 -102 -38 -97 c 1,20,-1
 -63 -217 l 1,21,22
 -53 -223 -53 -223 -27 -231 c 128,-1,23
 -1 -239 -1 -239 37 -239 c 0,24,25
 82 -239 82 -239 118.5 -225.5 c 128,-1,26
 155 -212 155 -212 188.5 -182 c 128,-1,27
 222 -152 222 -152 257 -103 c 128,-1,28
 292 -54 292 -54 332 17 c 0,29,30
 358 64 358 64 385.5 114 c 128,-1,31
 413 164 413 164 442 216 c 128,-1,32
 471 268 471 268 500 320.5 c 128,-1,33
 529 373 529 373 558.5 425.5 c 128,-1,34
 588 478 588 478 617 530 c 1,35,-1
 618 540 l 1,36,-1
 491 540 l 1,37,38
 467 484 467 484 442.5 428.5 c 128,-1,39
 418 373 418 373 394 317 c 128,-1,40
 370 261 370 261 345.5 205.5 c 128,-1,41
 321 150 321 150 296 94 c 1,11,-1
EndSplineSet
EndChar

StartChar: z
Encoding: 122 122 130
Width: 593
GlyphClass: 2
Flags: W
AnchorPoint: "Anchor-1" 321 0 basechar 0
AnchorPoint: "Anchor-0" 297 551 basechar 0
LayerCount: 2
Fore
SplineSet
384 -12 m 0,0,1
 345 -12 345 -12 315.5 0.5 c 128,-1,2
 286 13 286 13 262.5 34.5 c 128,-1,3
 239 56 239 56 219.5 83.5 c 128,-1,4
 200 111 200 111 180 142 c 1,5,-1
 223 187 l 1,6,7
 242 171 242 171 262.5 158 c 128,-1,8
 283 145 283 145 309.5 137 c 128,-1,9
 336 129 336 129 371 129 c 0,10,11
 408 129 408 129 430.5 140.5 c 128,-1,12
 453 152 453 152 466 179 c 128,-1,13
 479 206 479 206 488 253 c 1,14,-1
 552 242 l 1,15,16
 558 185 558 185 550.5 138 c 128,-1,17
 543 91 543 91 522.5 57.5 c 128,-1,18
 502 24 502 24 467.5 6 c 128,-1,19
 433 -12 433 -12 384 -12 c 0,0,1
85 0 m 1,20,-1
 2 0 l 1,21,-1
 11 53 l 1,22,-1
 427 442 l 1,23,-1
 439 416 l 1,24,-1
 282 416 l 2,25,26
 240 416 240 416 214 412.5 c 128,-1,27
 188 409 188 409 174 399 c 128,-1,28
 160 389 160 389 153 371 c 2,29,-1
 132 314 l 1,30,-1
 57 314 l 1,31,-1
 104 540 l 1,32,-1
 567 540 l 1,33,-1
 548 441 l 1,34,-1
 85 0 l 1,20,-1
EndSplineSet
EndChar

StartChar: zcaron
Encoding: 158 382 131
Width: 593
GlyphClass: 1
Flags: W
LayerCount: 2
Fore
SplineSet
269 604 m 1,0,-1
 394 604 l 1,1,-1
 558 773 l 1,2,-1
 565 803 l 1,3,-1
 496 803 l 1,4,-1
 310 689 l 1,5,-1
 385 684 l 1,6,-1
 250 803 l 1,7,-1
 185 803 l 1,8,-1
 178 773 l 1,9,-1
 269 604 l 1,0,-1
384 -12 m 0,10,11
 345 -12 345 -12 315.5 0.5 c 128,-1,12
 286 13 286 13 262.5 34.5 c 128,-1,13
 239 56 239 56 219.5 83.5 c 128,-1,14
 200 111 200 111 180 142 c 1,15,-1
 223 187 l 1,16,17
 242 171 242 171 262.5 158 c 128,-1,18
 283 145 283 145 309.5 137 c 128,-1,19
 336 129 336 129 371 129 c 0,20,21
 408 129 408 129 430.5 140.5 c 128,-1,22
 453 152 453 152 466 179 c 128,-1,23
 479 206 479 206 488 253 c 1,24,-1
 552 242 l 1,25,26
 558 185 558 185 550.5 138 c 128,-1,27
 543 91 543 91 522.5 57.5 c 128,-1,28
 502 24 502 24 467.5 6 c 128,-1,29
 433 -12 433 -12 384 -12 c 0,10,11
85 0 m 1,30,-1
 2 0 l 1,31,-1
 11 53 l 1,32,-1
 427 442 l 1,33,-1
 439 416 l 1,34,-1
 282 416 l 2,35,36
 240 416 240 416 214 412.5 c 128,-1,37
 188 409 188 409 174 399 c 128,-1,38
 160 389 160 389 153 371 c 2,39,-1
 132 314 l 1,40,-1
 57 314 l 1,41,-1
 104 540 l 1,42,-1
 567 540 l 1,43,-1
 548 441 l 1,44,-1
 85 0 l 1,30,-1
EndSplineSet
EndChar

StartChar: germandbls
Encoding: 223 223 132
Width: 691
GlyphClass: 1
Flags: W
LayerCount: 2
Fore
SplineSet
59 540 m 1,0,-1
 212 540 l 1,1,-1
 195 463 l 1,2,-1
 43 463 l 1,3,-1
 59 540 l 1,0,-1
33 -231 m 1,4,-1
 152 567 l 2,5,6
 163 638 163 638 198 682.5 c 128,-1,7
 233 727 233 727 291.5 747.5 c 128,-1,8
 350 768 350 768 427 768 c 0,9,10
 505 768 505 768 557 749 c 128,-1,11
 609 730 609 730 635.5 694.5 c 128,-1,12
 662 659 662 659 662 610 c 0,13,14
 662 565 662 565 643.5 530 c 128,-1,15
 625 495 625 495 592.5 472 c 128,-1,16
 560 449 560 449 516.5 437.5 c 128,-1,17
 473 426 473 426 422 426 c 1,18,-1
 467 439 l 1,19,-1
 459 412 l 1,20,-1
 423 434 l 1,21,22
 490 423 490 423 542 396 c 128,-1,23
 594 369 594 369 623 326.5 c 128,-1,24
 652 284 652 284 652 225 c 0,25,26
 652 170 652 170 634.5 126 c 128,-1,27
 617 82 617 82 585 51.5 c 128,-1,28
 553 21 553 21 508 5 c 128,-1,29
 463 -11 463 -11 408 -11 c 0,30,31
 364 -11 364 -11 332 -3 c 128,-1,32
 300 5 300 5 284 13 c 1,33,-1
 301 92 l 1,34,35
 304 91 304 91 314 87 c 128,-1,36
 324 83 324 83 338.5 79 c 128,-1,37
 353 75 353 75 369 75 c 0,38,39
 394 75 394 75 413 90.5 c 128,-1,40
 432 106 432 106 445 133 c 128,-1,41
 458 160 458 160 465.5 193 c 128,-1,42
 473 226 473 226 473 260 c 0,43,44
 473 291 473 291 465 313.5 c 128,-1,45
 457 336 457 336 441.5 351.5 c 128,-1,46
 426 367 426 367 404.5 375.5 c 128,-1,47
 383 384 383 384 354 388 c 1,48,-1
 372 468 l 1,49,50
 403 469 403 469 426.5 479.5 c 128,-1,51
 450 490 450 490 465 509.5 c 128,-1,52
 480 529 480 529 488 556 c 128,-1,53
 496 583 496 583 496 615 c 0,54,55
 496 640 496 640 488 655.5 c 128,-1,56
 480 671 480 671 464 679 c 128,-1,57
 448 687 448 687 424 687 c 0,58,59
 395 687 395 687 376.5 676.5 c 128,-1,60
 358 666 358 666 346.5 642 c 128,-1,61
 335 618 335 618 327 575 c 2,62,-1
 164 -231 l 1,63,-1
 33 -231 l 1,4,-1
EndSplineSet
EndChar

StartChar: ae
Encoding: 230 230 133
Width: 916
GlyphClass: 2
Flags: W
AnchorPoint: "Anchor-0" 515 517 basechar 0
LayerCount: 2
Fore
SplineSet
316 470 m 0,0,1
 288 470 288 470 265 464 c 128,-1,2
 242 458 242 458 226 449.5 c 128,-1,3
 210 441 210 441 201 433 c 1,4,5
 198 441 198 441 202 450 c 128,-1,6
 206 459 206 459 214 467 c 128,-1,7
 222 475 222 475 232.5 480 c 128,-1,8
 243 485 243 485 253 484 c 1,9,-1
 228 367 l 1,10,-1
 87 367 l 1,11,-1
 117 502 l 1,12,13
 133 511 133 511 163 522.5 c 128,-1,14
 193 534 193 534 233.5 542.5 c 128,-1,15
 274 551 274 551 321 551 c 0,16,17
 383 551 383 551 428 535.5 c 128,-1,18
 473 520 473 520 497.5 488 c 128,-1,19
 522 456 522 456 522 406 c 2,20,-1
 521 361 l 1,21,-1
 375 288 l 1,22,-1
 393 370 l 2,23,24
 397 386 397 386 398 396 c 128,-1,25
 399 406 399 406 399 415 c 0,26,27
 399 433 399 433 390.5 445 c 128,-1,28
 382 457 382 457 363.5 463.5 c 128,-1,29
 345 470 345 470 316 470 c 0,0,1
203 -12 m 0,30,31
 147 -12 147 -12 107.5 4.5 c 128,-1,32
 68 21 68 21 47 51.5 c 128,-1,33
 26 82 26 82 26 125 c 256,34,35
 26 168 26 168 45.5 200.5 c 128,-1,36
 65 233 65 233 109.5 256.5 c 128,-1,37
 154 280 154 280 229 293 c 128,-1,38
 304 306 304 306 415 310 c 1,39,-1
 401 247 l 1,40,41
 348 243 348 243 310.5 236 c 128,-1,42
 273 229 273 229 249.5 218.5 c 128,-1,43
 226 208 226 208 212 195 c 128,-1,44
 198 182 198 182 193 166 c 128,-1,45
 188 150 188 150 188 132 c 0,46,47
 188 102 188 102 205 85.5 c 128,-1,48
 222 69 222 69 256 69 c 0,49,50
 283 69 283 69 305 79.5 c 128,-1,51
 327 90 327 90 349 113 c 128,-1,52
 371 136 371 136 396 172 c 1,53,-1
 431 131 l 1,54,55
 401 85 401 85 369 53 c 128,-1,56
 337 21 337 21 297.5 4.5 c 128,-1,57
 258 -12 258 -12 203 -12 c 0,30,31
627 -13 m 0,58,59
 547 -13 547 -13 489 15.5 c 128,-1,60
 431 44 431 44 400 96.5 c 128,-1,61
 369 149 369 149 369 221 c 0,62,63
 369 250 369 250 376.5 276.5 c 128,-1,64
 384 303 384 303 397.5 325 c 128,-1,65
 411 347 411 347 427 363.5 c 128,-1,66
 443 380 443 380 460 389 c 1,67,68
 476 426 476 426 500 456 c 128,-1,69
 524 486 524 486 555 507 c 128,-1,70
 586 528 586 528 623 539.5 c 128,-1,71
 660 551 660 551 700 551 c 0,72,73
 764 551 764 551 806.5 532 c 128,-1,74
 849 513 849 513 870 481 c 128,-1,75
 891 449 891 449 891 408 c 0,76,77
 891 359 891 359 865 323.5 c 128,-1,78
 839 288 839 288 787.5 264.5 c 128,-1,79
 736 241 736 241 659 229 c 128,-1,80
 582 217 582 217 481 215 c 1,81,-1
 485 279 l 1,82,83
 556 280 556 280 605.5 288 c 128,-1,84
 655 296 655 296 685.5 310.5 c 128,-1,85
 716 325 716 325 730.5 348.5 c 128,-1,86
 745 372 745 372 745 405 c 0,87,88
 745 436 745 436 729.5 452 c 128,-1,89
 714 468 714 468 682 468 c 0,90,91
 649 468 649 468 623 449.5 c 128,-1,92
 597 431 597 431 578.5 397.5 c 128,-1,93
 560 364 560 364 550.5 319 c 128,-1,94
 541 274 541 274 541 221 c 0,95,96
 541 169 541 169 555 137 c 128,-1,97
 569 105 569 105 595.5 90 c 128,-1,98
 622 75 622 75 660 75 c 0,99,100
 694 75 694 75 720.5 88 c 128,-1,101
 747 101 747 101 768.5 122.5 c 128,-1,102
 790 144 790 144 808 170 c 1,103,-1
 865 118 l 1,104,105
 843 81 843 81 809.5 51.5 c 128,-1,106
 776 22 776 22 731 4.5 c 128,-1,107
 686 -13 686 -13 627 -13 c 0,58,59
EndSplineSet
EndChar

StartChar: eth
Encoding: 240 240 134
Width: 663
GlyphClass: 1
Flags: W
LayerCount: 2
Fore
SplineSet
172 622 m 1,0,-1
 621 744 l 1,1,-1
 632 683 l 1,2,-1
 184 561 l 1,3,-1
 172 622 l 1,0,-1
481 396 m 1,4,-1
 473 328 l 1,5,6
 464 368 464 368 449 396 c 128,-1,7
 434 424 434 424 412 438.5 c 128,-1,8
 390 453 390 453 355 453 c 0,9,10
 328 453 328 453 307.5 441.5 c 128,-1,11
 287 430 287 430 271.5 408.5 c 128,-1,12
 256 387 256 387 244 357 c 128,-1,13
 232 327 232 327 223 289 c 0,14,15
 218 270 218 270 214.5 251 c 128,-1,16
 211 232 211 232 209 213.5 c 128,-1,17
 207 195 207 195 207 177 c 0,18,19
 207 150 207 150 213 129.5 c 128,-1,20
 219 109 219 109 230.5 95.5 c 128,-1,21
 242 82 242 82 259 76 c 128,-1,22
 276 70 276 70 299 70 c 0,23,24
 326 70 326 70 346.5 81.5 c 128,-1,25
 367 93 367 93 383.5 118 c 128,-1,26
 400 143 400 143 413 184 c 128,-1,27
 426 225 426 225 438 283 c 0,28,29
 445 313 445 313 449.5 340.5 c 128,-1,30
 454 368 454 368 456.5 394 c 128,-1,31
 459 420 459 420 459 444 c 0,32,33
 459 494 459 494 447.5 534.5 c 128,-1,34
 436 575 436 575 410 607.5 c 128,-1,35
 384 640 384 640 339.5 667 c 128,-1,36
 295 694 295 694 230 717 c 1,37,-1
 274 784 l 1,38,39
 372 753 372 753 440.5 712 c 128,-1,40
 509 671 509 671 551 620.5 c 128,-1,41
 593 570 593 570 612 511.5 c 128,-1,42
 631 453 631 453 631 387 c 0,43,44
 631 322 631 322 618 262.5 c 128,-1,45
 605 203 605 203 578.5 153 c 128,-1,46
 552 103 552 103 512.5 65.5 c 128,-1,47
 473 28 473 28 420 7 c 128,-1,48
 367 -14 367 -14 301 -14 c 0,49,50
 216 -14 216 -14 156.5 16.5 c 128,-1,51
 97 47 97 47 65.5 101 c 128,-1,52
 34 155 34 155 34 227 c 0,53,54
 34 293 34 293 53.5 349.5 c 128,-1,55
 73 406 73 406 109.5 448 c 128,-1,56
 146 490 146 490 196.5 513.5 c 128,-1,57
 247 537 247 537 310 537 c 0,58,59
 350 537 350 537 379 527.5 c 128,-1,60
 408 518 408 518 428.5 500 c 128,-1,61
 449 482 449 482 461.5 455.5 c 128,-1,62
 474 429 474 429 481 396 c 1,4,-1
EndSplineSet
EndChar

StartChar: oslash
Encoding: 248 248 135
Width: 664
GlyphClass: 2
Flags: W
AnchorPoint: "Anchor-0" 331 551 basechar 0
LayerCount: 2
Fore
SplineSet
303 70 m 0,0,1
 332 70 332 70 353.5 81.5 c 128,-1,2
 375 93 375 93 390.5 114 c 128,-1,3
 406 135 406 135 417 162 c 128,-1,4
 428 189 428 189 437 219 c 0,5,6
 445 244 445 244 449 267.5 c 128,-1,7
 453 291 453 291 455 314.5 c 128,-1,8
 457 338 457 338 457 362 c 0,9,10
 457 397 457 397 449 420.5 c 128,-1,11
 441 444 441 444 419.5 455.5 c 128,-1,12
 398 467 398 467 360 467 c 0,13,14
 333 467 333 467 311.5 455.5 c 128,-1,15
 290 444 290 444 274.5 423 c 128,-1,16
 259 402 259 402 247.5 375 c 128,-1,17
 236 348 236 348 228 318 c 0,18,19
 221 293 221 293 216.5 269.5 c 128,-1,20
 212 246 212 246 209.5 223 c 128,-1,21
 207 200 207 200 207 175 c 0,22,23
 207 141 207 141 215.5 117 c 128,-1,24
 224 93 224 93 245 81.5 c 128,-1,25
 266 70 266 70 303 70 c 0,0,1
304 -14 m 0,26,27
 224 -14 224 -14 164 16.5 c 128,-1,28
 104 47 104 47 70.5 100.5 c 128,-1,29
 37 154 37 154 37 224 c 0,30,31
 37 274 37 274 50 322 c 128,-1,32
 63 370 63 370 89 411.5 c 128,-1,33
 115 453 115 453 153.5 484 c 128,-1,34
 192 515 192 515 244 533 c 128,-1,35
 296 551 296 551 361 551 c 0,36,37
 441 551 441 551 501 520.5 c 128,-1,38
 561 490 561 490 594.5 436.5 c 128,-1,39
 628 383 628 383 628 313 c 0,40,41
 628 262 628 262 615 214.5 c 128,-1,42
 602 167 602 167 576.5 125.5 c 128,-1,43
 551 84 551 84 512 53 c 128,-1,44
 473 22 473 22 421 4 c 128,-1,45
 369 -14 369 -14 304 -14 c 0,26,27
-39 -15 m 1,46,-1
 603 551 l 1,47,-1
 705 551 l 1,48,-1
 63 -15 l 1,49,-1
 -39 -15 l 1,46,-1
EndSplineSet
EndChar

StartChar: thorn
Encoding: 254 254 136
Width: 689
GlyphClass: 1
Flags: W
LayerCount: 2
Fore
SplineSet
322 75 m 0,0,1
 352 75 352 75 376.5 93 c 128,-1,2
 401 111 401 111 419.5 141.5 c 128,-1,3
 438 172 438 172 450.5 209 c 128,-1,4
 463 246 463 246 469.5 284.5 c 128,-1,5
 476 323 476 323 476 356 c 256,6,7
 476 389 476 389 469 410.5 c 128,-1,8
 462 432 462 432 447.5 442.5 c 128,-1,9
 433 453 433 453 409 453 c 0,10,11
 380 453 380 453 354.5 437 c 128,-1,12
 329 421 329 421 302 389 c 128,-1,13
 275 357 275 357 242 308 c 1,14,-1
 229 339 l 1,15,16
 267 405 267 405 304 452 c 128,-1,17
 341 499 341 499 383 524.5 c 128,-1,18
 425 550 425 550 478 550 c 0,19,20
 534 550 534 550 573 525.5 c 128,-1,21
 612 501 612 501 633 455.5 c 128,-1,22
 654 410 654 410 654 345 c 0,23,24
 654 292 654 292 641 240.5 c 128,-1,25
 628 189 628 189 602.5 143.5 c 128,-1,26
 577 98 577 98 540.5 62.5 c 128,-1,27
 504 27 504 27 457 7 c 128,-1,28
 410 -13 410 -13 353 -13 c 0,29,30
 294 -13 294 -13 254.5 10.5 c 128,-1,31
 215 34 215 34 193.5 74 c 128,-1,32
 172 114 172 114 164 164 c 1,33,-1
 211 187 l 1,34,35
 219 154 219 154 233 128.5 c 128,-1,36
 247 103 247 103 269 89 c 128,-1,37
 291 75 291 75 322 75 c 0,0,1
236 -223 m 1,38,-1
 -80 -223 l 1,39,-1
 -66 -157 l 1,40,-1
 -64 -157 l 2,41,42
 -37 -157 -37 -157 -19.5 -147 c 128,-1,43
 -2 -137 -2 -137 5 -107 c 2,44,-1
 166 651 l 2,45,46
 168 659 168 659 162 665 c 128,-1,47
 156 671 156 671 144 675.5 c 128,-1,48
 132 680 132 680 115 683 c 2,49,-1
 106 685 l 1,50,-1
 121 758 l 1,51,-1
 363 758 l 1,52,-1
 170 -148 l 2,53,54
 170 -150 170 -150 176 -152 c 128,-1,55
 182 -154 182 -154 191.5 -155 c 128,-1,56
 201 -156 201 -156 213 -156.5 c 128,-1,57
 225 -157 225 -157 237 -157 c 2,58,-1
 250 -157 l 1,59,-1
 236 -223 l 1,38,-1
EndSplineSet
EndChar

StartChar: dotlessi
Encoding: 679 305 137
Width: 354
GlyphClass: 2
Flags: W
AnchorPoint: "Anchor-0" 187 530 basechar 0
LayerCount: 2
Fore
SplineSet
164 -5 m 0,0,1
 129 -5 129 -5 103 6 c 128,-1,2
 77 17 77 17 62.5 38.5 c 128,-1,3
 48 60 48 60 48 91 c 0,4,5
 48 105 48 105 51 122 c 128,-1,6
 54 139 54 139 59.5 165 c 128,-1,7
 65 191 65 191 74 232 c 2,8,-1
 118 433 l 2,9,10
 120 442 120 442 114 448 c 128,-1,11
 108 454 108 454 96 458.5 c 128,-1,12
 84 463 84 463 67 466 c 2,13,-1
 57 468 l 1,14,-1
 73 540 l 1,15,-1
 315 540 l 1,16,-1
 247 222 l 2,17,18
 240 188 240 188 234.5 165.5 c 128,-1,19
 229 143 229 143 226.5 129 c 128,-1,20
 224 115 224 115 224 108 c 0,21,22
 224 96 224 96 230.5 91 c 128,-1,23
 237 86 237 86 251 86 c 0,24,25
 262 86 262 86 272 87 c 128,-1,26
 282 88 282 88 291.5 89.5 c 128,-1,27
 301 91 301 91 308 91 c 1,28,-1
 291 10 l 1,29,30
 274 6 274 6 254 3 c 128,-1,31
 234 0 234 0 211 -2.5 c 128,-1,32
 188 -5 188 -5 164 -5 c 0,0,1
EndSplineSet
EndChar

StartChar: oe
Encoding: 156 339 138
Width: 990
GlyphClass: 1
Flags: W
LayerCount: 2
Fore
SplineSet
699 -13 m 0,0,1
 642 -13 642 -13 600 6 c 128,-1,2
 558 25 558 25 530.5 58 c 128,-1,3
 503 91 503 91 489.5 132 c 128,-1,4
 476 173 476 173 476 217 c 0,5,6
 476 264 476 264 488 312 c 128,-1,7
 500 360 500 360 524 402.5 c 128,-1,8
 548 445 548 445 584 478.5 c 128,-1,9
 620 512 620 512 667.5 531.5 c 128,-1,10
 715 551 715 551 775 551 c 0,11,12
 838 551 838 551 880 531.5 c 128,-1,13
 922 512 922 512 943 480 c 128,-1,14
 964 448 964 448 964 407 c 0,15,16
 964 357 964 357 937.5 320 c 128,-1,17
 911 283 911 283 859 259.5 c 128,-1,18
 807 236 807 236 730 223.5 c 128,-1,19
 653 211 653 211 552 208 c 1,20,-1
 557 272 l 1,21,22
 627 274 627 274 676.5 282 c 128,-1,23
 726 290 726 290 757 305.5 c 128,-1,24
 788 321 788 321 802.5 345 c 128,-1,25
 817 369 817 369 817 403 c 0,26,27
 817 424 817 424 810 438.5 c 128,-1,28
 803 453 803 453 789.5 460.5 c 128,-1,29
 776 468 776 468 753 468 c 0,30,31
 721 468 721 468 694.5 449.5 c 128,-1,32
 668 431 668 431 650 397.5 c 128,-1,33
 632 364 632 364 622.5 318 c 128,-1,34
 613 272 613 272 613 218 c 0,35,36
 613 168 613 168 627 136 c 128,-1,37
 641 104 641 104 667.5 89.5 c 128,-1,38
 694 75 694 75 732 75 c 0,39,40
 767 75 767 75 793.5 88 c 128,-1,41
 820 101 820 101 841.5 122.5 c 128,-1,42
 863 144 863 144 881 170 c 1,43,-1
 939 118 l 1,44,45
 916 81 916 81 882 51.5 c 128,-1,46
 848 22 848 22 803 4.5 c 128,-1,47
 758 -13 758 -13 699 -13 c 0,0,1
358 551 m 0,48,49
 415 551 415 551 458 532.5 c 128,-1,50
 501 514 501 514 529.5 482 c 128,-1,51
 558 450 558 450 572 408 c 128,-1,52
 586 366 586 366 586 317 c 0,53,54
 586 273 586 273 576 227 c 128,-1,55
 566 181 566 181 544.5 138 c 128,-1,56
 523 95 523 95 489 61 c 128,-1,57
 455 27 455 27 406.5 6.5 c 128,-1,58
 358 -14 358 -14 294 -14 c 0,59,60
 217 -14 217 -14 158.5 14.5 c 128,-1,61
 100 43 100 43 67 95.5 c 128,-1,62
 34 148 34 148 34 222 c 0,63,64
 34 273 34 273 47 321.5 c 128,-1,65
 60 370 60 370 86 411.5 c 128,-1,66
 112 453 112 453 150.5 484 c 128,-1,67
 189 515 189 515 241 533 c 128,-1,68
 293 551 293 551 358 551 c 0,48,49
231 318 m 0,69,70
 225 293 225 293 220 268.5 c 128,-1,71
 215 244 215 244 212.5 220.5 c 128,-1,72
 210 197 210 197 210 175 c 0,73,74
 210 142 210 142 219.5 118.5 c 128,-1,75
 229 95 229 95 249 82.5 c 128,-1,76
 269 70 269 70 301 70 c 0,77,78
 326 70 326 70 346 81.5 c 128,-1,79
 366 93 366 93 381 114 c 128,-1,80
 396 135 396 135 407 162 c 128,-1,81
 418 189 418 189 426 219 c 0,82,83
 434 244 434 244 438.5 268.5 c 128,-1,84
 443 293 443 293 445.5 317 c 128,-1,85
 448 341 448 341 448 362 c 0,86,87
 448 395 448 395 438.5 418.5 c 128,-1,88
 429 442 429 442 409.5 454.5 c 128,-1,89
 390 467 390 467 357 467 c 0,90,91
 332 467 332 467 312 455.5 c 128,-1,92
 292 444 292 444 277 423 c 128,-1,93
 262 402 262 402 251 375 c 128,-1,94
 240 348 240 348 231 318 c 0,69,70
EndSplineSet
EndChar

StartChar: dotlessj
Encoding: 689 567 139
Width: 357
GlyphClass: 2
Flags: W
AnchorPoint: "Anchor-0" 180 521 basechar 0
LayerCount: 2
Fore
SplineSet
-171 -220 m 1,0,-1
 -151 -138 l 1,1,2
 -139 -143 -139 -143 -116 -150.5 c 128,-1,3
 -93 -158 -93 -158 -66 -158 c 0,4,5
 -37 -158 -37 -158 -18 -146 c 128,-1,6
 1 -134 1 -134 14.5 -105.5 c 128,-1,7
 28 -77 28 -77 37 -31 c 2,8,-1
 138 431 l 2,9,10
 140 440 140 440 134 446.5 c 128,-1,11
 128 453 128 453 115.5 457 c 128,-1,12
 103 461 103 461 86 464 c 2,13,-1
 74 466 l 1,14,-1
 90 540 l 1,15,-1
 335 540 l 1,16,-1
 211 -36 l 2,17,18
 195 -113 195 -113 162.5 -158.5 c 128,-1,19
 130 -204 130 -204 81 -223.5 c 128,-1,20
 32 -243 32 -243 -34 -243 c 0,21,22
 -67 -243 -67 -243 -94.5 -239.5 c 128,-1,23
 -122 -236 -122 -236 -141 -230.5 c 128,-1,24
 -160 -225 -160 -225 -171 -220 c 1,0,-1
EndSplineSet
EndChar

StartChar: mu
Encoding: 693 956 140
Width: 728
GlyphClass: 1
Flags: W
LayerCount: 2
Fore
SplineSet
214 -12 m 256,0,1
 184 -12 184 -12 162.5 -3 c 128,-1,2
 141 6 141 6 127 24.5 c 128,-1,3
 113 43 113 43 106 70 c 128,-1,4
 99 97 99 97 98 134 c 1,5,-1
 112 160 l 1,6,7
 105 103 105 103 108 57.5 c 128,-1,8
 111 12 111 12 119 -26.5 c 128,-1,9
 127 -65 127 -65 134.5 -100.5 c 128,-1,10
 142 -136 142 -136 144.5 -172.5 c 128,-1,11
 147 -209 147 -209 138 -250 c 1,12,-1
 -37 -250 l 1,13,-1
 139 540 l 1,14,-1
 313 540 l 1,15,-1
 238 197 l 2,16,17
 234 177 234 177 231 162.5 c 128,-1,18
 228 148 228 148 228 135 c 0,19,20
 228 115 228 115 239 103 c 128,-1,21
 250 91 250 91 273 91 c 0,22,23
 290 91 290 91 308 100.5 c 128,-1,24
 326 110 326 110 345 128 c 128,-1,25
 364 146 364 146 384.5 171.5 c 128,-1,26
 405 197 405 197 427 228 c 1,27,-1
 429 174 l 1,28,29
 404 136 404 136 378.5 102 c 128,-1,30
 353 68 353 68 326.5 42.5 c 128,-1,31
 300 17 300 17 272 2.5 c 128,-1,32
 244 -12 244 -12 214 -12 c 256,0,1
530 -10 m 0,33,34
 483 -10 483 -10 452 4.5 c 128,-1,35
 421 19 421 19 406.5 47 c 128,-1,36
 392 75 392 75 394 116 c 0,37,38
 394 123 394 123 394.5 129.5 c 128,-1,39
 395 136 395 136 396 142.5 c 128,-1,40
 397 149 397 149 398 153 c 1,41,-1
 389 146 l 1,42,-1
 474 540 l 1,43,-1
 650 540 l 1,44,-1
 570 169 l 2,45,46
 566 154 566 154 563.5 143 c 128,-1,47
 561 132 561 132 559.5 125 c 128,-1,48
 558 118 558 118 558 111 c 0,49,50
 558 98 558 98 565.5 92 c 128,-1,51
 573 86 573 86 586 86 c 0,52,53
 600 86 600 86 610 93 c 128,-1,54
 620 100 620 100 629.5 113.5 c 128,-1,55
 639 127 639 127 649 146 c 1,56,-1
 707 111 l 1,57,58
 688 75 688 75 663.5 47.5 c 128,-1,59
 639 20 639 20 606.5 5 c 128,-1,60
 574 -10 574 -10 530 -10 c 0,33,34
EndSplineSet
EndChar

StartChar: ereversedcyr
Encoding: 740 1101 141
Width: 603
GlyphClass: 2
Flags: W
AnchorPoint: "Anchor-1" 265 0 basechar 0
AnchorPoint: "Anchor-0" 278 551 basechar 0
LayerCount: 2
Fore
SplineSet
463 318 m 1,0,-1
 449 240 l 1,1,-1
 198 240 l 1,2,-1
 214 318 l 1,3,-1
 463 318 l 1,0,-1
286 469 m 0,4,5
 251 469 251 469 224 457 c 128,-1,6
 197 445 197 445 177 424 c 128,-1,7
 157 403 157 403 140 377 c 1,8,-1
 75 421 l 1,9,10
 99 461 99 461 132 489.5 c 128,-1,11
 165 518 165 518 210 533.5 c 128,-1,12
 255 549 255 549 313 549 c 0,13,14
 372 549 372 549 418.5 533.5 c 128,-1,15
 465 518 465 518 499 487.5 c 128,-1,16
 533 457 533 457 551 413 c 128,-1,17
 569 369 569 369 569 313 c 0,18,19
 569 242 569 242 547.5 182.5 c 128,-1,20
 526 123 526 123 485.5 79.5 c 128,-1,21
 445 36 445 36 385 12 c 128,-1,22
 325 -12 325 -12 249 -12 c 0,23,24
 192 -12 192 -12 146.5 -3 c 128,-1,25
 101 6 101 6 68.5 20.5 c 128,-1,26
 36 35 36 35 17 49 c 1,27,-1
 45 168 l 1,28,-1
 176 168 l 1,29,-1
 148 47 l 1,30,31
 138 47 138 47 130.5 54.5 c 128,-1,32
 123 62 123 62 119 73.5 c 128,-1,33
 115 85 115 85 114.5 96.5 c 128,-1,34
 114 108 114 108 117 117 c 1,35,36
 125 103 125 103 139.5 91 c 128,-1,37
 154 79 154 79 176.5 72 c 128,-1,38
 199 65 199 65 229 65 c 0,39,40
 262 65 262 65 288 80 c 128,-1,41
 314 95 314 95 333 121 c 128,-1,42
 352 147 352 147 364.5 181.5 c 128,-1,43
 377 216 377 216 383 257.5 c 128,-1,44
 389 299 389 299 389 344 c 0,45,46
 389 385 389 385 378 413 c 128,-1,47
 367 441 367 441 344.5 455 c 128,-1,48
 322 469 322 469 286 469 c 0,4,5
EndSplineSet
EndChar

StartChar: ordfeminine
Encoding: 170 170 142
Width: 604
GlyphClass: 1
Flags: W
LayerCount: 2
Fore
SplineSet
430 306 m 0,0,1
 389 306 389 306 365 324 c 128,-1,2
 341 342 341 342 341 378 c 0,3,4
 341 385 341 385 342 395.5 c 128,-1,5
 343 406 343 406 344 419 c 1,6,-1
 336 412 l 1,7,-1
 381 627 l 1,8,-1
 388 634 l 1,9,-1
 452 720 l 1,10,-1
 546 720 l 1,11,-1
 495 479 l 2,12,13
 490 454 490 454 486 437.5 c 128,-1,14
 482 421 482 421 480 411.5 c 128,-1,15
 478 402 478 402 478 395 c 0,16,17
 478 386 478 386 483.5 382 c 128,-1,18
 489 378 489 378 499 378 c 0,19,20
 511 378 511 378 522.5 380 c 128,-1,21
 534 382 534 382 542 383 c 1,22,-1
 530 317 l 1,23,24
 517 315 517 315 501 312 c 128,-1,25
 485 309 485 309 467 307.5 c 128,-1,26
 449 306 449 306 430 306 c 0,0,1
205 300 m 0,27,28
 162 300 162 300 131.5 318.5 c 128,-1,29
 101 337 101 337 85.5 371 c 128,-1,30
 70 405 70 405 70 452 c 0,31,32
 70 502 70 502 86 550.5 c 128,-1,33
 102 599 102 599 131.5 638.5 c 128,-1,34
 161 678 161 678 203.5 701.5 c 128,-1,35
 246 725 246 725 298 725 c 0,36,37
 346 725 346 725 375 704.5 c 128,-1,38
 404 684 404 684 418.5 648.5 c 128,-1,39
 433 613 433 613 436 567 c 1,40,-1
 389 556 l 1,41,42
 385 583 385 583 377.5 604.5 c 128,-1,43
 370 626 370 626 357 637.5 c 128,-1,44
 344 649 344 649 323 649 c 0,45,46
 297 649 297 649 277.5 629.5 c 128,-1,47
 258 610 258 610 244.5 578.5 c 128,-1,48
 231 547 231 547 224 512.5 c 128,-1,49
 217 478 217 478 217 449 c 0,50,51
 217 427 217 427 221 411.5 c 128,-1,52
 225 396 225 396 235 389 c 128,-1,53
 245 382 245 382 260 382 c 0,54,55
 279 382 279 382 295 394 c 128,-1,56
 311 406 311 406 328 431 c 128,-1,57
 345 456 345 456 366 493 c 1,58,-1
 383 459 l 1,59,60
 355 409 355 409 329 373.5 c 128,-1,61
 303 338 303 338 273.5 319 c 128,-1,62
 244 300 244 300 205 300 c 0,27,28
EndSplineSet
EndChar

StartChar: ordmasculine
Encoding: 186 186 143
Width: 573
GlyphClass: 1
Flags: W
LayerCount: 2
Fore
SplineSet
287 300 m 0,0,1
 226 300 226 300 179 321.5 c 128,-1,2
 132 343 132 343 106 383 c 128,-1,3
 80 423 80 423 80 479 c 0,4,5
 80 528 80 528 95.5 572.5 c 128,-1,6
 111 617 111 617 142.5 651.5 c 128,-1,7
 174 686 174 686 221.5 705.5 c 128,-1,8
 269 725 269 725 333 725 c 0,9,10
 395 725 395 725 441.5 703.5 c 128,-1,11
 488 682 488 682 514 642.5 c 128,-1,12
 540 603 540 603 540 546 c 0,13,14
 540 497 540 497 524.5 452.5 c 128,-1,15
 509 408 509 408 477.5 373.5 c 128,-1,16
 446 339 446 339 398.5 319.5 c 128,-1,17
 351 300 351 300 287 300 c 0,0,1
331 654 m 0,18,19
 313 654 313 654 298.5 646 c 128,-1,20
 284 638 284 638 272.5 623.5 c 128,-1,21
 261 609 261 609 253 588.5 c 128,-1,22
 245 568 245 568 238 542 c 0,23,24
 234 525 234 525 230.5 508 c 128,-1,25
 227 491 227 491 225.5 476 c 128,-1,26
 224 461 224 461 224 446 c 0,27,28
 224 423 224 423 231 406 c 128,-1,29
 238 389 238 389 252.5 380 c 128,-1,30
 267 371 267 371 289 371 c 0,31,32
 308 371 308 371 322.5 379 c 128,-1,33
 337 387 337 387 348 401.5 c 128,-1,34
 359 416 359 416 367 437 c 128,-1,35
 375 458 375 458 382 483 c 0,36,37
 387 501 387 501 390 517 c 128,-1,38
 393 533 393 533 395 549 c 128,-1,39
 397 565 397 565 397 579 c 0,40,41
 397 602 397 602 390 619 c 128,-1,42
 383 636 383 636 368.5 645 c 128,-1,43
 354 654 354 654 331 654 c 0,18,19
EndSplineSet
EndChar

StartChar: arrowright
Encoding: 785 34196 144
Width: 790
GlyphClass: 1
Flags: W
LayerCount: 2
Fore
SplineSet
341 587 m 1,0,-1
 730 367 l 1,1,-1
 730 340 l 1,2,-1
 341 119 l 1,3,-1
 322 145 l 1,4,-1
 489 317 l 1,5,-1
 60 317 l 1,6,-1
 60 389 l 1,7,-1
 489 389 l 1,8,-1
 322 561 l 1,9,-1
 341 587 l 1,0,-1
EndSplineSet
EndChar

StartChar: zero
Encoding: 48 48 145
Width: 560
GlyphClass: 1
Flags: W
LayerCount: 2
Fore
SplineSet
234 -11 m 0,0,1
 195 -11 195 -11 161.5 -0.5 c 128,-1,2
 128 10 128 10 101.5 31 c 128,-1,3
 75 52 75 52 57 81.5 c 128,-1,4
 39 111 39 111 29.5 149 c 128,-1,5
 20 187 20 187 20 232 c 0,6,7
 20 286 20 286 31.5 344 c 128,-1,8
 43 402 43 402 66.5 457.5 c 128,-1,9
 90 513 90 513 126 557 c 128,-1,10
 162 601 162 601 212.5 627.5 c 128,-1,11
 263 654 263 654 328 654 c 0,12,13
 368 654 368 654 401 643.5 c 128,-1,14
 434 633 434 633 460 612 c 128,-1,15
 486 591 486 591 504.5 561.5 c 128,-1,16
 523 532 523 532 532 494 c 128,-1,17
 541 456 541 456 541 411 c 0,18,19
 541 357 541 357 530 299 c 128,-1,20
 519 241 519 241 495.5 185.5 c 128,-1,21
 472 130 472 130 436 86 c 128,-1,22
 400 42 400 42 349.5 15.5 c 128,-1,23
 299 -11 299 -11 234 -11 c 0,0,1
234 69 m 0,24,25
 257 69 257 69 275 82.5 c 128,-1,26
 293 96 293 96 308.5 125.5 c 128,-1,27
 324 155 324 155 337.5 201.5 c 128,-1,28
 351 248 351 248 365 315 c 0,29,30
 374 356 374 356 379.5 388 c 128,-1,31
 385 420 385 420 387.5 444.5 c 128,-1,32
 390 469 390 469 390 487 c 0,33,34
 390 516 390 516 383.5 535.5 c 128,-1,35
 377 555 377 555 363.5 564.5 c 128,-1,36
 350 574 350 574 327 574 c 0,37,38
 305 574 305 574 287 560.5 c 128,-1,39
 269 547 269 547 253.5 517.5 c 128,-1,40
 238 488 238 488 224.5 441.5 c 128,-1,41
 211 395 211 395 197 328 c 0,42,43
 188 287 188 287 182.5 255 c 128,-1,44
 177 223 177 223 174 198.5 c 128,-1,45
 171 174 171 174 171 156 c 0,46,47
 171 128 171 128 178 108 c 128,-1,48
 185 88 185 88 198.5 78.5 c 128,-1,49
 212 69 212 69 234 69 c 0,24,25
EndSplineSet
Substitution2: "'zero' Slashed Zero in Latin lookup 63 subtable" zero.slash
Substitution2: "'pnum' Proportional Numbers in Latin lookup 55 subtable" zero.midprop
Substitution2: "'lnum' Lining Figures in Latin lookup 54 subtable" zero.lintab
Substitution2: "'onum' Oldstyle Figures in Latin lookup 53 subtable" zero.oldtab
Substitution2: "'sinf' Scientific Inferiors in Latin lookup 52 subtable" zero.sub
Substitution2: "'subs' Subscript in Latin lookup 51 subtable" zero.sub
Substitution2: "'sups' Superscript in Latin lookup 50 subtable" zero.sup
Substitution2: "'numr' Numerators in Latin lookup 49 subtable" zero.num
Substitution2: "'dnom' Denominators in Latin lookup 48 subtable" zero.den
Substitution2: "Single Substitution lookup 35 subtable" zero.den
Substitution2: "Single Substitution lookup 33 subtable" zero.num
Substitution2: "Single Substitution lookup 31 subtable" zero.num
Substitution2: "Single Substitution lookup 29 subtable" zero.num
Substitution2: "Single Substitution lookup 27 subtable" zero.num
Substitution2: "Single Substitution lookup 25 subtable" zero.num
Substitution2: "Single Substitution lookup 23 subtable" zero.num
Substitution2: "Single Substitution lookup 21 subtable" zero.num
Substitution2: "Single Substitution lookup 19 subtable" zero.num
Substitution2: "Single Substitution lookup 17 subtable" zero.num
Substitution2: "Single Substitution lookup 15 subtable" zero.num
EndChar

StartChar: one
Encoding: 49 49 146
Width: 560
GlyphClass: 1
Flags: W
LayerCount: 2
Fore
SplineSet
356 112 m 2,0,1
 352 95 352 95 363 86 c 128,-1,2
 374 77 374 77 397.5 73.5 c 128,-1,3
 421 70 421 70 454 70 c 2,4,-1
 481 70 l 1,5,-1
 465 0 l 1,6,-1
 13 0 l 1,7,-1
 29 70 l 1,8,-1
 69 70 l 2,9,10
 100 70 100 70 124.5 73.5 c 128,-1,11
 149 77 149 77 164.5 86 c 128,-1,12
 180 95 180 95 183 112 c 2,13,-1
 280 559 l 1,14,-1
 300 568 l 1,15,16
 279 525 279 525 248.5 499.5 c 128,-1,17
 218 474 218 474 178 463.5 c 128,-1,18
 138 453 138 453 89 454 c 1,19,-1
 112 559 l 1,20,21
 153 559 153 559 186 564.5 c 128,-1,22
 219 570 219 570 244.5 580.5 c 128,-1,23
 270 591 270 591 291 606 c 128,-1,24
 312 621 312 621 329 642 c 1,25,-1
 470 642 l 1,26,-1
 356 112 l 2,0,1
EndSplineSet
Substitution2: "'pnum' Proportional Numbers in Latin lookup 55 subtable" one.midprop
Substitution2: "'lnum' Lining Figures in Latin lookup 54 subtable" one.lintab
Substitution2: "'onum' Oldstyle Figures in Latin lookup 53 subtable" one.oldtab
Substitution2: "'sinf' Scientific Inferiors in Latin lookup 52 subtable" one.sub
Substitution2: "'subs' Subscript in Latin lookup 51 subtable" one.sub
Substitution2: "'sups' Superscript in Latin lookup 50 subtable" one.sup
Substitution2: "'numr' Numerators in Latin lookup 49 subtable" one.num
Substitution2: "'dnom' Denominators in Latin lookup 48 subtable" one.den
Substitution2: "Single Substitution lookup 35 subtable" one.den
Substitution2: "Single Substitution lookup 33 subtable" one.num
Substitution2: "Single Substitution lookup 31 subtable" one.num
Substitution2: "Single Substitution lookup 29 subtable" one.num
Substitution2: "Single Substitution lookup 27 subtable" one.num
Substitution2: "Single Substitution lookup 25 subtable" one.num
Substitution2: "Single Substitution lookup 23 subtable" one.num
Substitution2: "Single Substitution lookup 21 subtable" one.num
Substitution2: "Single Substitution lookup 19 subtable" one.num
Substitution2: "Single Substitution lookup 17 subtable" one.num
Substitution2: "Single Substitution lookup 15 subtable" one.num
EndChar

StartChar: two
Encoding: 50 50 147
Width: 560
GlyphClass: 1
Flags: W
LayerCount: 2
Fore
SplineSet
-28 0 m 1,0,-1
 458 0 l 1,1,-1
 505 227 l 1,2,-1
 427 227 l 1,3,-1
 404 161 l 2,4,5
 398 144 398 144 384.5 135.5 c 128,-1,6
 371 127 371 127 346.5 124 c 128,-1,7
 322 121 322 121 283 121 c 2,8,-1
 47 121 l 1,9,-1
 49 103 l 1,10,11
 132 139 132 139 205.5 172 c 128,-1,12
 279 205 279 205 339 238 c 128,-1,13
 399 271 399 271 442.5 308 c 128,-1,14
 486 345 486 345 509.5 389 c 128,-1,15
 533 433 533 433 533 487 c 256,16,17
 533 541 533 541 508 578 c 128,-1,18
 483 615 483 615 433 634 c 128,-1,19
 383 653 383 653 307 653 c 0,20,21
 260 653 260 653 219.5 644 c 128,-1,22
 179 635 179 635 148 621 c 128,-1,23
 117 607 117 607 97 595 c 1,24,-1
 62 435 l 1,25,-1
 196 435 l 1,26,-1
 228 583 l 1,27,28
 216 582 216 582 205 577 c 128,-1,29
 194 572 194 572 186 563.5 c 128,-1,30
 178 555 178 555 174 545.5 c 128,-1,31
 170 536 170 536 171 528 c 1,32,33
 183 539 183 539 201 549.5 c 128,-1,34
 219 560 219 560 241 566.5 c 128,-1,35
 263 573 263 573 286 573 c 0,36,37
 313 573 313 573 330 565 c 128,-1,38
 347 557 347 557 355.5 540 c 128,-1,39
 364 523 364 523 364 497 c 0,40,41
 364 460 364 460 351.5 426 c 128,-1,42
 339 392 339 392 312.5 359 c 128,-1,43
 286 326 286 326 243.5 292.5 c 128,-1,44
 201 259 201 259 141.5 223 c 128,-1,45
 82 187 82 187 3 147 c 1,46,-1
 -28 0 l 1,0,-1
EndSplineSet
Substitution2: "'pnum' Proportional Numbers in Latin lookup 55 subtable" two.midprop
Substitution2: "'lnum' Lining Figures in Latin lookup 54 subtable" two.lintab
Substitution2: "'onum' Oldstyle Figures in Latin lookup 53 subtable" two.oldtab
Substitution2: "'sinf' Scientific Inferiors in Latin lookup 52 subtable" two.sub
Substitution2: "'subs' Subscript in Latin lookup 51 subtable" two.sub
Substitution2: "'sups' Superscript in Latin lookup 50 subtable" two.sup
Substitution2: "'numr' Numerators in Latin lookup 49 subtable" two.num
Substitution2: "'dnom' Denominators in Latin lookup 48 subtable" two.den
Substitution2: "Single Substitution lookup 35 subtable" two.den
Substitution2: "Single Substitution lookup 33 subtable" two.num
Substitution2: "Single Substitution lookup 31 subtable" two.num
Substitution2: "Single Substitution lookup 29 subtable" two.num
Substitution2: "Single Substitution lookup 27 subtable" two.num
Substitution2: "Single Substitution lookup 25 subtable" two.num
Substitution2: "Single Substitution lookup 23 subtable" two.num
Substitution2: "Single Substitution lookup 21 subtable" two.num
Substitution2: "Single Substitution lookup 19 subtable" two.num
Substitution2: "Single Substitution lookup 17 subtable" two.num
Substitution2: "Single Substitution lookup 15 subtable" two.num
EndChar

StartChar: three
Encoding: 51 51 148
Width: 560
GlyphClass: 1
Flags: W
LayerCount: 2
Fore
SplineSet
226 -74 m 0,0,1
 309 -74 309 -74 370 -49 c 128,-1,2
 431 -24 431 -24 464 23 c 128,-1,3
 497 70 497 70 497 137 c 0,4,5
 497 174 497 174 484 203.5 c 128,-1,6
 471 233 471 233 442.5 256 c 128,-1,7
 414 279 414 279 370 293 c 128,-1,8
 326 307 326 307 264 311 c 1,9,-1
 324 291 l 1,10,-1
 330 317 l 1,11,-1
 281 303 l 1,12,13
 341 304 341 304 388.5 316.5 c 128,-1,14
 436 329 436 329 469 353 c 128,-1,15
 502 377 502 377 519 412 c 128,-1,16
 536 447 536 447 536 492 c 0,17,18
 536 545 536 545 510 580.5 c 128,-1,19
 484 616 484 616 434 634.5 c 128,-1,20
 384 653 384 653 312 653 c 0,21,22
 266 653 266 653 228 645 c 128,-1,23
 190 637 190 637 160.5 625 c 128,-1,24
 131 613 131 613 111 601 c 1,25,-1
 81 453 l 1,26,-1
 210 453 l 1,27,-1
 236 581 l 1,28,29
 224 581 224 581 215.5 576.5 c 128,-1,30
 207 572 207 572 201 565 c 128,-1,31
 195 558 195 558 192.5 550.5 c 128,-1,32
 190 543 190 543 189 537 c 1,33,34
 200 547 200 547 215.5 555.5 c 128,-1,35
 231 564 231 564 250.5 569 c 128,-1,36
 270 574 270 574 293 574 c 0,37,38
 323 574 323 574 342 565 c 128,-1,39
 361 556 361 556 370.5 537.5 c 128,-1,40
 380 519 380 519 380 491 c 0,41,42
 380 464 380 464 372.5 438 c 128,-1,43
 365 412 365 412 348.5 391 c 128,-1,44
 332 370 332 370 304.5 358 c 128,-1,45
 277 346 277 346 237 346 c 2,46,-1
 162 346 l 1,47,-1
 145 264 l 1,48,-1
 211 264 l 2,49,50
 257 264 257 264 283.5 250 c 128,-1,51
 310 236 310 236 321.5 212 c 128,-1,52
 333 188 333 188 333 156 c 0,53,54
 333 116 333 116 321.5 82.5 c 128,-1,55
 310 49 310 49 283.5 28.5 c 128,-1,56
 257 8 257 8 213 8 c 0,57,58
 166 8 166 8 136.5 27.5 c 128,-1,59
 107 47 107 47 90 78 c 128,-1,60
 73 109 73 109 64 143 c 1,61,-1
 -23 106 l 1,62,63
 -10 53 -10 53 19 12.5 c 128,-1,64
 48 -28 48 -28 98 -51 c 128,-1,65
 148 -74 148 -74 226 -74 c 0,0,1
EndSplineSet
Substitution2: "'pnum' Proportional Numbers in Latin lookup 55 subtable" three.midprop
Substitution2: "'lnum' Lining Figures in Latin lookup 54 subtable" three.lintab
Substitution2: "'onum' Oldstyle Figures in Latin lookup 53 subtable" three.oldtab
Substitution2: "'sinf' Scientific Inferiors in Latin lookup 52 subtable" three.sub
Substitution2: "'subs' Subscript in Latin lookup 51 subtable" three.sub
Substitution2: "'sups' Superscript in Latin lookup 50 subtable" three.sup
Substitution2: "'numr' Numerators in Latin lookup 49 subtable" three.num
Substitution2: "'dnom' Denominators in Latin lookup 48 subtable" three.den
Substitution2: "Single Substitution lookup 35 subtable" three.den
Substitution2: "Single Substitution lookup 33 subtable" three.num
Substitution2: "Single Substitution lookup 31 subtable" three.num
Substitution2: "Single Substitution lookup 29 subtable" three.num
Substitution2: "Single Substitution lookup 27 subtable" three.num
Substitution2: "Single Substitution lookup 25 subtable" three.num
Substitution2: "Single Substitution lookup 23 subtable" three.num
Substitution2: "Single Substitution lookup 21 subtable" three.num
Substitution2: "Single Substitution lookup 19 subtable" three.num
Substitution2: "Single Substitution lookup 17 subtable" three.num
Substitution2: "Single Substitution lookup 15 subtable" three.num
EndChar

StartChar: four
Encoding: 52 52 149
Width: 560
GlyphClass: 1
Flags: W
LayerCount: 2
Fore
SplineSet
-10 107 m 1,0,-1
 17 234 l 1,1,-1
 338 638 l 1,2,-1
 408 638 l 1,3,-1
 385 583 l 1,4,-1
 55 162 l 1,5,-1
 74 223 l 1,6,-1
 534 223 l 1,7,-1
 509 107 l 1,8,-1
 -10 107 l 1,0,-1
389 -63 m 1,9,-1
 226 -63 l 1,10,-1
 366 592 l 1,11,-1
 379 638 l 1,12,-1
 538 638 l 1,13,-1
 389 -63 l 1,9,-1
EndSplineSet
Substitution2: "'pnum' Proportional Numbers in Latin lookup 55 subtable" four.midprop
Substitution2: "'lnum' Lining Figures in Latin lookup 54 subtable" four.lintab
Substitution2: "'onum' Oldstyle Figures in Latin lookup 53 subtable" four.oldtab
Substitution2: "'sinf' Scientific Inferiors in Latin lookup 52 subtable" four.sub
Substitution2: "'subs' Subscript in Latin lookup 51 subtable" four.sub
Substitution2: "'sups' Superscript in Latin lookup 50 subtable" four.sup
Substitution2: "'numr' Numerators in Latin lookup 49 subtable" four.num
Substitution2: "'dnom' Denominators in Latin lookup 48 subtable" four.den
Substitution2: "Single Substitution lookup 35 subtable" four.den
Substitution2: "Single Substitution lookup 33 subtable" four.num
Substitution2: "Single Substitution lookup 31 subtable" four.num
Substitution2: "Single Substitution lookup 29 subtable" four.num
Substitution2: "Single Substitution lookup 27 subtable" four.num
Substitution2: "Single Substitution lookup 25 subtable" four.num
Substitution2: "Single Substitution lookup 23 subtable" four.num
Substitution2: "Single Substitution lookup 21 subtable" four.num
Substitution2: "Single Substitution lookup 19 subtable" four.num
Substitution2: "Single Substitution lookup 17 subtable" four.num
Substitution2: "Single Substitution lookup 15 subtable" four.num
EndChar

StartChar: five
Encoding: 53 53 150
Width: 560
GlyphClass: 1
Flags: W
LayerCount: 2
Fore
SplineSet
224 -74 m 0,0,1
 149 -74 149 -74 100 -51 c 128,-1,2
 51 -28 51 -28 23 11.5 c 128,-1,3
 -5 51 -5 51 -17 101 c 1,4,-1
 73 135 l 1,5,6
 79 114 79 114 88 92.5 c 128,-1,7
 97 71 97 71 112 52 c 128,-1,8
 127 33 127 33 150.5 22 c 128,-1,9
 174 11 174 11 209 11 c 0,10,11
 245 11 245 11 270.5 30 c 128,-1,12
 296 49 296 49 311.5 79.5 c 128,-1,13
 327 110 327 110 334.5 146 c 128,-1,14
 342 182 342 182 342 215 c 0,15,16
 342 245 342 245 333 267 c 128,-1,17
 324 289 324 289 306 301.5 c 128,-1,18
 288 314 288 314 258 314 c 0,19,20
 233 314 233 314 212.5 305 c 128,-1,21
 192 296 192 296 175.5 279 c 128,-1,22
 159 262 159 262 146 238 c 1,23,-1
 68 238 l 1,24,-1
 154 642 l 1,25,-1
 543 642 l 1,26,-1
 499 516 l 1,27,-1
 192 516 l 1,28,-1
 236 622 l 1,29,-1
 167 299 l 1,30,-1
 141 288 l 1,31,32
 160 321 160 321 184.5 345 c 128,-1,33
 209 369 209 369 241.5 382.5 c 128,-1,34
 274 396 274 396 318 396 c 0,35,36
 377 396 377 396 419 372.5 c 128,-1,37
 461 349 461 349 484.5 307 c 128,-1,38
 508 265 508 265 508 207 c 0,39,40
 508 147 508 147 489.5 96 c 128,-1,41
 471 45 471 45 435 7 c 128,-1,42
 399 -31 399 -31 346.5 -52.5 c 128,-1,43
 294 -74 294 -74 224 -74 c 0,0,1
EndSplineSet
Substitution2: "'pnum' Proportional Numbers in Latin lookup 55 subtable" five.midprop
Substitution2: "'lnum' Lining Figures in Latin lookup 54 subtable" five.lintab
Substitution2: "'onum' Oldstyle Figures in Latin lookup 53 subtable" five.oldtab
Substitution2: "'sinf' Scientific Inferiors in Latin lookup 52 subtable" five.sub
Substitution2: "'subs' Subscript in Latin lookup 51 subtable" five.sub
Substitution2: "'sups' Superscript in Latin lookup 50 subtable" five.sup
Substitution2: "'numr' Numerators in Latin lookup 49 subtable" five.num
Substitution2: "'dnom' Denominators in Latin lookup 48 subtable" five.den
Substitution2: "Single Substitution lookup 35 subtable" five.den
Substitution2: "Single Substitution lookup 33 subtable" five.num
Substitution2: "Single Substitution lookup 31 subtable" five.num
Substitution2: "Single Substitution lookup 29 subtable" five.num
Substitution2: "Single Substitution lookup 27 subtable" five.num
Substitution2: "Single Substitution lookup 25 subtable" five.num
Substitution2: "Single Substitution lookup 23 subtable" five.num
Substitution2: "Single Substitution lookup 21 subtable" five.num
Substitution2: "Single Substitution lookup 19 subtable" five.num
Substitution2: "Single Substitution lookup 17 subtable" five.num
Substitution2: "Single Substitution lookup 15 subtable" five.num
EndChar

StartChar: six
Encoding: 54 54 151
Width: 560
GlyphClass: 1
Flags: W
LayerCount: 2
Fore
SplineSet
259 -10 m 0,0,1
 204 -10 204 -10 160 5.5 c 128,-1,2
 116 21 116 21 85.5 51 c 128,-1,3
 55 81 55 81 39 125.5 c 128,-1,4
 23 170 23 170 23 228 c 0,5,6
 23 299 23 299 43.5 370 c 128,-1,7
 64 441 64 441 106 505.5 c 128,-1,8
 148 570 148 570 211.5 621.5 c 128,-1,9
 275 673 275 673 361.5 705 c 128,-1,10
 448 737 448 737 557 743 c 1,11,-1
 554 661 l 1,12,13
 481 654 481 654 424.5 631 c 128,-1,14
 368 608 368 608 325 568 c 128,-1,15
 282 528 282 528 252 471 c 128,-1,16
 222 414 222 414 204 339 c 0,17,18
 197 312 197 312 192 287.5 c 128,-1,19
 187 263 187 263 184 241 c 128,-1,20
 181 219 181 219 180 200 c 128,-1,21
 179 181 179 181 179 165 c 0,22,23
 179 134 179 134 187 112 c 128,-1,24
 195 90 195 90 211.5 79 c 128,-1,25
 228 68 228 68 252 68 c 256,26,27
 276 68 276 68 294.5 83 c 128,-1,28
 313 98 313 98 326.5 127.5 c 128,-1,29
 340 157 340 157 349 198 c 0,30,31
 354 218 354 218 357 237 c 128,-1,32
 360 256 360 256 362 273.5 c 128,-1,33
 364 291 364 291 364 305 c 0,34,35
 364 330 364 330 356.5 347.5 c 128,-1,36
 349 365 349 365 335 374.5 c 128,-1,37
 321 384 321 384 301 384 c 0,38,39
 278 384 278 384 256.5 373 c 128,-1,40
 235 362 235 362 213.5 339 c 128,-1,41
 192 316 192 316 169 279 c 1,42,-1
 171 322 l 1,43,44
 193 361 193 361 221.5 393 c 128,-1,45
 250 425 250 425 287 443.5 c 128,-1,46
 324 462 324 462 370 462 c 0,47,48
 418 462 418 462 453.5 442 c 128,-1,49
 489 422 489 422 508.5 384 c 128,-1,50
 528 346 528 346 528 291 c 0,51,52
 528 229 528 229 510.5 174.5 c 128,-1,53
 493 120 493 120 458.5 78.5 c 128,-1,54
 424 37 424 37 374 13.5 c 128,-1,55
 324 -10 324 -10 259 -10 c 0,0,1
EndSplineSet
Substitution2: "'pnum' Proportional Numbers in Latin lookup 55 subtable" six.midprop
Substitution2: "'lnum' Lining Figures in Latin lookup 54 subtable" six.lintab
Substitution2: "'onum' Oldstyle Figures in Latin lookup 53 subtable" six.oldtab
Substitution2: "'sinf' Scientific Inferiors in Latin lookup 52 subtable" six.sub
Substitution2: "'subs' Subscript in Latin lookup 51 subtable" six.sub
Substitution2: "'sups' Superscript in Latin lookup 50 subtable" six.sup
Substitution2: "'numr' Numerators in Latin lookup 49 subtable" six.num
Substitution2: "'dnom' Denominators in Latin lookup 48 subtable" six.den
Substitution2: "Single Substitution lookup 35 subtable" six.den
Substitution2: "Single Substitution lookup 33 subtable" six.num
Substitution2: "Single Substitution lookup 31 subtable" six.num
Substitution2: "Single Substitution lookup 29 subtable" six.num
Substitution2: "Single Substitution lookup 27 subtable" six.num
Substitution2: "Single Substitution lookup 25 subtable" six.num
Substitution2: "Single Substitution lookup 23 subtable" six.num
Substitution2: "Single Substitution lookup 21 subtable" six.num
Substitution2: "Single Substitution lookup 19 subtable" six.num
Substitution2: "Single Substitution lookup 17 subtable" six.num
Substitution2: "Single Substitution lookup 15 subtable" six.num
EndChar

StartChar: seven
Encoding: 55 55 152
Width: 560
GlyphClass: 1
Flags: W
LayerCount: 2
Fore
SplineSet
277 516 m 2,0,-1
 524 516 l 1,1,-1
 511 539 l 1,2,3
 480 517 480 517 435 479 c 128,-1,4
 390 441 390 441 339.5 387.5 c 128,-1,5
 289 334 289 334 240 266 c 128,-1,6
 191 198 191 198 151 116 c 128,-1,7
 111 34 111 34 87 -60 c 1,8,-1
 254 -60 l 1,9,10
 275 39 275 39 299 113 c 128,-1,11
 323 187 323 187 351 244.5 c 128,-1,12
 379 302 379 302 412 348 c 128,-1,13
 445 394 445 394 483.5 435 c 128,-1,14
 522 476 522 476 568 518 c 1,15,-1
 594 642 l 1,16,-1
 116 642 l 1,17,-1
 61 385 l 1,18,-1
 134 385 l 1,19,-1
 163 473 l 2,20,21
 167 487 167 487 175.5 495 c 128,-1,22
 184 503 184 503 197 508 c 128,-1,23
 210 513 210 513 230 514.5 c 128,-1,24
 250 516 250 516 277 516 c 2,0,-1
EndSplineSet
Substitution2: "'pnum' Proportional Numbers in Latin lookup 55 subtable" seven.midprop
Substitution2: "'lnum' Lining Figures in Latin lookup 54 subtable" seven.lintab
Substitution2: "'onum' Oldstyle Figures in Latin lookup 53 subtable" seven.oldtab
Substitution2: "'sinf' Scientific Inferiors in Latin lookup 52 subtable" seven.sub
Substitution2: "'subs' Subscript in Latin lookup 51 subtable" seven.sub
Substitution2: "'sups' Superscript in Latin lookup 50 subtable" seven.sup
Substitution2: "'numr' Numerators in Latin lookup 49 subtable" seven.num
Substitution2: "'dnom' Denominators in Latin lookup 48 subtable" seven.den
Substitution2: "Single Substitution lookup 35 subtable" seven.den
Substitution2: "Single Substitution lookup 33 subtable" seven.num
Substitution2: "Single Substitution lookup 31 subtable" seven.num
Substitution2: "Single Substitution lookup 29 subtable" seven.num
Substitution2: "Single Substitution lookup 27 subtable" seven.num
Substitution2: "Single Substitution lookup 25 subtable" seven.num
Substitution2: "Single Substitution lookup 23 subtable" seven.num
Substitution2: "Single Substitution lookup 21 subtable" seven.num
Substitution2: "Single Substitution lookup 19 subtable" seven.num
Substitution2: "Single Substitution lookup 17 subtable" seven.num
Substitution2: "Single Substitution lookup 15 subtable" seven.num
EndChar

StartChar: eight
Encoding: 56 56 153
Width: 560
GlyphClass: 1
Flags: W
LayerCount: 2
Fore
SplineSet
248 67 m 0,0,1
 273 67 273 67 291.5 80.5 c 128,-1,2
 310 94 310 94 323.5 120.5 c 128,-1,3
 337 147 337 147 346 187 c 0,4,5
 351 209 351 209 353.5 227.5 c 128,-1,6
 356 246 356 246 356 262 c 0,7,8
 356 287 356 287 347 304 c 128,-1,9
 338 321 338 321 320.5 330 c 128,-1,10
 303 339 303 339 277 339 c 256,11,12
 251 339 251 339 231.5 327.5 c 128,-1,13
 212 316 212 316 198 290.5 c 128,-1,14
 184 265 184 265 174 221 c 0,15,16
 170 202 170 202 168 184.5 c 128,-1,17
 166 167 166 167 166 152 c 0,18,19
 166 125 166 125 175 106 c 128,-1,20
 184 87 184 87 202.5 77 c 128,-1,21
 221 67 221 67 248 67 c 0,0,1
319 414 m 0,22,23
 341 414 341 414 356.5 423.5 c 128,-1,24
 372 433 372 433 383.5 454.5 c 128,-1,25
 395 476 395 476 403 513 c 0,26,27
 406 530 406 530 408 545.5 c 128,-1,28
 410 561 410 561 410 575 c 0,29,30
 410 597 410 597 402.5 613 c 128,-1,31
 395 629 395 629 379.5 637.5 c 128,-1,32
 364 646 364 646 340 646 c 0,33,34
 317 646 317 646 300.5 635 c 128,-1,35
 284 624 284 624 273 601.5 c 128,-1,36
 262 579 262 579 254 544 c 0,37,38
 250 527 250 527 248.5 513.5 c 128,-1,39
 247 500 247 500 247 487 c 0,40,41
 247 464 247 464 255.5 447.5 c 128,-1,42
 264 431 264 431 280 422.5 c 128,-1,43
 296 414 296 414 319 414 c 0,22,23
257 -10 m 0,44,45
 198 -10 198 -10 151 3.5 c 128,-1,46
 104 17 104 17 70.5 43 c 128,-1,47
 37 69 37 69 19 106 c 128,-1,48
 1 143 1 143 1 190 c 0,49,50
 1 248 1 248 28 291 c 128,-1,51
 55 334 55 334 108 359.5 c 128,-1,52
 161 385 161 385 238 388 c 1,53,-1
 198 373 l 1,54,-1
 204 401 l 1,55,-1
 237 377 l 1,56,57
 194 390 194 390 162.5 412 c 128,-1,58
 131 434 131 434 114.5 465.5 c 128,-1,59
 98 497 98 497 98 536 c 0,60,61
 98 589 98 589 125.5 631 c 128,-1,62
 153 673 153 673 206 698 c 128,-1,63
 259 723 259 723 335 723 c 0,64,65
 406 723 406 723 456 701.5 c 128,-1,66
 506 680 506 680 533 642 c 128,-1,67
 560 604 560 604 560 554 c 0,68,69
 560 511 560 511 546.5 478.5 c 128,-1,70
 533 446 533 446 507.5 423 c 128,-1,71
 482 400 482 400 446 387 c 128,-1,72
 410 374 410 374 366 370 c 1,73,-1
 400 385 l 1,74,-1
 393 357 l 1,75,-1
 365 377 l 1,76,77
 413 365 413 365 447.5 341.5 c 128,-1,78
 482 318 482 318 501 284.5 c 128,-1,79
 520 251 520 251 520 207 c 0,80,81
 520 145 520 145 489.5 96 c 128,-1,82
 459 47 459 47 400 18.5 c 128,-1,83
 341 -10 341 -10 257 -10 c 0,44,45
EndSplineSet
Substitution2: "'pnum' Proportional Numbers in Latin lookup 55 subtable" eight.midprop
Substitution2: "'lnum' Lining Figures in Latin lookup 54 subtable" eight.lintab
Substitution2: "'onum' Oldstyle Figures in Latin lookup 53 subtable" eight.oldtab
Substitution2: "'sinf' Scientific Inferiors in Latin lookup 52 subtable" eight.sub
Substitution2: "'subs' Subscript in Latin lookup 51 subtable" eight.sub
Substitution2: "'sups' Superscript in Latin lookup 50 subtable" eight.sup
Substitution2: "'numr' Numerators in Latin lookup 49 subtable" eight.num
Substitution2: "'dnom' Denominators in Latin lookup 48 subtable" eight.den
Substitution2: "Single Substitution lookup 35 subtable" eight.den
Substitution2: "Single Substitution lookup 33 subtable" eight.num
Substitution2: "Single Substitution lookup 31 subtable" eight.num
Substitution2: "Single Substitution lookup 29 subtable" eight.num
Substitution2: "Single Substitution lookup 27 subtable" eight.num
Substitution2: "Single Substitution lookup 25 subtable" eight.num
Substitution2: "Single Substitution lookup 23 subtable" eight.num
Substitution2: "Single Substitution lookup 21 subtable" eight.num
Substitution2: "Single Substitution lookup 19 subtable" eight.num
Substitution2: "Single Substitution lookup 17 subtable" eight.num
Substitution2: "Single Substitution lookup 15 subtable" eight.num
EndChar

StartChar: nine
Encoding: 57 57 154
Width: 560
GlyphClass: 1
Flags: W
LayerCount: 2
Fore
SplineSet
309 654 m 0,0,1
 242 654 242 654 190.5 631 c 128,-1,2
 139 608 139 608 105 568 c 128,-1,3
 71 528 71 528 53.5 477 c 128,-1,4
 36 426 36 426 36 369 c 0,5,6
 36 318 36 318 56 279.5 c 128,-1,7
 76 241 76 241 113 219 c 128,-1,8
 150 197 150 197 200 197 c 0,9,10
 247 197 247 197 281.5 216 c 128,-1,11
 316 235 316 235 343 266 c 128,-1,12
 370 297 370 297 391 335 c 1,13,-1
 391 377 l 1,14,15
 369 342 369 342 348.5 319.5 c 128,-1,16
 328 297 328 297 307.5 286 c 128,-1,17
 287 275 287 275 263 275 c 0,18,19
 244 275 244 275 229.5 284.5 c 128,-1,20
 215 294 215 294 207.5 311.5 c 128,-1,21
 200 329 200 329 200 354 c 0,22,23
 200 366 200 366 201 378.5 c 128,-1,24
 202 391 202 391 204.5 405 c 128,-1,25
 207 419 207 419 210 435 c 0,26,27
 217 471 217 471 226 497.5 c 128,-1,28
 235 524 235 524 247 541.5 c 128,-1,29
 259 559 259 559 274.5 567.5 c 128,-1,30
 290 576 290 576 309 576 c 0,31,32
 333 576 333 576 349 565.5 c 128,-1,33
 365 555 365 555 373 534 c 128,-1,34
 381 513 381 513 381 481 c 0,35,36
 381 461 381 461 379 435.5 c 128,-1,37
 377 410 377 410 372.5 380.5 c 128,-1,38
 368 351 368 351 361 318 c 0,39,40
 347 255 347 255 326 205 c 128,-1,41
 305 155 305 155 275 117 c 128,-1,42
 245 79 245 79 205 52.5 c 128,-1,43
 165 26 165 26 114 11 c 128,-1,44
 63 -4 63 -4 1 -7 c 1,45,-1
 -5 -89 l 1,46,47
 110 -85 110 -85 198.5 -56 c 128,-1,48
 287 -27 287 -27 351 22 c 128,-1,49
 415 71 415 71 456.5 135 c 128,-1,50
 498 199 498 199 517.5 273 c 128,-1,51
 537 347 537 347 537 425 c 0,52,53
 537 482 537 482 522.5 525 c 128,-1,54
 508 568 508 568 479 596.5 c 128,-1,55
 450 625 450 625 407.5 639.5 c 128,-1,56
 365 654 365 654 309 654 c 0,0,1
EndSplineSet
Substitution2: "'pnum' Proportional Numbers in Latin lookup 55 subtable" nine.midprop
Substitution2: "'lnum' Lining Figures in Latin lookup 54 subtable" nine.lintab
Substitution2: "'onum' Oldstyle Figures in Latin lookup 53 subtable" nine.oldtab
Substitution2: "'sinf' Scientific Inferiors in Latin lookup 52 subtable" nine.sub
Substitution2: "'subs' Subscript in Latin lookup 51 subtable" nine.sub
Substitution2: "'sups' Superscript in Latin lookup 50 subtable" nine.sup
Substitution2: "'numr' Numerators in Latin lookup 49 subtable" nine.num
Substitution2: "'dnom' Denominators in Latin lookup 48 subtable" nine.den
Substitution2: "Single Substitution lookup 35 subtable" nine.den
Substitution2: "Single Substitution lookup 33 subtable" nine.num
Substitution2: "Single Substitution lookup 31 subtable" nine.num
Substitution2: "Single Substitution lookup 29 subtable" nine.num
Substitution2: "Single Substitution lookup 27 subtable" nine.num
Substitution2: "Single Substitution lookup 25 subtable" nine.num
Substitution2: "Single Substitution lookup 23 subtable" nine.num
Substitution2: "Single Substitution lookup 21 subtable" nine.num
Substitution2: "Single Substitution lookup 19 subtable" nine.num
Substitution2: "Single Substitution lookup 17 subtable" nine.num
Substitution2: "Single Substitution lookup 15 subtable" nine.num
EndChar

StartChar: underscore
Encoding: 95 95 158
Width: 514
GlyphClass: 1
Flags: W
LayerCount: 2
Fore
SplineSet
-4 -89 m 1,0,-1
 532 -89 l 1,1,-1
 518 -176 l 1,2,-1
 -19 -176 l 1,3,-1
 -4 -89 l 1,0,-1
EndSplineSet
EndChar

StartChar: hyphen
Encoding: 45 45 159
Width: 491
GlyphClass: 1
Flags: W
LayerCount: 2
Fore
SplineSet
87 354 m 1,0,-1
 434 354 l 1,1,-1
 407 225 l 1,2,-1
 60 225 l 1,3,-1
 87 354 l 1,0,-1
EndSplineSet
EndChar

StartChar: endash
Encoding: 150 8211 162
Width: 645
GlyphClass: 1
Flags: W
LayerCount: 2
Fore
SplineSet
85 366 m 1,0,-1
 584 366 l 1,1,-1
 563 264 l 1,2,-1
 64 264 l 1,3,-1
 85 366 l 1,0,-1
EndSplineSet
EndChar

StartChar: emdash
Encoding: 151 8212 163
Width: 989
GlyphClass: 1
Flags: W
LayerCount: 2
Fore
SplineSet
85 369 m 1,0,-1
 927 369 l 1,1,-1
 906 267 l 1,2,-1
 64 267 l 1,3,-1
 85 369 l 1,0,-1
EndSplineSet
EndChar

StartChar: horizontalbar
Encoding: 817 8213 164
Width: 945
GlyphClass: 1
Flags: W
LayerCount: 2
Fore
SplineSet
4 355 m 1,0,-1
 953 355 l 1,1,-1
 941 275 l 1,2,-1
 -8 275 l 1,3,-1
 4 355 l 1,0,-1
EndSplineSet
EndChar

StartChar: parenleft
Encoding: 40 40 165
Width: 407
GlyphClass: 1
Flags: W
LayerCount: 2
Fore
SplineSet
209 215 m 0,0,1
 209 308 209 308 233 387.5 c 128,-1,2
 257 467 257 467 298.5 533.5 c 128,-1,3
 340 600 340 600 393 653.5 c 128,-1,4
 446 707 446 707 504 747 c 1,5,-1
 505 750 l 1,6,-1
 386 750 l 1,7,8
 326 721 326 721 268 672 c 128,-1,9
 210 623 210 623 162.5 557.5 c 128,-1,10
 115 492 115 492 86.5 410 c 128,-1,11
 58 328 58 328 58 232 c 0,12,13
 58 155 58 155 78.5 87 c 128,-1,14
 99 19 99 19 134 -35.5 c 128,-1,15
 169 -90 169 -90 210 -130 c 1,16,-1
 323 -130 l 1,17,-1
 324 -127 l 1,18,19
 295 -92 295 -92 269 -42.5 c 128,-1,20
 243 7 243 7 226 71.5 c 128,-1,21
 209 136 209 136 209 215 c 0,0,1
EndSplineSet
EndChar

StartChar: parenright
Encoding: 41 41 166
Width: 404
GlyphClass: 1
Flags: W
LayerCount: 2
Fore
SplineSet
199 405 m 0,0,1
 199 312 199 312 175 232.5 c 128,-1,2
 151 153 151 153 109.5 86.5 c 128,-1,3
 68 20 68 20 15 -33.5 c 128,-1,4
 -38 -87 -38 -87 -96 -127 c 1,5,-1
 -97 -130 l 1,6,-1
 22 -130 l 1,7,8
 82 -100 82 -100 140 -51.5 c 128,-1,9
 198 -3 198 -3 245.5 62.5 c 128,-1,10
 293 128 293 128 321.5 210 c 128,-1,11
 350 292 350 292 350 388 c 0,12,13
 350 466 350 466 329.5 533.5 c 128,-1,14
 309 601 309 601 274.5 656 c 128,-1,15
 240 711 240 711 198 750 c 1,16,-1
 85 750 l 1,17,-1
 84 747 l 1,18,19
 113 713 113 713 139 663 c 128,-1,20
 165 613 165 613 182 548.5 c 128,-1,21
 199 484 199 484 199 405 c 0,0,1
EndSplineSet
EndChar

StartChar: bracketleft
Encoding: 91 91 167
Width: 377
GlyphClass: 1
Flags: W
LayerCount: 2
Fore
SplineSet
292 -49 m 1,0,-1
 274 -130 l 1,1,-1
 -18 -130 l 1,2,-1
 170 750 l 1,3,-1
 455 750 l 1,4,-1
 437 669 l 1,5,-1
 295 669 l 1,6,-1
 142 -49 l 1,7,-1
 292 -49 l 1,0,-1
EndSplineSet
EndChar

StartChar: bracketright
Encoding: 93 93 168
Width: 377
GlyphClass: 1
Flags: W
LayerCount: 2
Fore
SplineSet
96 669 m 1,0,-1
 113 750 l 1,1,-1
 405 750 l 1,2,-1
 217 -130 l 1,3,-1
 -68 -130 l 1,4,-1
 -50 -49 l 1,5,-1
 92 -49 l 1,6,-1
 245 669 l 1,7,-1
 96 669 l 1,0,-1
EndSplineSet
EndChar

StartChar: braceleft
Encoding: 123 123 169
Width: 414
GlyphClass: 1
Flags: W
LayerCount: 2
Fore
SplineSet
325 221 m 0,0,1
 325 200 325 200 310.5 179 c 128,-1,2
 296 158 296 158 275 137.5 c 128,-1,3
 254 117 254 117 232.5 95.5 c 128,-1,4
 211 74 211 74 196.5 52 c 128,-1,5
 182 30 182 30 182 7 c 0,6,7
 182 -17 182 -17 195.5 -32 c 128,-1,8
 209 -47 209 -47 234 -54 c 128,-1,9
 259 -61 259 -61 295 -63 c 0,10,11
 305 -63 305 -63 314.5 -62 c 128,-1,12
 324 -61 324 -61 333 -59 c 1,13,-1
 306 -130 l 1,14,15
 298 -133 298 -133 282 -134.5 c 128,-1,16
 266 -136 266 -136 250 -136 c 0,17,18
 187 -136 187 -136 137 -122.5 c 128,-1,19
 87 -109 87 -109 59 -79 c 128,-1,20
 31 -49 31 -49 31 1 c 0,21,22
 31 32 31 32 43 58.5 c 128,-1,23
 55 85 55 85 75.5 108.5 c 128,-1,24
 96 132 96 132 121.5 155 c 128,-1,25
 147 178 147 178 174 202 c 128,-1,26
 201 226 201 226 225 254 c 1,27,-1
 219 224 l 1,28,-1
 45 290 l 1,29,-1
 60 361 l 1,30,-1
 252 410 l 1,31,-1
 243 379 l 1,32,33
 231 408 231 408 215.5 436.5 c 128,-1,34
 200 465 200 465 185 493.5 c 128,-1,35
 170 522 170 522 160 550 c 128,-1,36
 150 578 150 578 150 608 c 0,37,38
 150 655 150 655 175.5 687.5 c 128,-1,39
 201 720 201 720 250.5 737 c 128,-1,40
 300 754 300 754 370 754 c 0,41,42
 392 754 392 754 414 751.5 c 128,-1,43
 436 749 436 749 457 744 c 1,44,-1
 462 672 l 1,45,46
 452 674 452 674 438.5 675.5 c 128,-1,47
 425 677 425 677 411 677 c 0,48,49
 375 676 375 676 350 667 c 128,-1,50
 325 658 325 658 312.5 640 c 128,-1,51
 300 622 300 622 300 595 c 0,52,53
 300 577 300 577 305.5 558 c 128,-1,54
 311 539 311 539 319.5 519.5 c 128,-1,55
 328 500 328 500 336 481.5 c 128,-1,56
 344 463 344 463 349.5 446 c 128,-1,57
 355 429 355 429 355 414 c 0,58,59
 355 396 355 396 348 381.5 c 128,-1,60
 341 367 341 367 321 356 c 128,-1,61
 301 345 301 345 264 337.5 c 128,-1,62
 227 330 227 330 166 325 c 1,63,-1
 164 316 l 1,64,65
 214 307 214 307 245.5 297.5 c 128,-1,66
 277 288 277 288 294.5 276.5 c 128,-1,67
 312 265 312 265 318.5 251.5 c 128,-1,68
 325 238 325 238 325 221 c 0,0,1
EndSplineSet
EndChar

StartChar: braceright
Encoding: 125 125 170
Width: 414
GlyphClass: 1
Flags: W
LayerCount: 2
Fore
SplineSet
100 397 m 0,0,1
 100 418 100 418 114.5 439 c 128,-1,2
 129 460 129 460 150.5 480.5 c 128,-1,3
 172 501 172 501 193 522 c 128,-1,4
 214 543 214 543 228.5 565.5 c 128,-1,5
 243 588 243 588 243 611 c 0,6,7
 243 636 243 636 230 650 c 128,-1,8
 217 664 217 664 191.5 671.5 c 128,-1,9
 166 679 166 679 130 681 c 0,10,11
 121 681 121 681 111 680 c 128,-1,12
 101 679 101 679 92 677 c 1,13,-1
 119 748 l 1,14,15
 127 751 127 751 143 752.5 c 128,-1,16
 159 754 159 754 175 754 c 0,17,18
 239 754 239 754 288.5 740.5 c 128,-1,19
 338 727 338 727 366.5 697.5 c 128,-1,20
 395 668 395 668 395 617 c 0,21,22
 395 586 395 586 382.5 559.5 c 128,-1,23
 370 533 370 533 349.5 509.5 c 128,-1,24
 329 486 329 486 303.5 463 c 128,-1,25
 278 440 278 440 251 416 c 128,-1,26
 224 392 224 392 200 364 c 1,27,-1
 206 393 l 1,28,-1
 381 328 l 1,29,-1
 365 257 l 1,30,-1
 173 208 l 1,31,-1
 183 239 l 1,32,33
 194 210 194 210 209.5 181.5 c 128,-1,34
 225 153 225 153 240 124.5 c 128,-1,35
 255 96 255 96 265 67.5 c 128,-1,36
 275 39 275 39 275 10 c 0,37,38
 275 -37 275 -37 249.5 -69.5 c 128,-1,39
 224 -102 224 -102 175 -119 c 128,-1,40
 126 -136 126 -136 55 -136 c 0,41,42
 33 -136 33 -136 11.5 -133.5 c 128,-1,43
 -10 -131 -10 -131 -32 -127 c 1,44,-1
 -37 -55 l 1,45,46
 -26 -56 -26 -56 -13 -57.5 c 128,-1,47
 0 -59 0 -59 14 -59 c 0,48,49
 51 -58 51 -58 76 -49 c 128,-1,50
 101 -40 101 -40 113 -22 c 128,-1,51
 125 -4 125 -4 125 23 c 0,52,53
 125 41 125 41 119.5 60 c 128,-1,54
 114 79 114 79 106 98.5 c 128,-1,55
 98 118 98 118 90 136.5 c 128,-1,56
 82 155 82 155 76 172 c 128,-1,57
 70 189 70 189 70 204 c 0,58,59
 70 222 70 222 77.5 236 c 128,-1,60
 85 250 85 250 104.5 261 c 128,-1,61
 124 272 124 272 161.5 280 c 128,-1,62
 199 288 199 288 259 292 c 1,63,-1
 261 302 l 1,64,65
 212 311 212 311 180 320.5 c 128,-1,66
 148 330 148 330 131 341 c 128,-1,67
 114 352 114 352 107 365.5 c 128,-1,68
 100 379 100 379 100 397 c 0,0,1
EndSplineSet
EndChar

StartChar: numbersign
Encoding: 35 35 171
Width: 693
GlyphClass: 1
Flags: W
LayerCount: 2
Fore
SplineSet
82 0 m 1,0,-1
 341 765 l 1,1,-1
 428 765 l 1,2,-1
 169 0 l 1,3,-1
 82 0 l 1,0,-1
30 204 m 1,4,-1
 45 322 l 1,5,-1
 623 322 l 1,6,-1
 609 204 l 1,7,-1
 30 204 l 1,4,-1
113 466 m 1,8,-1
 129 584 l 1,9,-1
 708 584 l 1,10,-1
 692 466 l 1,11,-1
 113 466 l 1,8,-1
295 0 m 1,12,-1
 553 765 l 1,13,-1
 642 765 l 1,14,-1
 382 0 l 1,15,-1
 295 0 l 1,12,-1
EndSplineSet
EndChar

StartChar: percent
Encoding: 37 37 172
Width: 795
GlyphClass: 1
Flags: W
LayerCount: 2
Fore
SplineSet
282 615 m 0,0,1
 282 634 282 634 278 646 c 128,-1,2
 274 658 274 658 265.5 664.5 c 128,-1,3
 257 671 257 671 243 671 c 0,4,5
 227 671 227 671 214 657.5 c 128,-1,6
 201 644 201 644 191.5 622 c 128,-1,7
 182 600 182 600 175.5 575 c 128,-1,8
 169 550 169 550 166 526.5 c 128,-1,9
 163 503 163 503 163 486 c 0,10,11
 163 468 163 468 167 455 c 128,-1,12
 171 442 171 442 179.5 436 c 128,-1,13
 188 430 188 430 201 430 c 0,14,15
 218 430 218 430 231 443.5 c 128,-1,16
 244 457 244 457 253.5 479 c 128,-1,17
 263 501 263 501 269.5 525.5 c 128,-1,18
 276 550 276 550 279 574 c 128,-1,19
 282 598 282 598 282 615 c 0,0,1
51 513 m 0,20,21
 51 552 51 552 63 591.5 c 128,-1,22
 75 631 75 631 99 663.5 c 128,-1,23
 123 696 123 696 159.5 716 c 128,-1,24
 196 736 196 736 245 736 c 0,25,26
 292 736 292 736 325.5 718 c 128,-1,27
 359 700 359 700 377 667 c 128,-1,28
 395 634 395 634 395 589 c 0,29,30
 395 550 395 550 382.5 510.5 c 128,-1,31
 370 471 370 471 346 438 c 128,-1,32
 322 405 322 405 285.5 385 c 128,-1,33
 249 365 249 365 200 365 c 0,34,35
 153 365 153 365 119.5 383.5 c 128,-1,36
 86 402 86 402 68.5 435 c 128,-1,37
 51 468 51 468 51 513 c 0,20,21
637 234 m 0,38,39
 637 253 637 253 633 265 c 128,-1,40
 629 277 629 277 620.5 283.5 c 128,-1,41
 612 290 612 290 598 290 c 0,42,43
 582 290 582 290 569 276 c 128,-1,44
 556 262 556 262 546.5 240.5 c 128,-1,45
 537 219 537 219 530.5 194 c 128,-1,46
 524 169 524 169 521 145.5 c 128,-1,47
 518 122 518 122 518 105 c 0,48,49
 518 86 518 86 522 73.5 c 128,-1,50
 526 61 526 61 534.5 55 c 128,-1,51
 543 49 543 49 556 49 c 0,52,53
 572 49 572 49 585.5 62.5 c 128,-1,54
 599 76 599 76 608.5 97.5 c 128,-1,55
 618 119 618 119 624.5 144 c 128,-1,56
 631 169 631 169 634 192.5 c 128,-1,57
 637 216 637 216 637 234 c 0,38,39
405 131 m 0,58,59
 405 170 405 170 417.5 210 c 128,-1,60
 430 250 430 250 454 282.5 c 128,-1,61
 478 315 478 315 514.5 335 c 128,-1,62
 551 355 551 355 600 355 c 0,63,64
 647 355 647 355 680.5 336.5 c 128,-1,65
 714 318 714 318 731.5 285 c 128,-1,66
 749 252 749 252 749 207 c 0,67,68
 749 168 749 168 737 128.5 c 128,-1,69
 725 89 725 89 700.5 56.5 c 128,-1,70
 676 24 676 24 640 4 c 128,-1,71
 604 -16 604 -16 555 -16 c 0,72,73
 508 -16 508 -16 474.5 2 c 128,-1,74
 441 20 441 20 423 53 c 128,-1,75
 405 86 405 86 405 131 c 0,58,59
684 710 m 1,76,-1
 784 710 l 1,77,-1
 105 0 l 1,78,-1
 6 0 l 1,79,-1
 684 710 l 1,76,-1
EndSplineSet
EndChar

StartChar: perthousand
Encoding: 137 8240 173
Width: 1172
GlyphClass: 1
Flags: W
LayerCount: 2
Fore
SplineSet
204 430 m 0,0,1
 191 430 191 430 182.5 436 c 128,-1,2
 174 442 174 442 170 455 c 128,-1,3
 166 468 166 468 166 486 c 0,4,5
 166 503 166 503 169 526.5 c 128,-1,6
 172 550 172 550 178.5 575 c 128,-1,7
 185 600 185 600 194.5 622 c 128,-1,8
 204 644 204 644 217 657.5 c 128,-1,9
 230 671 230 671 247 671 c 0,10,11
 260 671 260 671 268.5 664.5 c 128,-1,12
 277 658 277 658 281 646 c 128,-1,13
 285 634 285 634 285 615 c 0,14,15
 285 598 285 598 282 574 c 128,-1,16
 279 550 279 550 272.5 525 c 128,-1,17
 266 500 266 500 256.5 478.5 c 128,-1,18
 247 457 247 457 234 443.5 c 128,-1,19
 221 430 221 430 204 430 c 0,0,1
559 49 m 0,20,21
 575 49 575 49 588.5 62.5 c 128,-1,22
 602 76 602 76 611.5 97.5 c 128,-1,23
 621 119 621 119 627.5 144 c 128,-1,24
 634 169 634 169 637 193 c 128,-1,25
 640 217 640 217 640 234 c 0,26,27
 640 253 640 253 636 265 c 128,-1,28
 632 277 632 277 623.5 283.5 c 128,-1,29
 615 290 615 290 601 290 c 0,30,31
 585 290 585 290 572 276 c 128,-1,32
 559 262 559 262 549.5 240.5 c 128,-1,33
 540 219 540 219 533.5 194 c 128,-1,34
 527 169 527 169 524 145.5 c 128,-1,35
 521 122 521 122 521 105 c 0,36,37
 521 86 521 86 525 73.5 c 128,-1,38
 529 61 529 61 537.5 55 c 128,-1,39
 546 49 546 49 559 49 c 0,20,21
558 -16 m 0,40,41
 511 -16 511 -16 477.5 2 c 128,-1,42
 444 20 444 20 426 53 c 128,-1,43
 408 86 408 86 408 131 c 0,44,45
 408 170 408 170 420.5 210 c 128,-1,46
 433 250 433 250 457 282.5 c 128,-1,47
 481 315 481 315 517.5 335 c 128,-1,48
 554 355 554 355 603 355 c 0,49,50
 650 355 650 355 683.5 336.5 c 128,-1,51
 717 318 717 318 734.5 285 c 128,-1,52
 752 252 752 252 752 207 c 0,53,54
 752 168 752 168 740 128.5 c 128,-1,55
 728 89 728 89 704 56.5 c 128,-1,56
 680 24 680 24 643.5 4 c 128,-1,57
 607 -16 607 -16 558 -16 c 0,40,41
203 365 m 0,58,59
 252 365 252 365 288.5 385 c 128,-1,60
 325 405 325 405 349 438 c 128,-1,61
 373 471 373 471 385.5 510.5 c 128,-1,62
 398 550 398 550 398 589 c 0,63,64
 398 634 398 634 380 667 c 128,-1,65
 362 700 362 700 328.5 718 c 128,-1,66
 295 736 295 736 248 736 c 0,67,68
 199 736 199 736 162.5 716 c 128,-1,69
 126 696 126 696 102 663.5 c 128,-1,70
 78 631 78 631 66 591.5 c 128,-1,71
 54 552 54 552 54 513 c 0,72,73
 54 468 54 468 71.5 435 c 128,-1,74
 89 402 89 402 122.5 383.5 c 128,-1,75
 156 365 156 365 203 365 c 0,58,59
938 49 m 0,76,77
 954 49 954 49 967 62.5 c 128,-1,78
 980 76 980 76 990 97.5 c 128,-1,79
 1000 119 1000 119 1006.5 144 c 128,-1,80
 1013 169 1013 169 1016 193 c 128,-1,81
 1019 217 1019 217 1019 234 c 0,82,83
 1019 253 1019 253 1015 265 c 128,-1,84
 1011 277 1011 277 1002.5 283.5 c 128,-1,85
 994 290 994 290 980 290 c 0,86,87
 964 290 964 290 951 276 c 128,-1,88
 938 262 938 262 928.5 240.5 c 128,-1,89
 919 219 919 219 912.5 194 c 128,-1,90
 906 169 906 169 903 145.5 c 128,-1,91
 900 122 900 122 900 105 c 0,92,93
 900 86 900 86 903.5 73.5 c 128,-1,94
 907 61 907 61 915.5 55 c 128,-1,95
 924 49 924 49 938 49 c 0,76,77
936 -16 m 0,96,97
 890 -16 890 -16 856.5 2 c 128,-1,98
 823 20 823 20 805 53 c 128,-1,99
 787 86 787 86 787 131 c 0,100,101
 787 170 787 170 799 210 c 128,-1,102
 811 250 811 250 835.5 282.5 c 128,-1,103
 860 315 860 315 896.5 335 c 128,-1,104
 933 355 933 355 981 355 c 256,105,106
 1029 355 1029 355 1062 336.5 c 128,-1,107
 1095 318 1095 318 1113 285 c 128,-1,108
 1131 252 1131 252 1131 207 c 0,109,110
 1131 168 1131 168 1119 128.5 c 128,-1,111
 1107 89 1107 89 1082.5 56.5 c 128,-1,112
 1058 24 1058 24 1021.5 4 c 128,-1,113
 985 -16 985 -16 936 -16 c 0,96,97
687 710 m 1,114,-1
 787 710 l 1,115,-1
 109 0 l 1,116,-1
 9 0 l 1,117,-1
 687 710 l 1,114,-1
EndSplineSet
EndChar

StartChar: quotesingle
Encoding: 39 39 174
Width: 263
GlyphClass: 1
Flags: W
LayerCount: 2
Fore
SplineSet
270 740 m 1,0,-1
 124 740 l 1,1,2
 116 705 116 705 114 676 c 128,-1,3
 112 647 112 647 111 616.5 c 128,-1,4
 110 586 110 586 106 547.5 c 128,-1,5
 102 509 102 509 90 455 c 1,6,-1
 181 455 l 1,7,8
 193 508 193 508 205 545 c 128,-1,9
 217 582 217 582 229 612.5 c 128,-1,10
 241 643 241 643 251.5 673 c 128,-1,11
 262 703 262 703 270 740 c 1,0,-1
EndSplineSet
EndChar

StartChar: quoteleft
Encoding: 145 8216 176
Width: 307
GlyphClass: 1
Flags: W
LayerCount: 2
Fore
SplineSet
72 504 m 0,0,1
 72 534 72 534 80 564 c 128,-1,2
 88 594 88 594 103.5 623 c 128,-1,3
 119 652 119 652 143.5 678 c 128,-1,4
 168 704 168 704 201.5 725.5 c 128,-1,5
 235 747 235 747 278 763 c 1,6,-1
 339 691 l 1,7,8
 289 675 289 675 250 653.5 c 128,-1,9
 211 632 211 632 188 602.5 c 128,-1,10
 165 573 165 573 160 533 c 1,11,-1
 146 549 l 1,12,13
 155 556 155 556 164.5 558.5 c 128,-1,14
 174 561 174 561 185 561 c 0,15,16
 222 561 222 561 247 540.5 c 128,-1,17
 272 520 272 520 272 486 c 0,18,19
 272 451 272 451 246.5 426.5 c 128,-1,20
 221 402 221 402 176 402 c 0,21,22
 145 402 145 402 121.5 414 c 128,-1,23
 98 426 98 426 85 449 c 128,-1,24
 72 472 72 472 72 504 c 0,0,1
EndSplineSet
EndChar

StartChar: quoteright
Encoding: 146 8217 177
Width: 307
GlyphClass: 1
Flags: W
LayerCount: 2
Fore
SplineSet
319 649 m 0,0,1
 319 619 319 619 311.5 589 c 128,-1,2
 304 559 304 559 288 530 c 128,-1,3
 272 501 272 501 247.5 475 c 128,-1,4
 223 449 223 449 189.5 427 c 128,-1,5
 156 405 156 405 114 389 c 1,6,-1
 52 462 l 1,7,8
 103 478 103 478 141.5 499.5 c 128,-1,9
 180 521 180 521 203 550.5 c 128,-1,10
 226 580 226 580 231 619 c 1,11,-1
 245 603 l 1,12,13
 236 597 236 597 226.5 594.5 c 128,-1,14
 217 592 217 592 207 592 c 0,15,16
 169 592 169 592 144 612.5 c 128,-1,17
 119 633 119 633 119 666 c 0,18,19
 119 702 119 702 144.5 726 c 128,-1,20
 170 750 170 750 215 750 c 0,21,22
 247 750 247 750 270 738.5 c 128,-1,23
 293 727 293 727 306 704.5 c 128,-1,24
 319 682 319 682 319 649 c 0,0,1
EndSplineSet
EndChar

StartChar: quotedblleft
Encoding: 147 8220 178
Width: 558
GlyphClass: 1
Flags: W
LayerCount: 2
Fore
SplineSet
324 504 m 0,0,1
 324 534 324 534 331.5 564 c 128,-1,2
 339 594 339 594 355 623 c 128,-1,3
 371 652 371 652 395.5 678 c 128,-1,4
 420 704 420 704 453 725.5 c 128,-1,5
 486 747 486 747 529 763 c 1,6,-1
 591 691 l 1,7,8
 540 675 540 675 501.5 653.5 c 128,-1,9
 463 632 463 632 440 602.5 c 128,-1,10
 417 573 417 573 412 533 c 1,11,-1
 398 549 l 1,12,13
 407 556 407 556 416.5 558.5 c 128,-1,14
 426 561 426 561 436 561 c 0,15,16
 473 561 473 561 498 540.5 c 128,-1,17
 523 520 523 520 523 486 c 0,18,19
 523 451 523 451 498 426.5 c 128,-1,20
 473 402 473 402 428 402 c 0,21,22
 396 402 396 402 372.5 414 c 128,-1,23
 349 426 349 426 336.5 449 c 128,-1,24
 324 472 324 472 324 504 c 0,0,1
70 504 m 0,25,26
 70 534 70 534 77.5 564 c 128,-1,27
 85 594 85 594 101 623 c 128,-1,28
 117 652 117 652 141.5 678 c 128,-1,29
 166 704 166 704 199 725.5 c 128,-1,30
 232 747 232 747 275 763 c 1,31,-1
 337 691 l 1,32,33
 286 675 286 675 247.5 653.5 c 128,-1,34
 209 632 209 632 186 602.5 c 128,-1,35
 163 573 163 573 158 533 c 1,36,-1
 144 549 l 1,37,38
 153 556 153 556 162.5 558.5 c 128,-1,39
 172 561 172 561 182 561 c 0,40,41
 219 561 219 561 244.5 540.5 c 128,-1,42
 270 520 270 520 270 486 c 0,43,44
 270 451 270 451 244.5 426.5 c 128,-1,45
 219 402 219 402 174 402 c 0,46,47
 142 402 142 402 118.5 414 c 128,-1,48
 95 426 95 426 82.5 449 c 128,-1,49
 70 472 70 472 70 504 c 0,25,26
EndSplineSet
EndChar

StartChar: guilsinglleft
Encoding: 139 8249 182
Width: 378
GlyphClass: 1
Flags: W
LayerCount: 2
Fore
SplineSet
173 233 m 1,0,-1
 190 309 l 1,1,-1
 288 66 l 1,2,-1
 189 66 l 1,3,-1
 44 252 l 1,4,-1
 58 315 l 1,5,-1
 282 487 l 1,6,-1
 382 487 l 1,7,-1
 173 233 l 1,0,-1
EndSplineSet
EndChar

StartChar: guilsinglright
Encoding: 155 8250 183
Width: 378
GlyphClass: 1
Flags: W
LayerCount: 2
Fore
SplineSet
209 317 m 1,0,-1
 192 241 l 1,1,-1
 95 484 l 1,2,-1
 193 484 l 1,3,-1
 338 298 l 1,4,-1
 325 235 l 1,5,-1
 100 63 l 1,6,-1
 0 63 l 1,7,-1
 209 317 l 1,0,-1
EndSplineSet
EndChar

StartChar: guillemotright
Encoding: 187 187 185
Width: 647
GlyphClass: 1
Flags: W
LayerCount: 2
Fore
SplineSet
477 317 m 1,0,-1
 460 241 l 1,1,-1
 362 484 l 1,2,-1
 461 484 l 1,3,-1
 606 298 l 1,4,-1
 593 235 l 1,5,-1
 368 63 l 1,6,-1
 268 63 l 1,7,-1
 477 317 l 1,0,-1
208 317 m 1,8,-1
 191 241 l 1,9,-1
 94 484 l 1,10,-1
 192 484 l 1,11,-1
 337 298 l 1,12,-1
 324 235 l 1,13,-1
 99 63 l 1,14,-1
 -1 63 l 1,15,-1
 208 317 l 1,8,-1
EndSplineSet
EndChar

StartChar: asterisk
Encoding: 42 42 186
Width: 532
GlyphClass: 1
Flags: W
LayerCount: 2
Fore
SplineSet
89 611 m 1,0,1
 109 596 109 596 128.5 586.5 c 128,-1,2
 148 577 148 577 168.5 569 c 128,-1,3
 189 561 189 561 212 550 c 128,-1,4
 235 539 235 539 261 519 c 1,5,-1
 301 566 l 1,6,7
 276 586 276 586 259.5 604.5 c 128,-1,8
 243 623 243 623 229.5 640 c 128,-1,9
 216 657 216 657 202 673.5 c 128,-1,10
 188 690 188 690 167 705 c 1,11,-1
 89 611 l 1,0,1
98 388 m 1,12,13
 124 399 124 399 145 412 c 128,-1,14
 166 425 166 425 186 439 c 128,-1,15
 206 453 206 453 230 467.5 c 128,-1,16
 254 482 254 482 286 496 c 1,17,-1
 268 550 l 1,18,19
 234 536 234 536 207 529.5 c 128,-1,20
 180 523 180 523 156.5 519 c 128,-1,21
 133 515 133 515 109.5 509.5 c 128,-1,22
 86 504 86 504 60 493 c 1,23,-1
 98 388 l 1,12,13
308 311 m 1,24,25
 314 336 314 336 314.5 358 c 128,-1,26
 315 380 315 380 314.5 402 c 128,-1,27
 314 424 314 424 315 450 c 128,-1,28
 316 476 316 476 323 509 c 1,29,-1
 262 516 l 1,30,31
 255 483 255 483 245 458 c 128,-1,32
 235 433 235 433 225 410.5 c 128,-1,33
 215 388 215 388 205.5 364.5 c 128,-1,34
 196 341 196 341 191 311 c 1,35,-1
 308 311 l 1,24,25
286 751 m 1,36,37
 281 726 281 726 280 704 c 128,-1,38
 279 682 279 682 279.5 660 c 128,-1,39
 280 638 280 638 279 612.5 c 128,-1,40
 278 587 278 587 271 553 c 1,41,-1
 332 547 l 1,42,43
 339 580 339 580 349 605 c 128,-1,44
 359 630 359 630 369 651.5 c 128,-1,45
 379 673 379 673 388 697 c 128,-1,46
 397 721 397 721 403 751 c 1,47,-1
 286 751 l 1,36,37
427 357 m 1,48,-1
 505 452 l 1,49,50
 485 467 485 467 465.5 476.5 c 128,-1,51
 446 486 446 486 425 494 c 128,-1,52
 404 502 404 502 381.5 513 c 128,-1,53
 359 524 359 524 333 544 c 1,54,-1
 293 497 l 1,55,56
 318 477 318 477 334.5 458 c 128,-1,57
 351 439 351 439 364.5 422 c 128,-1,58
 378 405 378 405 392.5 388.5 c 128,-1,59
 407 372 407 372 427 357 c 1,48,-1
534 572 m 1,60,-1
 495 676 l 1,61,62
 469 665 469 665 448.5 652 c 128,-1,63
 428 639 428 639 408 624.5 c 128,-1,64
 388 610 388 610 364 595 c 128,-1,65
 340 580 340 580 308 566 c 1,66,-1
 326 512 l 1,67,68
 360 526 360 526 386.5 533 c 128,-1,69
 413 540 413 540 437 545 c 128,-1,70
 461 550 461 550 484.5 555.5 c 128,-1,71
 508 561 508 561 534 572 c 1,60,-1
EndSplineSet
EndChar

StartChar: dagger
Encoding: 134 8224 187
Width: 568
GlyphClass: 1
Flags: W
LayerCount: 2
Fore
SplineSet
278 474 m 1,0,-1
 85 399 l 1,1,-1
 44 399 l 1,2,-1
 80 570 l 1,3,-1
 121 570 l 1,4,-1
 289 513 l 1,5,-1
 352 513 l 1,6,-1
 539 570 l 1,7,-1
 580 570 l 1,8,-1
 544 399 l 1,9,-1
 503 399 l 1,10,-1
 342 474 l 1,11,-1
 278 474 l 1,0,-1
475 710 m 1,12,-1
 466 667 l 2,13,14
 463 655 463 655 452 640.5 c 128,-1,15
 441 626 441 626 425.5 609 c 128,-1,16
 410 592 410 592 394.5 572.5 c 128,-1,17
 379 553 379 553 366.5 532.5 c 128,-1,18
 354 512 354 512 350 490 c 0,19,20
 343 456 343 456 345.5 431.5 c 128,-1,21
 348 407 348 407 357 389.5 c 128,-1,22
 366 372 366 372 378 360 c 128,-1,23
 390 348 390 348 402 339 c 1,24,-1
 396 312 l 2,25,26
 392 298 392 298 378 273.5 c 128,-1,27
 364 249 364 249 342.5 210.5 c 128,-1,28
 321 172 321 172 295 114.5 c 128,-1,29
 269 57 269 57 242 -23 c 1,30,-1
 170 -23 l 1,31,32
 176 59 176 59 173 116.5 c 128,-1,33
 170 174 170 174 164.5 212.5 c 128,-1,34
 159 251 159 251 155 275 c 128,-1,35
 151 299 151 299 155 314 c 2,36,-1
 161 340 l 1,37,38
 176 349 176 349 193 362 c 128,-1,39
 210 375 210 375 227 393.5 c 128,-1,40
 244 412 244 412 257.5 437 c 128,-1,41
 271 462 271 462 278 494 c 0,42,43
 282 517 282 517 278.5 537 c 128,-1,44
 275 557 275 557 267.5 576 c 128,-1,45
 260 595 260 595 252 611 c 128,-1,46
 244 627 244 627 239 641.5 c 128,-1,47
 234 656 234 656 237 667 c 2,48,-1
 246 710 l 1,49,-1
 475 710 l 1,12,-1
EndSplineSet
EndChar

StartChar: daggerdbl
Encoding: 135 8225 188
Width: 568
GlyphClass: 1
Flags: W
LayerCount: 2
Fore
SplineSet
-14 103 m 1,0,-1
 19 257 l 1,1,-1
 59 257 l 1,2,-1
 224 197 l 1,3,-1
 287 197 l 1,4,-1
 478 257 l 1,5,-1
 519 257 l 1,6,-1
 486 103 l 1,7,-1
 445 103 l 1,8,-1
 280 159 l 1,9,-1
 217 159 l 1,10,-1
 26 103 l 1,11,-1
 -14 103 l 1,0,-1
160 316 m 1,12,-1
 172 372 l 1,13,14
 187 381 187 381 204 391.5 c 128,-1,15
 221 402 221 402 237.5 417 c 128,-1,16
 254 432 254 432 267 453.5 c 128,-1,17
 280 475 280 475 287 506 c 0,18,19
 291 528 291 528 287 547.5 c 128,-1,20
 283 567 283 567 275.5 584.5 c 128,-1,21
 268 602 268 602 259.5 617 c 128,-1,22
 251 632 251 632 245.5 645 c 128,-1,23
 240 658 240 658 243 670 c 2,24,-1
 252 710 l 1,25,-1
 481 710 l 1,26,-1
 472 669 l 2,27,28
 469 658 469 658 458.5 644.5 c 128,-1,29
 448 631 448 631 433 616 c 128,-1,30
 418 601 418 601 403 584 c 128,-1,31
 388 567 388 567 375.5 548 c 128,-1,32
 363 529 363 529 359 507 c 0,33,34
 352 476 352 476 355.5 453.5 c 128,-1,35
 359 431 359 431 369 415.5 c 128,-1,36
 379 400 379 400 391.5 389.5 c 128,-1,37
 404 379 404 379 415 371 c 1,38,-1
 403 315 l 1,39,40
 388 306 388 306 371 295.5 c 128,-1,41
 354 285 354 285 337.5 270 c 128,-1,42
 321 255 321 255 308 233.5 c 128,-1,43
 295 212 295 212 289 181 c 0,44,45
 284 159 284 159 287.5 139.5 c 128,-1,46
 291 120 291 120 299 102.5 c 128,-1,47
 307 85 307 85 315.5 70 c 128,-1,48
 324 55 324 55 329.5 42 c 128,-1,49
 335 29 335 29 332 17 c 2,50,-1
 323 -23 l 1,51,-1
 95 -23 l 1,52,-1
 104 18 l 2,53,54
 106 29 106 29 116.5 42.5 c 128,-1,55
 127 56 127 56 142 71 c 128,-1,56
 157 86 157 86 172 103 c 128,-1,57
 187 120 187 120 199.5 139 c 128,-1,58
 212 158 212 158 217 181 c 0,59,60
 223 211 223 211 219.5 233.5 c 128,-1,61
 216 256 216 256 206.5 271.5 c 128,-1,62
 197 287 197 287 184.5 297.5 c 128,-1,63
 172 308 172 308 160 316 c 1,12,-1
56 430 m 1,64,-1
 89 584 l 1,65,-1
 130 584 l 1,66,-1
 296 528 l 1,67,-1
 359 528 l 1,68,-1
 549 584 l 1,69,-1
 589 584 l 1,70,-1
 556 430 l 1,71,-1
 516 430 l 1,72,-1
 351 490 l 1,73,-1
 288 490 l 1,74,-1
 97 430 l 1,75,-1
 56 430 l 1,64,-1
EndSplineSet
EndChar

StartChar: period
Encoding: 46 46 189
Width: 346
GlyphClass: 1
Flags: W
LayerCount: 2
Fore
SplineSet
272 85 m 256,0,1
 272 38 272 38 242.5 11.5 c 128,-1,2
 213 -15 213 -15 162 -15 c 0,3,4
 112 -15 112 -15 82.5 11.5 c 128,-1,5
 53 38 53 38 53 85 c 256,6,7
 53 132 53 132 82.5 159 c 128,-1,8
 112 186 112 186 162 186 c 0,9,10
 213 186 213 186 242.5 159 c 128,-1,11
 272 132 272 132 272 85 c 256,0,1
EndSplineSet
Substitution2: "Single Substitution lookup 57 subtable" period.tab
EndChar

StartChar: comma
Encoding: 44 44 190
Width: 358
GlyphClass: 1
Flags: W
LayerCount: 2
Fore
SplineSet
63 -204 m 1,0,-1
 -17 -123 l 1,1,2
 44 -108 44 -108 85.5 -89 c 128,-1,3
 127 -70 127 -70 152 -44.5 c 128,-1,4
 177 -19 177 -19 186 18 c 0,5,6
 192 26 192 26 199 27.5 c 128,-1,7
 206 29 206 29 211 25 c 128,-1,8
 216 21 216 21 216 12 c 1,9,10
 204 1 204 1 189 -3.5 c 128,-1,11
 174 -8 174 -8 156 -8 c 0,12,13
 112 -8 112 -8 82 15.5 c 128,-1,14
 52 39 52 39 52 79 c 0,15,16
 52 125 52 125 82.5 154 c 128,-1,17
 113 183 113 183 168 183 c 0,18,19
 226 183 226 183 257 153 c 128,-1,20
 288 123 288 123 288 71 c 0,21,22
 288 33 288 33 274.5 -7 c 128,-1,23
 261 -47 261 -47 233.5 -84 c 128,-1,24
 206 -121 206 -121 163.5 -152 c 128,-1,25
 121 -183 121 -183 63 -204 c 1,0,-1
EndSplineSet
Substitution2: "Single Substitution lookup 57 subtable" comma.tab
EndChar

StartChar: exclam
Encoding: 33 33 194
Width: 364
GlyphClass: 1
Flags: W
LayerCount: 2
Fore
SplineSet
373 741 m 1,0,-1
 180 741 l 1,1,2
 169 688 169 688 163.5 642.5 c 128,-1,3
 158 597 158 597 155 554.5 c 128,-1,4
 152 512 152 512 148.5 467.5 c 128,-1,5
 145 423 145 423 139 371.5 c 128,-1,6
 133 320 133 320 120 258 c 1,7,-1
 228 258 l 1,8,9
 241 318 241 318 256.5 367.5 c 128,-1,10
 272 417 272 417 287.5 460.5 c 128,-1,11
 303 504 303 504 318.5 546.5 c 128,-1,12
 334 589 334 589 348 636 c 128,-1,13
 362 683 362 683 373 741 c 1,0,-1
258 85 m 256,14,15
 258 38 258 38 228.5 11.5 c 128,-1,16
 199 -15 199 -15 148 -15 c 0,17,18
 98 -15 98 -15 68.5 11.5 c 128,-1,19
 39 38 39 38 39 85 c 256,20,21
 39 132 39 132 68.5 159 c 128,-1,22
 98 186 98 186 148 186 c 0,23,24
 199 186 199 186 228.5 159 c 128,-1,25
 258 132 258 132 258 85 c 256,14,15
EndSplineSet
EndChar

StartChar: exclamdown
Encoding: 161 161 195
Width: 356
GlyphClass: 1
Flags: W
LayerCount: 2
Fore
SplineSet
-14 -194 m 1,0,-1
 179 -194 l 1,1,2
 190 -141 190 -141 195.5 -96 c 128,-1,3
 201 -51 201 -51 204 -8 c 128,-1,4
 207 35 207 35 210.5 79.5 c 128,-1,5
 214 124 214 124 220 175 c 128,-1,6
 226 226 226 226 239 289 c 1,7,-1
 131 289 l 1,8,9
 118 228 118 228 102.5 179 c 128,-1,10
 87 130 87 130 71.5 86.5 c 128,-1,11
 56 43 56 43 40.5 0 c 128,-1,12
 25 -43 25 -43 11 -90 c 128,-1,13
 -3 -137 -3 -137 -14 -194 c 1,0,-1
101 462 m 256,14,15
 101 509 101 509 130.5 535.5 c 128,-1,16
 160 562 160 562 211 562 c 0,17,18
 261 562 261 562 290.5 535.5 c 128,-1,19
 320 509 320 509 320 462 c 256,20,21
 320 415 320 415 290.5 388 c 128,-1,22
 261 361 261 361 211 361 c 0,23,24
 160 361 160 361 130.5 388 c 128,-1,25
 101 415 101 415 101 462 c 256,14,15
EndSplineSet
EndChar

StartChar: question
Encoding: 63 63 196
Width: 606
GlyphClass: 1
Flags: W
LayerCount: 2
Fore
SplineSet
224 409 m 1,0,1
 276 417 276 417 315 430.5 c 128,-1,2
 354 444 354 444 379.5 464.5 c 128,-1,3
 405 485 405 485 417.5 514 c 128,-1,4
 430 543 430 543 430 582 c 0,5,6
 429 612 429 612 418 630 c 128,-1,7
 407 648 407 648 385.5 656 c 128,-1,8
 364 664 364 664 332 664 c 0,9,10
 304 664 304 664 280 658 c 128,-1,11
 256 652 256 652 238.5 643 c 128,-1,12
 221 634 221 634 209 625 c 1,13,14
 209 632 209 632 212.5 639 c 128,-1,15
 216 646 216 646 222.5 653 c 128,-1,16
 229 660 229 660 239.5 664.5 c 128,-1,17
 250 669 250 669 263 670 c 1,18,-1
 235 545 l 1,19,-1
 90 545 l 1,20,-1
 122 690 l 1,21,22
 139 699 139 699 171.5 712 c 128,-1,23
 204 725 204 725 250 735 c 128,-1,24
 296 745 296 745 349 745 c 0,25,26
 431 745 431 745 488 726.5 c 128,-1,27
 545 708 545 708 575 671.5 c 128,-1,28
 605 635 605 635 605 580 c 0,29,30
 605 524 605 524 584.5 484.5 c 128,-1,31
 564 445 564 445 527 419.5 c 128,-1,32
 490 394 490 394 440.5 380 c 128,-1,33
 391 366 391 366 333 360 c 1,34,-1
 311 256 l 1,35,-1
 192 256 l 1,36,-1
 224 409 l 1,0,1
341 84 m 0,37,38
 341 37 341 37 311.5 10.5 c 128,-1,39
 282 -16 282 -16 231 -16 c 0,40,41
 181 -16 181 -16 151.5 10.5 c 128,-1,42
 122 37 122 37 122 84 c 0,43,44
 122 132 122 132 151.5 158.5 c 128,-1,45
 181 185 181 185 231 185 c 0,46,47
 282 185 282 185 311.5 158.5 c 128,-1,48
 341 132 341 132 341 84 c 0,37,38
EndSplineSet
EndChar

StartChar: questiondown
Encoding: 191 191 197
Width: 582
GlyphClass: 1
Flags: W
LayerCount: 2
Fore
SplineSet
381 137 m 1,0,1
 329 130 329 130 290 116 c 128,-1,2
 251 102 251 102 225.5 81.5 c 128,-1,3
 200 61 200 61 187.5 32.5 c 128,-1,4
 175 4 175 4 175 -35 c 0,5,6
 176 -65 176 -65 187 -83.5 c 128,-1,7
 198 -102 198 -102 220 -110 c 128,-1,8
 242 -118 242 -118 273 -118 c 0,9,10
 302 -118 302 -118 325.5 -112 c 128,-1,11
 349 -106 349 -106 367 -97 c 128,-1,12
 385 -88 385 -88 396 -79 c 1,13,14
 395 -86 395 -86 392 -93 c 128,-1,15
 389 -100 389 -100 382 -107 c 128,-1,16
 375 -114 375 -114 365 -118.5 c 128,-1,17
 355 -123 355 -123 342 -124 c 1,18,-1
 370 1 l 1,19,-1
 515 1 l 1,20,-1
 483 -144 l 1,21,22
 467 -153 467 -153 434 -166 c 128,-1,23
 401 -179 401 -179 355.5 -189 c 128,-1,24
 310 -199 310 -199 256 -199 c 0,25,26
 174 -199 174 -199 117 -180.5 c 128,-1,27
 60 -162 60 -162 30 -125 c 128,-1,28
 0 -88 0 -88 0 -34 c 0,29,30
 0 22 0 22 20.5 61.5 c 128,-1,31
 41 101 41 101 78 126.5 c 128,-1,32
 115 152 115 152 164.5 166 c 128,-1,33
 214 180 214 180 272 186 c 1,34,-1
 294 290 l 1,35,-1
 413 290 l 1,36,-1
 381 137 l 1,0,1
264 462 m 256,37,38
 264 509 264 509 293.5 535.5 c 128,-1,39
 323 562 323 562 374 562 c 0,40,41
 424 562 424 562 453.5 535.5 c 128,-1,42
 483 509 483 509 483 462 c 256,43,44
 483 415 483 415 453.5 388 c 128,-1,45
 424 361 424 361 374 361 c 0,46,47
 323 361 323 361 293.5 388 c 128,-1,48
 264 415 264 415 264 462 c 256,37,38
EndSplineSet
EndChar

StartChar: slash
Encoding: 47 47 198
Width: 537
GlyphClass: 1
Flags: W
LayerCount: 2
Fore
SplineSet
501 759 m 1,0,-1
 620 759 l 1,1,-1
 35 -150 l 1,2,-1
 -85 -150 l 1,3,-1
 501 759 l 1,0,-1
EndSplineSet
Substitution2: "Single Substitution lookup 13 subtable" fraction
EndChar

StartChar: backslash
Encoding: 92 92 199
Width: 473
GlyphClass: 1
Flags: W
LayerCount: 2
Fore
SplineSet
130 759 m 1,0,-1
 449 -150 l 1,1,-1
 338 -150 l 1,2,-1
 18 759 l 1,3,-1
 130 759 l 1,0,-1
EndSplineSet
EndChar

StartChar: fraction
Encoding: 818 8260 200
Width: 282
GlyphClass: 1
Flags: W
LayerCount: 2
Fore
SplineSet
432 710 m 1,0,-1
 532 710 l 1,1,-1
 -146 0 l 1,2,-1
 -246 0 l 1,3,-1
 432 710 l 1,0,-1
EndSplineSet
EndChar

StartChar: bar
Encoding: 124 124 201
Width: 333
GlyphClass: 1
Flags: W
LayerCount: 2
Fore
SplineSet
111 771 m 1,0,-1
 223 771 l 1,1,-1
 223 -156 l 1,2,-1
 111 -156 l 1,3,-1
 111 771 l 1,0,-1
EndSplineSet
EndChar

StartChar: brokenbar
Encoding: 166 166 202
Width: 333
GlyphClass: 1
Flags: W
LayerCount: 2
Fore
SplineSet
111 771 m 1,0,-1
 223 771 l 1,1,-1
 223 386 l 1,2,-1
 111 386 l 1,3,-1
 111 771 l 1,0,-1
111 229 m 1,4,-1
 223 229 l 1,5,-1
 223 -156 l 1,6,-1
 111 -156 l 1,7,-1
 111 229 l 1,4,-1
EndSplineSet
EndChar

StartChar: at
Encoding: 64 64 203
Width: 973
GlyphClass: 1
Flags: W
LayerCount: 2
Fore
SplineSet
459 -158 m 0,0,1
 365 -158 365 -158 287.5 -133.5 c 128,-1,2
 210 -109 210 -109 153 -61.5 c 128,-1,3
 96 -14 96 -14 65 54 c 128,-1,4
 34 122 34 122 34 209 c 0,5,6
 34 290 34 290 59 362 c 128,-1,7
 84 434 84 434 130 492.5 c 128,-1,8
 176 551 176 551 240 593 c 128,-1,9
 304 635 304 635 382.5 657.5 c 128,-1,10
 461 680 461 680 550 680 c 0,11,12
 646 680 646 680 720 658.5 c 128,-1,13
 794 637 794 637 844.5 596 c 128,-1,14
 895 555 895 555 921 497 c 128,-1,15
 947 439 947 439 947 366 c 0,16,17
 947 298 947 298 927 240.5 c 128,-1,18
 907 183 907 183 871 141 c 128,-1,19
 835 99 835 99 787 76 c 128,-1,20
 739 53 739 53 682 53 c 0,21,22
 638 53 638 53 606.5 64.5 c 128,-1,23
 575 76 575 76 556 97.5 c 128,-1,24
 537 119 537 119 528 149 c 1,25,-1
 515 155 l 1,26,-1
 589 384 l 1,27,-1
 599 387 l 1,28,-1
 651 471 l 1,29,-1
 751 471 l 1,30,-1
 666 202 l 2,31,32
 661 185 661 185 658.5 174.5 c 128,-1,33
 656 164 656 164 656 156 c 0,34,35
 656 138 656 138 668 129.5 c 128,-1,36
 680 121 680 121 707 121 c 0,37,38
 739 121 739 121 766 140.5 c 128,-1,39
 793 160 793 160 813 194.5 c 128,-1,40
 833 229 833 229 843.5 273 c 128,-1,41
 854 317 854 317 854 366 c 0,42,43
 854 441 854 441 820 494 c 128,-1,44
 786 547 786 547 718.5 575.5 c 128,-1,45
 651 604 651 604 550 604 c 0,46,47
 456 604 456 604 378.5 575 c 128,-1,48
 301 546 301 546 244.5 493.5 c 128,-1,49
 188 441 188 441 157.5 368.5 c 128,-1,50
 127 296 127 296 127 209 c 0,51,52
 127 140 127 140 151.5 86 c 128,-1,53
 176 32 176 32 221 -5.5 c 128,-1,54
 266 -43 266 -43 327.5 -62.5 c 128,-1,55
 389 -82 389 -82 463 -82 c 0,56,57
 510 -82 510 -82 551 -75.5 c 128,-1,58
 592 -69 592 -69 627 -59 c 128,-1,59
 662 -49 662 -49 690 -37 c 1,60,-1
 702 -111 l 1,61,62
 673 -124 673 -124 635 -134.5 c 128,-1,63
 597 -145 597 -145 552 -151.5 c 128,-1,64
 507 -158 507 -158 459 -158 c 0,0,1
405 50 m 0,65,66
 360 50 360 50 326.5 68.5 c 128,-1,67
 293 87 293 87 275 122 c 128,-1,68
 257 157 257 157 257 204 c 256,69,70
 257 251 257 251 273.5 299 c 128,-1,71
 290 347 290 347 320.5 387.5 c 128,-1,72
 351 428 351 428 394 452.5 c 128,-1,73
 437 477 437 477 490 477 c 0,74,75
 538 477 538 477 566 461 c 128,-1,76
 594 445 594 445 607.5 413.5 c 128,-1,77
 621 382 621 382 625 334 c 1,78,-1
 588 304 l 1,79,80
 585 343 585 343 576.5 366.5 c 128,-1,81
 568 390 568 390 553.5 400 c 128,-1,82
 539 410 539 410 517 410 c 0,83,84
 493 410 493 410 473.5 394 c 128,-1,85
 454 378 454 378 438.5 352 c 128,-1,86
 423 326 423 326 412.5 295.5 c 128,-1,87
 402 265 402 265 396.5 234.5 c 128,-1,88
 391 204 391 204 391 179 c 0,89,90
 391 159 391 159 396.5 144.5 c 128,-1,91
 402 130 402 130 412.5 123 c 128,-1,92
 423 116 423 116 438 116 c 0,93,94
 457 116 457 116 474 127.5 c 128,-1,95
 491 139 491 139 509 160.5 c 128,-1,96
 527 182 527 182 548 211 c 1,97,-1
 574 181 l 1,98,99
 543 138 543 138 517 109 c 128,-1,100
 491 80 491 80 465 65 c 128,-1,101
 439 50 439 50 405 50 c 0,65,66
EndSplineSet
EndChar

StartChar: ampersand
Encoding: 38 38 204
Width: 798
GlyphClass: 1
Flags: W
LayerCount: 2
Fore
SplineSet
714 0 m 1,0,-1
 525 0 l 1,1,2
 473 61 473 61 427.5 118 c 128,-1,3
 382 175 382 175 345 228 c 128,-1,4
 308 281 308 281 282 330 c 128,-1,5
 256 379 256 379 241.5 425.5 c 128,-1,6
 227 472 227 472 227 515 c 0,7,8
 227 577 227 577 253.5 622.5 c 128,-1,9
 280 668 280 668 332.5 693.5 c 128,-1,10
 385 719 385 719 463 719 c 0,11,12
 530 719 530 719 572 701.5 c 128,-1,13
 614 684 614 684 633.5 654.5 c 128,-1,14
 653 625 653 625 653 585 c 0,15,16
 653 531 653 531 619 492 c 128,-1,17
 585 453 585 453 521.5 427 c 128,-1,18
 458 401 458 401 370 385 c 1,19,-1
 355 440 l 1,20,21
 417 453 417 453 453 472 c 128,-1,22
 489 491 489 491 504.5 517 c 128,-1,23
 520 543 520 543 520 577 c 0,24,25
 520 597 520 597 514.5 611 c 128,-1,26
 509 625 509 625 497 632.5 c 128,-1,27
 485 640 485 640 463 640 c 0,28,29
 435 640 435 640 418 626.5 c 128,-1,30
 401 613 401 613 393.5 587 c 128,-1,31
 386 561 386 561 386 524 c 0,32,33
 386 492 386 492 395.5 459.5 c 128,-1,34
 405 427 405 427 424.5 391.5 c 128,-1,35
 444 356 444 356 473.5 314.5 c 128,-1,36
 503 273 503 273 542 224.5 c 128,-1,37
 581 176 581 176 631 118 c 0,38,39
 645 102 645 102 656 92.5 c 128,-1,40
 667 83 667 83 680 79.5 c 128,-1,41
 693 76 693 76 710 76 c 2,42,-1
 731 75 l 1,43,-1
 714 0 l 1,0,-1
331 74 m 0,44,45
 375 74 375 74 416 90.5 c 128,-1,46
 457 107 457 107 492.5 134 c 128,-1,47
 528 161 528 161 555 194.5 c 128,-1,48
 582 228 582 228 600 262 c 128,-1,49
 618 296 618 296 623 325 c 0,50,51
 623 329 623 329 614.5 331.5 c 128,-1,52
 606 334 606 334 593 335.5 c 128,-1,53
 580 337 580 337 567 337 c 2,54,-1
 561 337 l 1,55,-1
 576 409 l 1,56,-1
 793 409 l 1,57,-1
 777 337 l 1,58,-1
 766 337 l 2,59,60
 736 337 736 337 719.5 327.5 c 128,-1,61
 703 318 703 318 691 289 c 0,62,63
 678 260 678 260 654 221 c 128,-1,64
 630 182 630 182 594.5 141.5 c 128,-1,65
 559 101 559 101 512.5 66.5 c 128,-1,66
 466 32 466 32 408 11 c 128,-1,67
 350 -10 350 -10 281 -10 c 0,68,69
 197 -10 197 -10 138.5 14 c 128,-1,70
 80 38 80 38 49.5 83.5 c 128,-1,71
 19 129 19 129 19 194 c 0,72,73
 19 248 19 248 39.5 289 c 128,-1,74
 60 330 60 330 98 358.5 c 128,-1,75
 136 387 136 387 188.5 404 c 128,-1,76
 241 421 241 421 307 428 c 1,77,-1
 325 389 l 1,78,79
 282 376 282 376 252 351 c 128,-1,80
 222 326 222 326 206.5 289 c 128,-1,81
 191 252 191 252 191 203 c 0,82,83
 191 161 191 161 206 132 c 128,-1,84
 221 103 221 103 252.5 88.5 c 128,-1,85
 284 74 284 74 331 74 c 0,44,45
EndSplineSet
EndChar

StartChar: section
Encoding: 167 167 205
Width: 644
GlyphClass: 1
Flags: W
LayerCount: 2
Fore
SplineSet
221 -236 m 0,0,1
 157 -236 157 -236 108 -224 c 128,-1,2
 59 -212 59 -212 25 -193.5 c 128,-1,3
 -9 -175 -9 -175 -30 -157 c 1,4,-1
 -2 -33 l 1,5,-1
 139 -33 l 1,6,-1
 111 -158 l 1,7,8
 101 -151 101 -151 93.5 -141 c 128,-1,9
 86 -131 86 -131 81.5 -121 c 128,-1,10
 77 -111 77 -111 76 -102.5 c 128,-1,11
 75 -94 75 -94 78 -89 c 1,12,13
 92 -110 92 -110 110.5 -125 c 128,-1,14
 129 -140 129 -140 156.5 -147.5 c 128,-1,15
 184 -155 184 -155 223 -155 c 0,16,17
 261 -155 261 -155 286.5 -144.5 c 128,-1,18
 312 -134 312 -134 325 -114 c 128,-1,19
 338 -94 338 -94 338 -66 c 0,20,21
 338 -44 338 -44 325.5 -25.5 c 128,-1,22
 313 -7 313 -7 291.5 9 c 128,-1,23
 270 25 270 25 243 41 c 128,-1,24
 216 57 216 57 188 74 c 0,25,26
 155 93 155 93 126.5 113.5 c 128,-1,27
 98 134 98 134 76 156.5 c 128,-1,28
 54 179 54 179 41.5 206 c 128,-1,29
 29 233 29 233 29 268 c 0,30,31
 29 304 29 304 42 333 c 128,-1,32
 55 362 55 362 81.5 382 c 128,-1,33
 108 402 108 402 146 413 c 128,-1,34
 184 424 184 424 233 424 c 1,35,-1
 294 376 l 1,36,37
 256 377 256 377 228.5 369.5 c 128,-1,38
 201 362 201 362 187 346 c 128,-1,39
 173 330 173 330 173 304 c 0,40,41
 173 277 173 277 194.5 255.5 c 128,-1,42
 216 234 216 234 251.5 213.5 c 128,-1,43
 287 193 287 193 328 168 c 256,44,45
 369 143 369 143 405.5 113.5 c 128,-1,46
 442 84 442 84 464.5 47.5 c 128,-1,47
 487 11 487 11 487 -35 c 0,48,49
 487 -95 487 -95 453.5 -140.5 c 128,-1,50
 420 -186 420 -186 360.5 -211 c 128,-1,51
 301 -236 301 -236 221 -236 c 0,0,1
384 75 m 1,52,-1
 343 129 l 1,53,54
 380 131 380 131 407.5 137.5 c 128,-1,55
 435 144 435 144 450 159 c 128,-1,56
 465 174 465 174 465 199 c 0,57,58
 465 219 465 219 452 236 c 128,-1,59
 439 253 439 253 416.5 269 c 128,-1,60
 394 285 394 285 365.5 302 c 128,-1,61
 337 319 337 319 307 338 c 0,62,63
 268 363 268 363 234.5 392 c 128,-1,64
 201 421 201 421 180 457.5 c 128,-1,65
 159 494 159 494 159 539 c 0,66,67
 159 579 159 579 175 612 c 128,-1,68
 191 645 191 645 222 669.5 c 128,-1,69
 253 694 253 694 299.5 707 c 128,-1,70
 346 720 346 720 407 720 c 256,71,72
 468 720 468 720 512.5 709 c 128,-1,73
 557 698 557 698 586.5 682 c 128,-1,74
 616 666 616 666 630 653 c 1,75,-1
 604 537 l 1,76,-1
 471 537 l 1,77,-1
 495 647 l 1,78,79
 506 647 506 647 516.5 635 c 128,-1,80
 527 623 527 623 533 608.5 c 128,-1,81
 539 594 539 594 534 585 c 1,82,83
 523 602 523 602 505 614 c 128,-1,84
 487 626 487 626 462.5 633 c 128,-1,85
 438 640 438 640 405 640 c 0,86,87
 370 640 370 640 347.5 630.5 c 128,-1,88
 325 621 325 621 314 604.5 c 128,-1,89
 303 588 303 588 303 566 c 0,90,91
 303 539 303 539 323 517.5 c 128,-1,92
 343 496 343 496 374.5 477 c 128,-1,93
 406 458 406 458 441 436 c 0,94,95
 486 409 486 409 524.5 381.5 c 128,-1,96
 563 354 563 354 586 321 c 128,-1,97
 609 288 609 288 609 242 c 0,98,99
 609 202 609 202 594 171 c 128,-1,100
 579 140 579 140 550 119 c 128,-1,101
 521 98 521 98 479 87 c 128,-1,102
 437 76 437 76 384 75 c 1,52,-1
EndSplineSet
EndChar

StartChar: paragraph
Encoding: 182 182 206
Width: 655
GlyphClass: 1
Flags: W
LayerCount: 2
Fore
SplineSet
705 710 m 1,0,-1
 529 710 l 1,1,-1
 377 0 l 1,2,-1
 481 0 l 1,3,-1
 608 599 l 2,4,5
 612 614 612 614 621.5 621.5 c 128,-1,6
 631 629 631 629 645.5 632 c 128,-1,7
 660 635 660 635 678 635 c 2,8,-1
 688 635 l 1,9,-1
 705 710 l 1,0,-1
556 710 m 1,10,-1
 380 710 l 1,11,-1
 364 636 l 1,12,-1
 540 636 l 1,13,-1
 556 710 l 1,10,-1
292 0 m 1,14,-1
 444 710 l 1,15,-1
 330 710 l 2,16,17
 241 710 241 710 182 680 c 128,-1,18
 123 650 123 650 94 598.5 c 128,-1,19
 65 547 65 547 65 484 c 0,20,21
 65 431 65 431 87 390.5 c 128,-1,22
 109 350 109 350 150.5 327.5 c 128,-1,23
 192 305 192 305 249 305 c 2,24,-1
 253 305 l 1,25,-1
 188 0 l 1,26,-1
 292 0 l 1,14,-1
EndSplineSet
EndChar

StartChar: bullet
Encoding: 149 8226 208
Width: 451
GlyphClass: 1
Flags: W
LayerCount: 2
Fore
SplineSet
82 340 m 0,0,1
 82 383 82 383 101.5 415.5 c 128,-1,2
 121 448 121 448 155.5 466 c 128,-1,3
 190 484 190 484 234 484 c 0,4,5
 279 484 279 484 313 466 c 128,-1,6
 347 448 347 448 366.5 415.5 c 128,-1,7
 386 383 386 383 386 340 c 256,8,9
 386 297 386 297 366.5 264.5 c 128,-1,10
 347 232 347 232 313 214 c 128,-1,11
 279 196 279 196 234 196 c 0,12,13
 190 196 190 196 155.5 214 c 128,-1,14
 121 232 121 232 101.5 265 c 128,-1,15
 82 298 82 298 82 340 c 0,0,1
EndSplineSet
EndChar

StartChar: plus
Encoding: 43 43 209
Width: 560
GlyphClass: 1
Flags: W
LayerCount: 2
Fore
SplineSet
271 571 m 1,0,-1
 391 571 l 1,1,-1
 290 105 l 1,2,-1
 171 105 l 1,3,-1
 271 571 l 1,0,-1
519 394 m 1,4,-1
 496 282 l 1,5,-1
 43 282 l 1,6,-1
 67 394 l 1,7,-1
 519 394 l 1,4,-1
EndSplineSet
Substitution2: "'subs' Subscript in Latin lookup 51 subtable" plus.sub
Substitution2: "'sups' Superscript in Latin lookup 50 subtable" plus.sup
EndChar

StartChar: minus
Encoding: 823 8722 210
Width: 560
GlyphClass: 1
Flags: W
LayerCount: 2
Fore
SplineSet
519 394 m 1,0,-1
 496 282 l 1,1,-1
 43 282 l 1,2,-1
 67 394 l 1,3,-1
 519 394 l 1,0,-1
EndSplineSet
Substitution2: "'subs' Subscript in Latin lookup 51 subtable" minus.sub
Substitution2: "'sups' Superscript in Latin lookup 50 subtable" minus.sup
EndChar

StartChar: divide
Encoding: 247 247 212
Width: 560
GlyphClass: 1
Flags: W
LayerCount: 2
Fore
SplineSet
428 569 m 0,0,1
 428 528 428 528 401 503.5 c 128,-1,2
 374 479 374 479 329 479 c 256,3,4
 284 479 284 479 257 503.5 c 128,-1,5
 230 528 230 528 230 569 c 0,6,7
 230 612 230 612 257 636 c 128,-1,8
 284 660 284 660 329 660 c 256,9,10
 374 660 374 660 401 636 c 128,-1,11
 428 612 428 612 428 569 c 0,0,1
340 129 m 256,12,13
 340 87 340 87 313 62.5 c 128,-1,14
 286 38 286 38 241 38 c 256,15,16
 196 38 196 38 169 62.5 c 128,-1,17
 142 87 142 87 142 129 c 256,18,19
 142 171 142 171 169 195 c 128,-1,20
 196 219 196 219 241 219 c 256,21,22
 286 219 286 219 313 195 c 128,-1,23
 340 171 340 171 340 129 c 256,12,13
519 405 m 1,24,-1
 496 293 l 1,25,-1
 43 293 l 1,26,-1
 67 405 l 1,27,-1
 519 405 l 1,24,-1
EndSplineSet
EndChar

StartChar: multiply
Encoding: 215 215 213
Width: 560
GlyphClass: 1
Flags: W
LayerCount: 2
Fore
SplineSet
103 126 m 1,0,-1
 41 205 l 1,1,-1
 465 554 l 1,2,-1
 527 475 l 1,3,-1
 103 126 l 1,0,-1
378 128 m 1,4,-1
 102 484 l 1,5,-1
 191 554 l 1,6,-1
 467 197 l 1,7,-1
 378 128 l 1,4,-1
EndSplineSet
EndChar

StartChar: less
Encoding: 60 60 215
Width: 560
GlyphClass: 1
Flags: W
LayerCount: 2
Fore
SplineSet
424 96 m 1,0,-1
 451 217 l 1,1,-1
 136 375 l 1,2,-1
 121 300 l 1,3,-1
 502 459 l 1,4,-1
 527 584 l 1,5,-1
 96 397 l 1,6,-1
 72 282 l 1,7,-1
 424 96 l 1,0,-1
EndSplineSet
EndChar

StartChar: greater
Encoding: 62 62 216
Width: 560
GlyphClass: 1
Flags: W
LayerCount: 2
Fore
SplineSet
149 584 m 1,0,-1
 122 463 l 1,1,-1
 436 305 l 1,2,-1
 451 381 l 1,3,-1
 71 222 l 1,4,-1
 45 97 l 1,5,-1
 476 283 l 1,6,-1
 501 398 l 1,7,-1
 149 584 l 1,0,-1
EndSplineSet
EndChar

StartChar: logicalnot
Encoding: 172 172 217
Width: 560
GlyphClass: 1
Flags: W
LayerCount: 2
Fore
SplineSet
392 366 m 1,0,-1
 448 308 l 1,1,-1
 59 308 l 1,2,-1
 83 420 l 1,3,-1
 519 420 l 1,4,-1
 460 148 l 1,5,-1
 345 148 l 1,6,-1
 392 366 l 1,0,-1
EndSplineSet
EndChar

StartChar: infinity
Encoding: 836 8734 219
Width: 792
GlyphClass: 1
Flags: W
LayerCount: 2
Fore
SplineSet
339 332 m 0,0,1
 351 292 351 292 366.5 256.5 c 128,-1,2
 382 221 382 221 405 194 c 128,-1,3
 428 167 428 167 461.5 152.5 c 128,-1,4
 495 138 495 138 542 138 c 0,5,6
 590 138 590 138 629 157 c 128,-1,7
 668 176 668 176 696.5 210 c 128,-1,8
 725 244 725 244 740 288.5 c 128,-1,9
 755 333 755 333 755 384 c 0,10,11
 755 438 755 438 737 479 c 128,-1,12
 719 520 719 520 685.5 543 c 128,-1,13
 652 566 652 566 606 566 c 0,14,15
 572 566 572 566 542.5 551 c 128,-1,16
 513 536 513 536 488 508 c 128,-1,17
 463 480 463 480 441.5 444 c 128,-1,18
 420 408 420 408 401 366 c 1,19,-1
 447 361 l 1,20,21
 459 380 459 380 472.5 398.5 c 128,-1,22
 486 417 486 417 502.5 432 c 128,-1,23
 519 447 519 447 539.5 455.5 c 128,-1,24
 560 464 560 464 584 464 c 0,25,26
 615 464 615 464 636 452.5 c 128,-1,27
 657 441 657 441 668 420 c 128,-1,28
 679 399 679 399 679 368 c 0,29,30
 679 335 679 335 667.5 305.5 c 128,-1,31
 656 276 656 276 633.5 258.5 c 128,-1,32
 611 241 611 241 577 241 c 0,33,34
 547 241 547 241 527.5 254 c 128,-1,35
 508 267 508 267 494 295.5 c 128,-1,36
 480 324 480 324 465 369 c 0,37,38
 454 407 454 407 438.5 442 c 128,-1,39
 423 477 423 477 401 505 c 128,-1,40
 379 533 379 533 346 549.5 c 128,-1,41
 313 566 313 566 265 566 c 0,42,43
 216 566 216 566 176 546.5 c 128,-1,44
 136 527 136 527 107.5 493 c 128,-1,45
 79 459 79 459 64 415.5 c 128,-1,46
 49 372 49 372 49 324 c 0,47,48
 49 267 49 267 68 225 c 128,-1,49
 87 183 87 183 120.5 160.5 c 128,-1,50
 154 138 154 138 199 138 c 0,51,52
 233 138 233 138 262 152.5 c 128,-1,53
 291 167 291 167 315.5 194 c 128,-1,54
 340 221 340 221 361 257.5 c 128,-1,55
 382 294 382 294 402 336 c 1,56,-1
 356 341 l 1,57,58
 344 322 344 322 330.5 303.5 c 128,-1,59
 317 285 317 285 301 270.5 c 128,-1,60
 285 256 285 256 265 247.5 c 128,-1,61
 245 239 245 239 220 239 c 0,62,63
 191 239 191 239 169.5 251 c 128,-1,64
 148 263 148 263 136.5 284.5 c 128,-1,65
 125 306 125 306 125 338 c 0,66,67
 125 371 125 371 136 399.5 c 128,-1,68
 147 428 147 428 169.5 445.5 c 128,-1,69
 192 463 192 463 227 463 c 0,70,71
 259 463 259 463 278.5 449 c 128,-1,72
 298 435 298 435 312 406.5 c 128,-1,73
 326 378 326 378 339 332 c 0,0,1
EndSplineSet
EndChar

StartChar: dollar
Encoding: 36 36 220
Width: 560
GlyphClass: 1
Flags: W
LayerCount: 2
Fore
SplineSet
250 9 m 0,0,1
 180 9 180 9 127.5 22.5 c 128,-1,2
 75 36 75 36 39 56 c 128,-1,3
 3 76 3 76 -17 95 c 1,4,-1
 11 219 l 1,5,-1
 132 219 l 1,6,-1
 103 93 l 1,7,8
 94 93 94 93 85 102 c 128,-1,9
 76 111 76 111 68.5 123 c 128,-1,10
 61 135 61 135 57.5 146 c 128,-1,11
 54 157 54 157 56 162 c 1,12,13
 71 142 71 142 96.5 124 c 128,-1,14
 122 106 122 106 160.5 95 c 128,-1,15
 199 84 199 84 253 84 c 0,16,17
 285 84 285 84 311.5 90 c 128,-1,18
 338 96 338 96 357 108.5 c 128,-1,19
 376 121 376 121 386.5 139.5 c 128,-1,20
 397 158 397 158 397 183 c 0,21,22
 397 207 397 207 385 223.5 c 128,-1,23
 373 240 373 240 352 252 c 128,-1,24
 331 264 331 264 303 275.5 c 128,-1,25
 275 287 275 287 244 301 c 0,26,27
 196 323 196 323 158.5 346.5 c 128,-1,28
 121 370 121 370 99.5 405.5 c 128,-1,29
 78 441 78 441 78 497 c 0,30,31
 78 542 78 542 94 579 c 128,-1,32
 110 616 110 616 142 643 c 128,-1,33
 174 670 174 670 222 684.5 c 128,-1,34
 270 699 270 699 333 699 c 0,35,36
 395 699 395 699 443 688.5 c 128,-1,37
 491 678 491 678 523.5 663 c 128,-1,38
 556 648 556 648 570 634 c 1,39,-1
 544 512 l 1,40,-1
 431 512 l 1,41,-1
 456 625 l 1,42,43
 465 622 465 622 473 615.5 c 128,-1,44
 481 609 481 609 487.5 600.5 c 128,-1,45
 494 592 494 592 497 583.5 c 128,-1,46
 500 575 500 575 499 568 c 1,47,48
 485 585 485 585 462.5 598 c 128,-1,49
 440 611 440 611 408 618 c 128,-1,50
 376 625 376 625 332 625 c 0,51,52
 296 625 296 625 269.5 619.5 c 128,-1,53
 243 614 243 614 226.5 603.5 c 128,-1,54
 210 593 210 593 201.5 577.5 c 128,-1,55
 193 562 193 562 193 541 c 0,56,57
 193 513 193 513 212.5 495.5 c 128,-1,58
 232 478 232 478 263.5 464.5 c 128,-1,59
 295 451 295 451 332 434 c 0,60,61
 373 417 373 417 406.5 399.5 c 128,-1,62
 440 382 440 382 465 359.5 c 128,-1,63
 490 337 490 337 504 306.5 c 128,-1,64
 518 276 518 276 518 233 c 0,65,66
 518 179 518 179 499 137.5 c 128,-1,67
 480 96 480 96 445 67.5 c 128,-1,68
 410 39 410 39 360.5 24 c 128,-1,69
 311 9 311 9 250 9 c 0,0,1
139 -126 m 1,70,-1
 175 48 l 1,71,-1
 193 65 l 1,72,-1
 317 643 l 1,73,-1
 306 658 l 1,74,-1
 335 796 l 1,75,-1
 427 796 l 1,76,-1
 399 663 l 1,77,-1
 382 647 l 1,78,-1
 258 65 l 1,79,-1
 267 45 l 1,80,-1
 231 -126 l 1,81,-1
 139 -126 l 1,70,-1
EndSplineSet
Substitution2: "'pnum' Proportional Numbers in Latin lookup 55 subtable" dollar.proportional
EndChar

StartChar: cent
Encoding: 162 162 221
Width: 560
GlyphClass: 1
Flags: W
LayerCount: 2
Fore
SplineSet
281 -13 m 0,0,1
 222 -13 222 -13 174.5 3.5 c 128,-1,2
 127 20 127 20 92.5 50.5 c 128,-1,3
 58 81 58 81 39.5 125 c 128,-1,4
 21 169 21 169 21 224 c 0,5,6
 21 291 21 291 42.5 350.5 c 128,-1,7
 64 410 64 410 106 455 c 128,-1,8
 148 500 148 500 209 525 c 128,-1,9
 270 550 270 550 348 550 c 0,10,11
 410 550 410 550 454 539.5 c 128,-1,12
 498 529 498 529 526 515.5 c 128,-1,13
 554 502 554 502 566 491 c 1,14,-1
 533 339 l 1,15,-1
 410 339 l 1,16,-1
 444 489 l 1,17,18
 457 488 457 488 465 480 c 128,-1,19
 473 472 473 472 477.5 462 c 128,-1,20
 482 452 482 452 482 443 c 128,-1,21
 482 434 482 434 479 430 c 1,22,23
 469 443 469 443 451.5 453 c 128,-1,24
 434 463 434 463 408.5 469 c 128,-1,25
 383 475 383 475 347 475 c 0,26,27
 308 475 308 475 279 458 c 128,-1,28
 250 441 250 441 230 412 c 128,-1,29
 210 383 210 383 197.5 347 c 128,-1,30
 185 311 185 311 179.5 272 c 128,-1,31
 174 233 174 233 174 196 c 0,32,33
 174 149 174 149 187 120 c 128,-1,34
 200 91 200 91 227 78 c 128,-1,35
 254 65 254 65 295 65 c 0,36,37
 337 65 337 65 365 80.5 c 128,-1,38
 393 96 393 96 412.5 121 c 128,-1,39
 432 146 432 146 448 172 c 1,40,-1
 513 128 l 1,41,42
 491 85 491 85 459 53.5 c 128,-1,43
 427 22 427 22 383 4.5 c 128,-1,44
 339 -13 339 -13 281 -13 c 0,0,1
168 -146 m 1,45,-1
 204 20 l 1,46,-1
 224 37 l 1,47,-1
 324 497 l 1,48,-1
 310 511 l 1,49,-1
 342 663 l 1,50,-1
 437 663 l 1,51,-1
 406 519 l 1,52,-1
 385 501 l 1,53,-1
 285 36 l 1,54,-1
 299 23 l 1,55,-1
 263 -146 l 1,56,-1
 168 -146 l 1,45,-1
EndSplineSet
Substitution2: "'pnum' Proportional Numbers in Latin lookup 55 subtable" cent.proportional
EndChar

StartChar: sterling
Encoding: 163 163 222
Width: 560
GlyphClass: 1
Flags: W
LayerCount: 2
Fore
SplineSet
369 643 m 0,0,1
 331 643 331 643 309 626.5 c 128,-1,2
 287 610 287 610 277.5 580 c 128,-1,3
 268 550 268 550 268 510 c 0,4,5
 268 486 268 486 270.5 463.5 c 128,-1,6
 273 441 273 441 276.5 418 c 128,-1,7
 280 395 280 395 282.5 369.5 c 128,-1,8
 285 344 285 344 285 315 c 0,9,10
 285 256 285 256 266 202 c 128,-1,11
 247 148 247 148 207 103.5 c 128,-1,12
 167 59 167 59 105 29.5 c 128,-1,13
 43 0 43 0 -43 -12 c 1,14,-1
 -18 98 l 1,15,16
 27 107 27 107 58.5 123 c 128,-1,17
 90 139 90 139 109.5 162.5 c 128,-1,18
 129 186 129 186 138.5 217 c 128,-1,19
 148 248 148 248 148 286 c 0,20,21
 148 313 148 313 142.5 338 c 128,-1,22
 137 363 137 363 129 386 c 128,-1,23
 121 409 121 409 113 432 c 128,-1,24
 105 455 105 455 100 479 c 128,-1,25
 95 503 95 503 95 530 c 0,26,27
 95 587 95 587 123 631.5 c 128,-1,28
 151 676 151 676 209 701.5 c 128,-1,29
 267 727 267 727 356 727 c 0,30,31
 401 727 401 727 437 720.5 c 128,-1,32
 473 714 473 714 499 704.5 c 128,-1,33
 525 695 525 695 542 685 c 128,-1,34
 559 675 559 675 568 669 c 1,35,-1
 535 521 l 1,36,-1
 401 521 l 1,37,-1
 432 657 l 1,38,39
 444 656 444 656 453.5 649 c 128,-1,40
 463 642 463 642 469 632.5 c 128,-1,41
 475 623 475 623 477.5 614 c 128,-1,42
 480 605 480 605 478 601 c 1,43,44
 467 613 467 613 452 622.5 c 128,-1,45
 437 632 437 632 416.5 637.5 c 128,-1,46
 396 643 396 643 369 643 c 0,0,1
37 395 m 1,47,-1
 443 395 l 1,48,-1
 425 307 l 1,49,-1
 18 307 l 1,50,-1
 37 395 l 1,47,-1
343 -10 m 0,51,52
 309 -10 309 -10 285.5 -1 c 128,-1,53
 262 8 262 8 242.5 28 c 128,-1,54
 223 48 223 48 204 79 c 128,-1,55
 185 110 185 110 162 153 c 1,56,-1
 219 217 l 1,57,58
 239 187 239 187 257.5 167 c 128,-1,59
 276 147 276 147 297.5 137 c 128,-1,60
 319 127 319 127 348 127 c 0,61,62
 375 127 375 127 392.5 137 c 128,-1,63
 410 147 410 147 423.5 169 c 128,-1,64
 437 191 437 191 449 226 c 1,65,-1
 527 192 l 1,66,67
 514 149 514 149 497 112 c 128,-1,68
 480 75 480 75 458.5 47.5 c 128,-1,69
 437 20 437 20 408.5 5 c 128,-1,70
 380 -10 380 -10 343 -10 c 0,51,52
EndSplineSet
Substitution2: "'ss05' Style Set 5 in Latin lookup 62 subtable" sterling.alt
Substitution2: "'pnum' Proportional Numbers in Latin lookup 55 subtable" sterling.proportional
EndChar

StartChar: currency
Encoding: 164 164 223
Width: 562
GlyphClass: 1
Flags: W
LayerCount: 2
Fore
SplineSet
44 99 m 1,0,-1
 -19 178 l 1,1,-1
 115 288 l 1,2,-1
 186 215 l 1,3,-1
 44 99 l 1,0,-1
61 581 m 1,4,-1
 154 654 l 1,5,-1
 249 532 l 1,6,-1
 152 464 l 1,7,-1
 61 581 l 1,4,-1
285 268 m 0,8,9
 321 268 321 268 344.5 284.5 c 128,-1,10
 368 301 368 301 380 328 c 128,-1,11
 392 355 392 355 392 389 c 0,12,13
 392 416 392 416 382 436 c 128,-1,14
 372 456 372 456 351.5 467 c 128,-1,15
 331 478 331 478 300 478 c 0,16,17
 265 478 265 478 241 462 c 128,-1,18
 217 446 217 446 205 419 c 128,-1,19
 193 392 193 392 193 358 c 0,20,21
 193 331 193 331 203 311 c 128,-1,22
 213 291 213 291 233.5 279.5 c 128,-1,23
 254 268 254 268 285 268 c 0,8,9
273 159 m 0,24,25
 229 159 229 159 192.5 175 c 128,-1,26
 156 191 156 191 129 219.5 c 128,-1,27
 102 248 102 248 87.5 284.5 c 128,-1,28
 73 321 73 321 73 361 c 0,29,30
 73 405 73 405 92.5 445.5 c 128,-1,31
 112 486 112 486 145 518 c 128,-1,32
 178 550 178 550 221 569 c 128,-1,33
 264 588 264 588 311 588 c 0,34,35
 355 588 355 588 392 572 c 128,-1,36
 429 556 429 556 455.5 527.5 c 128,-1,37
 482 499 482 499 497 462.5 c 128,-1,38
 512 426 512 426 512 386 c 0,39,40
 512 342 512 342 492.5 301 c 128,-1,41
 473 260 473 260 440 228 c 128,-1,42
 407 196 407 196 364 177.5 c 128,-1,43
 321 159 321 159 273 159 c 0,24,25
430 93 m 1,44,-1
 334 215 l 1,45,-1
 431 282 l 1,46,-1
 522 166 l 1,47,-1
 430 93 l 1,44,-1
602 567 m 1,48,-1
 468 458 l 1,49,-1
 397 530 l 1,50,-1
 539 646 l 1,51,-1
 602 567 l 1,48,-1
EndSplineSet
EndChar

StartChar: yen
Encoding: 165 165 224
Width: 560
GlyphClass: 1
Flags: W
LayerCount: 2
Fore
SplineSet
26 233 m 1,0,-1
 487 233 l 1,1,-1
 471 157 l 1,2,-1
 10 157 l 1,3,-1
 26 233 l 1,0,-1
58 381 m 1,4,-1
 519 381 l 1,5,-1
 503 305 l 1,6,-1
 42 305 l 1,7,-1
 58 381 l 1,4,-1
201 375 m 1,8,-1
 373 375 l 1,9,-1
 317 111 l 2,10,11
 312 89 312 89 329 82 c 128,-1,12
 346 75 346 75 372 75 c 2,13,-1
 391 75 l 1,14,-1
 374 0 l 1,15,-1
 39 0 l 1,16,-1
 56 75 l 1,17,-1
 74 75 l 2,18,19
 101 75 101 75 120.5 82 c 128,-1,20
 140 89 140 89 145 111 c 2,21,-1
 201 375 l 1,8,-1
348 329 m 1,22,-1
 205 330 l 1,23,-1
 118 605 l 2,24,25
 112 624 112 624 101.5 629.5 c 128,-1,26
 91 635 91 635 73 635 c 2,27,-1
 68 635 l 1,28,-1
 85 710 l 1,29,-1
 355 710 l 1,30,-1
 338 635 l 1,31,-1
 328 635 l 2,32,33
 316 635 316 635 305.5 633.5 c 128,-1,34
 295 632 295 632 288.5 630 c 128,-1,35
 282 628 282 628 281 624 c 2,36,-1
 351 384 l 1,37,-1
 303 377 l 1,38,-1
 474 614 l 2,39,40
 475 621 475 621 469 625.5 c 128,-1,41
 463 630 463 630 452.5 632.5 c 128,-1,42
 442 635 442 635 430 635 c 2,43,-1
 424 635 l 1,44,-1
 441 710 l 1,45,-1
 629 710 l 1,46,-1
 612 635 l 1,47,-1
 608 635 l 2,48,49
 590 635 590 635 574.5 625.5 c 128,-1,50
 559 616 559 616 541 591 c 2,51,-1
 348 329 l 1,22,-1
EndSplineSet
Substitution2: "'pnum' Proportional Numbers in Latin lookup 55 subtable" yen.proportional
EndChar

